<svg width="203" height="277" viewBox="0 0 203 277" fill="none" xmlns="http://www.w3.org/2000/svg">
<path fill-rule="evenodd" clip-rule="evenodd" d="M102.813 91.739C103.927 87.985 119.66 87.5723 126.229 87.5723C132.799 87.5723 146.053 90.0291 147.225 93.5472C149.665 100.8 148.397 118.174 148.819 125.82C149.184 132.561 152.642 151.155 151.029 152.727C149.127 154.575 130.494 151.41 123.367 151.292C115.376 151.155 94.6107 154.614 90.8841 151.41C89.0976 149.877 98.8559 129.063 99.5091 122.872C99.9893 118.292 101.392 96.5151 102.813 91.7194V91.739Z" fill="#172C4F"/>
<path fill-rule="evenodd" clip-rule="evenodd" d="M0.714896 136.158C1.02225 137.298 1.44485 138.34 1.98271 139.303C6.17035 147.086 16.6394 149.739 27.3967 149.051C39.4794 148.305 40.5167 129.81 38.5189 127.353C36.5211 124.876 30.2205 126.154 30.0092 127.982C29.7979 129.81 35.0612 138.949 30.5278 143.253C26.0136 147.558 12.6823 145.297 9.41673 138.949C6.15114 132.601 2.80871 111.334 15.0835 107.679C27.3583 104.023 48.6806 112.514 51.4084 120.572C54.1361 128.63 47.7202 164.716 51.1971 175.467C54.6548 186.198 74.0946 185.884 86.792 180.735L88.444 176.666C88.444 176.666 70.6369 180.518 64.7781 178.199C55.1926 174.406 55.5384 160.864 56.0955 149.975C56.6525 139.087 60.9938 123.422 60.0142 116.582C59.0345 109.723 30.6239 95.3356 13.2586 101.429C6.51612 103.807 1.52169 115.383 0.29229 125.505C-0.187944 129.515 -0.0918968 133.289 0.695687 136.158H0.714896Z" fill="#802933"/>
<g style="mix-blend-mode:multiply" opacity="0.8">
<path fill-rule="evenodd" clip-rule="evenodd" d="M0.715176 136.157L1.98299 139.302C6.17063 147.085 16.6397 149.739 27.397 149.051C39.4796 148.304 40.5169 129.809 38.5192 127.352C36.5214 124.876 30.2207 126.153 30.0094 127.981C29.7981 129.809 35.0615 138.948 30.5281 143.253C26.0139 147.557 12.6826 145.297 9.41701 138.948C6.15142 132.6 2.80899 111.334 15.0838 107.678C27.3585 104.022 48.6809 112.513 51.4087 120.571C54.1364 128.63 47.7205 164.715 51.1973 175.466C54.655 186.198 74.0949 185.883 86.7923 180.734L88.4443 176.665C88.4443 176.665 70.6372 180.518 64.7784 178.198C55.1929 174.405 55.5387 160.863 56.0957 149.974C56.6528 139.086 60.9941 123.421 60.0144 116.581C60.0144 116.581 59.4574 130.359 56.9409 131.224C54.4245 132.069 53.733 119.038 49.6606 114.321C45.5882 109.584 26.206 101.565 13.912 106.951C6.49719 110.194 5.09491 121.77 4.88361 129.612C4.6723 137.454 0.676758 136.177 0.676758 136.177L0.715176 136.157Z" fill="#D8A4AF"/>
</g>
<path fill-rule="evenodd" clip-rule="evenodd" d="M179.112 90.1081C180.053 115.954 174.156 155.931 164.397 162.574C162.669 163.754 155.35 164.422 155.35 164.422V168.49C151.546 164.107 142.595 147.715 140.789 142.979C139.003 138.222 138.753 94.4517 137.562 92.388C136.678 90.8353 147.512 107.188 147.512 107.188C148.992 115.757 156.349 135.451 157.002 136.316L162.438 120.573C168.316 106.382 174.079 85.1748 174.079 85.1748C173.983 87.4351 179.342 88.9288 179.342 88.9288" fill="#9D3E3D"/>
<path fill-rule="evenodd" clip-rule="evenodd" d="M79.6269 161.553C79.6269 161.553 78.8201 159.744 79.0314 159.548C79.2427 159.351 80.8947 158.486 82.1625 159.273C82.1625 159.273 84.9863 158.428 87.0993 160.786C89.2123 163.145 88.1366 168.707 88.1366 168.707H83.3343L79.6077 161.572L79.6269 161.553Z" fill="#F5AD7F"/>
<path fill-rule="evenodd" clip-rule="evenodd" d="M86.9458 150.035C86.9458 150.035 85.3706 153.12 84.7367 155.125C84.1028 157.13 83.9684 166.033 83.9684 166.033H82.5085C82.5085 166.033 83.565 162.653 78.8779 161.297L77.418 162.535L81.9322 170.515C81.9322 170.515 85.1593 171.222 85.9277 171.163C86.6961 171.104 97.8567 169.728 98.2985 169.473C98.7404 169.217 97.4149 157.149 96.4544 154.417C95.494 151.685 91.7289 148.226 91.7289 148.226C91.7289 148.226 89.3662 146.831 86.9458 150.035Z" fill="#FBC49D"/>
<path fill-rule="evenodd" clip-rule="evenodd" d="M119.333 86.4131C111.4 92.447 101.756 113.222 101.756 113.222C93.3812 114.696 79.6657 125.132 78.8205 125.781H78.7821C81.5866 137.829 91.71 148.207 91.71 148.207C88.4636 147.146 86.9268 150.015 86.9268 150.015C86.9268 150.015 86.9268 150.015 86.8692 150.015C86.85 150.015 86.8116 150.015 86.754 149.995C86.7155 149.995 86.6387 149.976 86.5619 149.956C86.5234 149.956 86.5042 149.956 86.4466 149.936C86.3121 149.897 86.1585 149.858 85.9856 149.799C85.8703 149.779 85.7359 149.74 85.6014 149.681C85.4861 149.661 85.3709 149.622 85.2364 149.563C85.2172 149.563 85.198 149.543 85.1788 149.543C81.2409 148.325 71.5209 144.689 65.374 137.023C57.5173 127.236 55.9422 122.872 55.9422 122.872H51.9658C56.2687 118.981 72.3469 109.9 76.9764 108.072C81.6443 106.264 93.8038 100.977 99.5666 95.8865C102.736 93.0563 114.665 89.0075 116.682 87.8086C118.2 86.9241 119.179 86.472 119.314 86.4131H119.333Z" fill="#9D3E3D"/>
<g style="mix-blend-mode:multiply">
<path fill-rule="evenodd" clip-rule="evenodd" d="M78.7821 125.82C78.7821 125.82 72.5198 115.62 62.2236 120.71C62.2236 120.71 72.347 114.047 79.9539 124.7L78.7629 125.82H78.7821Z" fill="#B887AC"/>
</g>
<path fill-rule="evenodd" clip-rule="evenodd" d="M67.3711 112.377C67.544 112.79 70.4638 112.318 75.9385 116.8C80.9713 120.927 80.7024 124.524 81.1442 124.524C81.1442 124.524 81.4708 124.308 82.0086 123.934C84.4866 122.283 91.5749 117.645 94.4371 116.466C96.3196 115.699 103.638 112.397 107.154 112.004C110.17 111.67 109.651 105.518 109.766 102.413C109.862 99.6216 111.476 90.0105 108.863 90.8164C108.383 90.9736 99.8541 94.8455 97.0111 97.3024C94.9557 99.0713 87.7906 102.648 81.6436 105.046C75.9577 107.287 69.8299 110.766 68.0626 111.866C67.6208 112.142 67.3903 112.318 67.3903 112.338L67.3711 112.377Z" fill="#FDDF00"/>
<path fill-rule="evenodd" clip-rule="evenodd" d="M67.3711 112.378C67.544 112.791 70.4638 112.319 75.9385 116.8C80.9713 120.928 80.7024 124.525 81.1442 124.525C81.1442 124.525 81.4708 124.308 82.0086 123.935C81.125 118.727 76.6876 114.009 70.5022 112.358C69.6762 112.142 68.8502 111.985 68.0434 111.887C67.6016 112.162 67.3711 112.339 67.3711 112.358V112.378Z" fill="#666768"/>
<path fill-rule="evenodd" clip-rule="evenodd" d="M134.259 119.177C134.797 124.759 137.025 138.34 138.293 142.271C138.524 142.959 138.716 143.352 138.869 143.352C139.273 143.313 144.075 140.07 146.995 138.006C150.107 135.805 156.427 134.39 156.849 133.918C156.926 133.84 156.849 133.427 156.638 132.759C155.543 129.083 150.837 117.782 149.953 113.949C148.532 107.837 145.381 97.3608 139.292 92.6633C138.101 91.7396 135.431 96.3781 134.855 99.6211C134.355 102.491 133.568 112.082 134.259 119.177Z" fill="#FDDF00"/>
<path fill-rule="evenodd" clip-rule="evenodd" d="M138.389 142.606C138.619 143.293 138.811 143.687 138.965 143.687C139.368 143.647 144.171 140.404 147.091 138.341C150.202 136.139 156.522 134.724 156.945 134.252C157.022 134.174 156.945 133.761 156.734 133.093C150.318 134.193 141.04 139.736 138.389 142.606Z" fill="#666768"/>
<path opacity="0.08" fill-rule="evenodd" clip-rule="evenodd" d="M146.458 103.749C149.57 112.908 143.327 125.939 144.057 135.727C144.249 138.243 145.19 146.793 145.19 146.793L144.191 147.382C144.191 147.382 143.192 138.361 142.981 135.727C142.251 125.939 148.705 110.569 145.593 101.391L146.458 103.73V103.749Z" fill="#212013"/>
<path fill-rule="evenodd" clip-rule="evenodd" d="M179.534 265.683C179.534 265.683 183.568 266.587 184.644 271.893H181.417L179.534 265.683Z" fill="#D06851"/>
<path fill-rule="evenodd" clip-rule="evenodd" d="M94.8407 259.786C94.8407 259.786 92.8621 259.865 91.3254 260.69C89.7886 261.516 88.5977 266.39 88.5977 266.39H94.4757L94.8407 259.767V259.786Z" fill="#D06851"/>
<path fill-rule="evenodd" clip-rule="evenodd" d="M122.828 266.389H91.3057C91.3057 266.389 94.1679 258.999 96.0119 259.058C97.8368 259.117 103.945 261.142 108.632 260.355C113.32 259.569 115.663 257.761 115.663 257.761L119.006 256.149L120.677 258.351C121.368 259.314 121.849 260.316 122.175 261.26C123.136 264.031 122.809 266.389 122.809 266.389H122.828Z" fill="#FBC49D"/>
<path fill-rule="evenodd" clip-rule="evenodd" d="M157.962 221.499C157.962 221.499 158.846 249.919 153.909 263.54L153.871 263.579C153.602 263.874 151.739 265.879 149.068 267.117C148.338 267.471 147.532 267.765 146.686 267.942C146.686 267.942 148.454 265.78 148.454 263.697C148.454 261.614 127.823 189.737 120.389 184.725C120.389 184.725 114.319 183.172 111.937 184.902C109.574 186.632 118.775 255.324 122.752 259.117L120.696 258.331L120.216 258.154C120.216 258.154 117.719 258.429 115.683 257.722C115.625 257.722 115.587 257.722 115.548 257.683C115.298 257.604 115.049 257.486 114.818 257.368C114.818 257.368 114.818 257.368 114.799 257.329C113.973 256.287 101.564 240.347 95.0902 223.464C94.706 222.481 94.3602 221.499 94.0337 220.536L92.689 223.995C92.689 223.995 84.8324 185.157 89.8844 159.449L88.1748 160.236C88.1748 160.236 91.3251 150.605 97.8563 142.546C99.0281 141.112 100.315 139.716 101.679 138.439C101.679 138.439 103.331 130.518 102.947 123.914C102.601 117.88 100.354 105.006 100.834 99.562C100.872 99.051 100.949 98.5989 101.045 98.2255C102.178 93.9605 118.449 87.1207 119.044 86.4131C120.005 85.2928 120.062 79.3965 120.062 79.3965L132.491 75.6621C132.491 75.6621 131.396 82.1481 131.146 84.1332C131.031 85.057 133.47 87.9069 136.294 91.0712C139.502 94.6287 143.248 98.5596 144.401 100.486C146.59 104.122 141.366 127.295 141.692 135.608C141.942 141.465 142.576 155.243 143.555 165.562C143.978 169.847 144.42 173.542 144.938 175.841C145.092 176.49 145.323 177.315 145.592 178.278C145.764 178.868 145.976 179.477 146.187 180.146C146.187 180.146 146.264 180.401 146.36 180.676C146.418 180.873 146.514 181.109 146.61 181.403C146.686 181.659 146.783 181.914 146.879 182.17C147.071 182.74 147.282 183.33 147.493 183.958C147.609 184.293 147.743 184.646 147.858 185.02C152.161 197.068 159.345 215.681 159.71 223.209L157.943 221.518L157.962 221.499Z" fill="#9D3E3D"/>
<path fill-rule="evenodd" clip-rule="evenodd" d="M133.354 131.186C132.471 142.999 132.221 159.469 128.533 162.968C124.845 166.466 109.381 168.156 104.444 165.955C99.4884 163.754 94.5516 155.833 94.4364 152.452C94.3019 149.092 97.8364 142.586 97.8364 142.586C99.0082 141.112 100.295 139.716 101.659 138.458C101.659 138.458 103.311 130.538 102.927 123.934C102.581 117.9 100.334 105.026 100.814 99.5818C101.87 98.3239 102.62 101.606 108.824 102.648C115.048 103.69 120.811 101.469 123.942 99.9356C127.092 98.3829 134.373 102.392 134.872 104.476C135.371 106.559 134.238 119.413 133.354 131.206V131.186Z" fill="#F69469"/>
<path fill-rule="evenodd" clip-rule="evenodd" d="M181.417 271.913H149.069C148.646 270.812 149.069 267.137 149.069 267.137L153.871 263.599L153.909 263.56C153.909 263.56 156.119 266.292 161.901 266.409C166.722 266.527 175.155 265.034 177.767 264.542C178.286 264.444 178.882 264.542 179.208 264.975C181.629 267.962 181.321 271.382 181.398 271.854C181.398 271.893 181.398 271.913 181.398 271.913H181.417Z" fill="#FBC49D"/>
<path opacity="0.74" fill-rule="evenodd" clip-rule="evenodd" d="M101.66 138.459C101.66 138.459 105.982 129.948 111.245 130.047C116.489 130.145 127.65 136.828 129.302 147.028C130.954 157.229 126.901 162.084 122.444 164.285C118.007 166.486 109.92 167.646 104.138 165.228C98.3749 162.83 95.628 153.062 95.9353 148.836C96.2427 144.611 101.64 138.459 101.64 138.459H101.66Z" fill="#F9B576"/>
<path fill-rule="evenodd" clip-rule="evenodd" d="M106.731 147.932C106.731 147.932 106.346 144.414 108.824 143.313C108.824 143.313 108.767 147.539 106.731 147.932Z" fill="#9D3E3D"/>
<g style="mix-blend-mode:multiply">
<path fill-rule="evenodd" clip-rule="evenodd" d="M111.84 194.14L108.805 186.868L98.3555 176.942C98.3555 176.942 113.262 183.094 122.386 183.507L120.35 184.706C120.35 184.706 114.299 183.153 111.898 184.883C110.918 185.59 111.821 194.12 111.821 194.12L111.84 194.14Z" fill="#B887AC"/>
</g>
<path fill-rule="evenodd" clip-rule="evenodd" d="M159.038 219.061C157.616 218.294 154.005 216.781 148.665 217.233C141.365 218.314 136.544 220.22 135.161 220.81C134.949 220.908 134.699 220.771 134.623 220.535C133.701 216.899 127.592 206.089 123.577 204.163C121.81 203.318 117.526 204.399 117.085 206.344C115.452 213.558 115.394 218.668 116.335 223.503C116.393 223.837 116.047 224.112 115.759 223.935C114.299 223.07 108.479 222.933 103.062 223.542C96.4537 224.289 94.4751 225.488 93.1112 226.471C92.8807 226.628 92.5734 226.51 92.5157 226.235C91.7474 222.599 87.8287 203.573 87.1179 196.655C86.5032 190.68 87.1179 172.283 87.1179 172.283C87.1179 172.204 87.1756 172.126 87.2524 172.126C89.0773 171.949 107.614 170.082 114.703 170.2C122.29 170.318 141.98 172.401 144.727 172.676C144.919 172.696 145.092 172.833 145.149 173.01C145.149 173.01 152.872 187.732 154.658 192.901C156.598 198.522 159.038 214.835 159.614 218.687C159.652 219.002 159.326 219.257 159.038 219.1V219.061Z" fill="#666768"/>
<path fill-rule="evenodd" clip-rule="evenodd" d="M85.6786 173.895C85.6786 174.347 86.0628 174.7 86.4854 174.681C86.6967 174.681 86.9656 174.661 87.273 174.641C87.273 174.641 87.4459 174.681 87.5419 174.681C90.9996 174.523 105.541 173.855 114.051 173.836C115.069 173.836 115.991 173.836 116.74 173.875C123.675 174.13 144.939 176.646 147.475 176.961C147.552 176.961 147.648 176.921 147.686 176.862C147.706 176.823 147.725 176.784 147.725 176.725C147.437 173.639 143.672 144.845 142.98 135.745C142.25 125.957 148.704 110.587 145.593 101.409C144.229 97.3794 134.125 86.9429 131.877 84.6433C131.839 84.6237 131.819 84.5844 131.781 84.5647C131.551 84.3289 131.416 84.2109 131.416 84.2109C131.416 84.2109 128.938 86.2943 125.596 86.5105C125.442 86.5105 125.288 86.5105 125.115 86.5105C122.637 86.4712 120.736 85.7636 119.852 85.3705C119.506 85.2133 119.314 85.0954 119.314 85.0954C119.314 85.0954 119.141 85.174 118.834 85.3509C116.106 86.766 102.66 93.8023 100.623 96.6326C96.8969 101.782 103.313 123.54 100.969 133.603C99.3749 140.462 92.7477 146.024 88.1758 154.692C86.3317 158.191 85.6018 170.573 85.6594 173.875L85.6786 173.895Z" fill="#FDDF00"/>
<path fill-rule="evenodd" clip-rule="evenodd" d="M118.833 85.3509C120.389 86.9822 122.56 88.0043 124.98 88.0043C127.765 88.0043 130.224 86.6481 131.78 84.5647C131.55 84.3289 131.415 84.2109 131.415 84.2109C131.415 84.2109 128.707 86.4909 125.114 86.5302C121.638 86.4909 119.313 85.115 119.313 85.115C119.313 85.115 119.14 85.1937 118.833 85.3705V85.3509Z" fill="#666768"/>
<path fill-rule="evenodd" clip-rule="evenodd" d="M143.056 137.319C143.709 137.574 143.421 135.943 143.364 135.235C142.807 128.906 141.5 109.724 144.804 99.7785C144.804 99.7785 145.342 98.9726 143.037 96.1227C140.732 93.2728 140.252 93.0369 139.944 93.3711C139.637 93.7052 132.722 133.171 143.056 137.299V137.319Z" fill="#4B67B0"/>
<path fill-rule="evenodd" clip-rule="evenodd" d="M100.988 134.056C100.316 134.233 100.758 132.66 100.892 131.953C102.102 125.722 105.118 103.906 102.871 93.6658C102.871 93.6658 102.621 92.6831 105.906 91.3859C108.249 90.4621 108.557 90.4228 108.691 90.8945C108.825 91.3269 111.668 131.088 100.969 134.076L100.988 134.056Z" fill="#4B67B0"/>
<path fill-rule="evenodd" clip-rule="evenodd" d="M173.579 52.4494C173.349 54.2969 172.868 56.2624 171.946 57.992C169.66 62.3553 166.126 65.2445 162.457 65.5393C158.788 65.8341 157.655 61.6084 157.655 61.6084C157.655 61.6084 155.983 52.4101 156.54 50.3071C156.79 49.3243 157.616 47.4572 158.769 45.6293L159.134 45.1183C160.421 43.2511 162.092 41.5215 163.936 40.9712C167.74 39.8705 172.676 44.4304 173.291 46.0813C173.349 46.2189 173.406 46.3958 173.445 46.5924C173.733 47.8109 173.906 50.0319 173.598 52.4494H173.579Z" fill="#FBC49F"/>
<g style="mix-blend-mode:multiply" opacity="0.8">
<path fill-rule="evenodd" clip-rule="evenodd" d="M158.615 52.528C158.615 52.528 166.683 43.9979 169.584 45.2361C172.465 46.4744 172.561 51.6238 172.062 54.7096C171.562 57.7954 167.336 62.4928 167.336 62.4928C167.336 62.4928 169.853 58.9943 170.544 55.4368C171.236 51.899 169.257 48.0664 168.028 48.145C166.798 48.2236 164.82 50.0908 164.589 50.5822C164.359 51.0735 166.241 51.9383 166.51 53.8055C166.779 55.6727 165.127 58.9353 164.128 59.0533C163.11 59.1712 161.554 58.0902 161.535 56.7733C161.516 55.4565 162.476 52.7049 161.823 52.2725C161.189 51.8401 158.615 52.5476 158.615 52.5476V52.528Z" fill="#D9A5B0"/>
</g>
<g style="mix-blend-mode:multiply" opacity="0.58">
<path fill-rule="evenodd" clip-rule="evenodd" d="M158.615 52.5284C158.615 52.5284 160.786 51.5063 161.823 52.2532C162.86 52.9804 161.036 55.7124 161.823 57.1472C162.611 58.5623 163.898 59.1323 165.089 57.4813C166.28 55.8303 165.78 53.2949 164.762 51.9977C163.744 50.7202 161.535 49.7178 161.535 49.7178C161.535 49.7178 159.019 51.978 158.615 52.548V52.5284Z" fill="#D9A5B0"/>
</g>
<g style="mix-blend-mode:multiply" opacity="0.58">
<path fill-rule="evenodd" clip-rule="evenodd" d="M173.579 52.4488C173.349 54.2964 172.868 56.2618 171.946 57.9914C169.66 62.3547 166.126 65.2439 162.457 65.5388C158.788 65.8336 157.655 61.6078 157.655 61.6078C157.655 61.6078 155.983 52.4095 156.54 50.3065C156.79 49.3238 157.616 47.4566 158.769 45.6287L159.134 45.1177C159.134 45.1177 158.481 48.8324 161.516 49.7169C161.516 49.7169 166.664 44.6853 169.392 44.5674C169.392 44.5674 172.599 45.216 173.291 46.0611C173.349 46.1397 173.406 46.3166 173.445 46.5721C173.598 47.5942 173.618 49.8741 173.598 52.4292L173.579 52.4488Z" fill="#D9A5B0"/>
</g>
<path fill-rule="evenodd" clip-rule="evenodd" d="M79.7812 52.4494C80.0118 54.2969 80.492 56.2624 81.414 57.992C83.6999 62.3553 87.2345 65.2445 90.9035 65.5393C94.5724 65.8341 95.7058 61.6084 95.7058 61.6084C95.7058 61.6084 97.377 52.4101 96.8199 50.3071C96.5702 49.3243 95.7442 47.4572 94.5917 45.6293L94.2267 45.1183C92.9396 43.2511 91.2684 41.5215 89.4243 40.9712C85.6209 39.8705 80.6841 44.4304 80.0694 46.0813C80.0118 46.2189 79.9541 46.3958 79.9157 46.5924C79.6276 47.8109 79.4547 50.0319 79.762 52.4494H79.7812Z" fill="#FBC49F"/>
<g style="mix-blend-mode:multiply" opacity="0.8">
<path fill-rule="evenodd" clip-rule="evenodd" d="M94.7453 52.528C94.7453 52.528 86.6774 43.9979 83.7768 45.2361C80.8954 46.4744 80.7994 51.6238 81.2988 54.7096C81.7982 57.7954 86.0243 62.4928 86.0243 62.4928C86.0243 62.4928 83.5079 58.9943 82.8163 55.4368C82.1248 51.899 84.1034 48.0664 85.3328 48.145C86.5622 48.2236 88.5407 50.0908 88.7712 50.5822C89.0018 51.0735 87.1192 51.9383 86.8503 53.8055C86.5814 55.6727 88.2334 58.9353 89.2323 59.0533C90.2504 59.1712 91.8063 58.0902 91.8255 56.7733C91.8447 55.4565 90.8843 52.7049 91.5374 52.2725C92.1713 51.8401 94.7453 52.5476 94.7453 52.5476V52.528Z" fill="#D9A5B0"/>
</g>
<g style="mix-blend-mode:multiply" opacity="0.58">
<path fill-rule="evenodd" clip-rule="evenodd" d="M94.7449 52.5284C94.7449 52.5284 92.5742 51.5063 91.5369 52.2532C90.4996 52.9804 92.3245 55.7124 91.5369 57.1472C90.7493 58.5623 89.4623 59.1323 88.2713 57.4813C87.0803 55.8303 87.5798 53.2949 88.5979 51.9977C89.616 50.7202 91.825 49.7178 91.825 49.7178C91.825 49.7178 94.3415 51.978 94.7449 52.548V52.5284Z" fill="#D9A5B0"/>
</g>
<g style="mix-blend-mode:multiply" opacity="0.58">
<path fill-rule="evenodd" clip-rule="evenodd" d="M79.7812 52.4488C80.0117 54.2964 80.492 56.2618 81.414 57.9914C83.6999 62.3547 87.2344 65.2439 90.9034 65.5388C94.5724 65.8336 95.7058 61.6078 95.7058 61.6078C95.7058 61.6078 97.377 52.4095 96.8199 50.3065C96.5702 49.3238 95.7442 47.4566 94.5916 45.6287L94.2266 45.1177C94.2266 45.1177 94.8798 48.8324 91.8447 49.7169C91.8447 49.7169 86.6966 44.6853 83.9689 44.5674C83.9689 44.5674 80.7609 45.216 80.0694 46.0611C80.0117 46.1397 79.9541 46.3166 79.9157 46.5721C79.762 47.5942 79.7428 49.8741 79.762 52.4292L79.7812 52.4488Z" fill="#D9A5B0"/>
</g>
<path fill-rule="evenodd" clip-rule="evenodd" d="M161.516 23.8525C161.516 24.2456 161.439 24.8549 161.323 25.6411C160.709 29.8078 158.769 38.731 158.384 44.4111C157.923 51.1723 158.058 65.5398 156.214 68.9203C156.175 68.9793 156.156 69.0382 156.118 69.0776C153.755 72.5564 133.7 80.9292 125.997 80.9292C119.293 80.9292 103.83 74.5612 98.432 70.6303C97.5292 69.9817 96.9145 69.392 96.6455 68.9203C95.1856 66.2473 94.9743 56.7345 94.7054 49.5213C94.6285 47.5952 94.5517 45.8263 94.4557 44.4111C94.1099 39.3796 92.5539 31.8323 91.7856 27.2724V27.1348C91.4974 25.6214 91.3438 24.4618 91.3438 23.8525C91.3438 22.7912 94.0138 18.4868 98.8546 13.9466C98.8738 13.9466 98.893 13.9073 98.9314 13.868C99.5654 13.2784 100.218 12.7084 100.91 12.1384C100.929 12.1188 100.968 12.0991 100.987 12.0598C106.807 7.2248 115.067 2.60598 125.191 1.91807C125.191 1.91807 127.726 -1.6394 131.453 0.935343L127.707 2.56667C141.999 3.51009 152.526 12.0008 157.75 18.0348C160.152 20.8257 161.458 23.086 161.458 23.8329L161.516 23.8525Z" fill="#9D3D3B"/>
<path fill-rule="evenodd" clip-rule="evenodd" d="M156.233 68.9206C156.233 68.9206 156.176 69.0385 156.137 69.0778C153.774 72.5567 133.72 80.9295 126.017 80.9295C118.314 80.9295 98.5091 72.3012 96.6842 68.9206C95.8967 66.2476 97.6255 50.8778 97.6255 48.9123C97.6255 46.9469 95.4164 32.9725 95.6085 30.4371C95.8006 27.9016 102.985 19.2143 107.614 18.8409C112.34 18.4675 124.768 21.1405 127.054 21.1405C129.34 21.1405 138.734 17.583 143.555 18.8999C147.57 19.9809 154.255 24.7766 155.753 29.1202C156.733 31.9898 155.292 50.1112 155.753 53.0791C156.214 56.0469 157.078 66.7389 156.214 68.9403L156.233 68.9206Z" fill="#FBC49F"/>
<g style="mix-blend-mode:multiply" opacity="0.58">
<path fill-rule="evenodd" clip-rule="evenodd" d="M152.258 24.1869C151.912 23.8921 146.38 19.2733 142.154 18.5854C137.793 17.8778 130.148 21.0618 127.074 21.1208C124.001 21.1798 112.456 18.3888 107.635 18.8212C102.813 19.234 97.9338 26.1917 97.9338 26.1917C98.0683 29.2578 102.141 30.4567 102.141 30.4567C106.424 29.9064 116.99 25.6413 116.99 25.6413C116.99 25.6413 119.295 56.1845 118.718 58.2678C118.123 60.3512 112.437 63.4566 106.021 61.3929C99.6243 59.3292 94.7835 49.5216 94.7835 49.5216C94.7067 47.5954 94.6298 45.8265 94.5338 44.4114C94.188 39.3799 92.6321 31.8325 91.8637 27.2727V27.1351L91.4219 23.8528C91.4219 23.8528 101.468 15.8141 106.002 15.1262C110.516 14.4383 123.098 18.9391 127.132 19.0374C131.166 19.1357 136.986 16.8558 142.115 17.5044C147.091 18.1333 151.989 23.8331 152.296 24.1869H152.258Z" fill="#D9A5B0"/>
</g>
<g style="mix-blend-mode:multiply" opacity="0.58">
<path fill-rule="evenodd" clip-rule="evenodd" d="M161.344 25.6418C160.729 29.7889 158.789 38.7318 158.405 44.3923C157.944 51.1534 158.078 65.5209 156.234 68.9014C156.195 68.9604 156.176 69.0194 156.138 69.0587C153.775 72.5375 133.721 80.9104 126.018 80.9104C119.313 80.9104 103.85 74.5423 98.4521 70.6114C99.6047 71.1814 118.142 80.2028 126.363 80.2028C134.585 80.2028 150.644 71.9676 153.525 68.2135C156.407 64.4595 155.927 54.3374 154.812 54.0623C153.698 53.8068 152.238 59.8604 146.821 61.5507C142.614 62.8675 136.544 62.3958 134.162 58.4452C131.8 54.5143 134.162 25.6025 134.162 25.6025L148.569 30.241C148.569 30.241 154.62 28.7866 155.581 28.6097C156.541 28.4328 161.324 25.6025 161.324 25.6025L161.344 25.6418Z" fill="#D9A5B0"/>
</g>
<path fill-rule="evenodd" clip-rule="evenodd" d="M134.181 25.6406C134.181 25.6406 134.104 29.0212 135.199 30.397C135.199 30.397 149.01 31.2029 153.544 36.7061C153.544 36.7061 151.239 31.1242 148.588 30.2791C146.379 29.5715 137.523 27.3309 134.181 25.6406Z" fill="#77282E"/>
<path fill-rule="evenodd" clip-rule="evenodd" d="M116.951 25.6406C116.951 25.6406 117.028 29.0212 115.933 30.397C115.933 30.397 102.121 31.2029 97.5879 36.7061C97.5879 36.7061 99.893 31.1242 102.544 30.2791C104.753 29.5715 113.589 27.3309 116.951 25.6406Z" fill="#77282E"/>
<path fill-rule="evenodd" clip-rule="evenodd" d="M115.607 41.9341C115.607 41.9341 115.53 39.1039 114.608 38.2981C114.608 38.2981 106.271 37.0402 101.661 43.3689C97.3968 49.2063 100.432 54.6703 100.432 54.6703L115.607 42.1897V41.9538V41.9341Z" fill="#77282E"/>
<path fill-rule="evenodd" clip-rule="evenodd" d="M99.7987 53.1765C100.26 54.5916 101.489 57.3236 105.273 58.9746C105.485 59.0729 105.734 59.1711 105.984 59.2498C108.981 60.2718 115.109 61.0187 117.126 57.9722C117.414 57.5202 117.644 56.9502 117.817 56.2426C118.739 52.3903 117.855 45.354 115.608 41.9341C115.205 41.3052 114.744 40.8138 114.244 40.46C111.958 38.8877 106.964 39.1235 103.007 43.0741C100.874 45.1968 99.9716 47.5553 99.6642 49.5011C99.4145 51.1521 99.5682 52.5083 99.7987 53.1569V53.1765Z" fill="#DDD2E7"/>
<path fill-rule="evenodd" clip-rule="evenodd" d="M115.608 59.308C115.608 59.308 113.495 61.2145 108.539 60.841C103.583 60.4676 100.951 55.5146 100.951 55.5146C100.951 55.5146 105.35 62.4527 115.589 59.2883L115.608 59.308Z" fill="#C04951"/>
<path fill-rule="evenodd" clip-rule="evenodd" d="M115.531 46.9845C115.704 48.262 116.184 49.2447 116.607 49.1858C117.029 49.1268 117.222 48.0458 117.049 46.7683C116.876 45.4907 116.396 44.508 115.973 44.567C115.55 44.6259 115.358 45.7069 115.531 46.9845Z" fill="white"/>
<g style="mix-blend-mode:multiply" opacity="0.8">
<path fill-rule="evenodd" clip-rule="evenodd" d="M99.6628 49.5216C100.201 48.1458 102.467 43.1142 107.481 41.5812C113.052 39.8713 115.376 41.7581 115.587 41.935C115.184 41.3257 114.723 40.8147 114.223 40.4805C111.938 38.9082 106.943 39.144 102.986 43.0946C100.854 45.2173 99.9509 47.5758 99.6436 49.5216H99.6628Z" fill="#D49DA6"/>
</g>
<path d="M109.134 56.7143C112.009 56.7143 114.34 54.3296 114.34 51.3879C114.34 48.4462 112.009 46.0615 109.134 46.0615C106.259 46.0615 103.929 48.4462 103.929 51.3879C103.929 54.3296 106.259 56.7143 109.134 56.7143Z" fill="#78282F"/>
<path d="M104.428 55.1813C105.001 55.1813 105.465 54.7061 105.465 54.1199C105.465 53.5338 105.001 53.0586 104.428 53.0586C103.855 53.0586 103.391 53.5338 103.391 54.1199C103.391 54.7061 103.855 55.1813 104.428 55.1813Z" fill="white"/>
<path fill-rule="evenodd" clip-rule="evenodd" d="M129.34 65.0086C129.34 65.0086 130.588 60.0163 132.951 62.08C132.951 62.08 131.242 62.0997 129.34 65.0086Z" fill="#C04951"/>
<path fill-rule="evenodd" clip-rule="evenodd" d="M123.348 65.0092C123.348 65.0092 122.099 60.1545 119.736 62.1986C119.736 62.1986 121.446 62.1003 123.348 65.0092Z" fill="#C04951"/>
<g style="mix-blend-mode:multiply" opacity="0.58">
<path fill-rule="evenodd" clip-rule="evenodd" d="M120.198 59.3291C120.198 59.3291 119.161 60.6263 119.314 62.69C119.314 62.69 122.561 64.1052 123.368 65.3237C124.174 66.5423 128.573 67.132 129.361 65.5399C130.129 63.9676 132.242 61.9825 133.51 61.9825C133.51 61.9825 133.26 60.8425 132.722 59.3291H120.217H120.198Z" fill="#D9A5B0"/>
</g>
<path fill-rule="evenodd" clip-rule="evenodd" d="M120.197 59.3284C120.197 59.3284 127.189 56.9306 132.703 59.3284C132.703 59.3284 130.59 61.9818 126.46 61.9818C122.33 61.9818 120.216 59.3284 120.216 59.3284H120.197Z" fill="#FBC49F"/>
<path fill-rule="evenodd" clip-rule="evenodd" d="M115.606 72.9485C115.606 72.9485 118.295 70.02 126.383 70.0003C134.623 70.0003 140.905 77.1152 140.905 77.1152C140.905 77.1152 134.066 70.8258 126.44 70.8651C117.758 70.9241 115.587 72.9288 115.587 72.9288L115.606 72.9485Z" fill="#C04951"/>
<g style="mix-blend-mode:multiply">
<path fill-rule="evenodd" clip-rule="evenodd" d="M127.074 21.1201C127.074 21.1201 117.2 16.2457 110.17 15.3416C103.139 14.4572 97.9141 26.1713 97.9141 26.1713C97.9141 26.1713 102.351 19.7835 107.615 18.8008C112.897 17.8181 123.578 21.1987 127.055 21.1004L127.074 21.1201Z" fill="#C59BBC"/>
</g>
<g style="mix-blend-mode:multiply">
<path fill-rule="evenodd" clip-rule="evenodd" d="M153.026 76.7819C152.008 73.48 152.123 69.7456 152.123 69.7456L155.331 67.7998C155.331 67.7998 155.638 69.6277 156.253 71.6717C156.08 71.8093 153.333 73.9124 153.026 76.7819Z" fill="#61364F"/>
</g>
<path fill-rule="evenodd" clip-rule="evenodd" d="M193.961 83.307C186.835 79.2778 172.197 71.0229 165.205 67.0723L170.123 59.8984C173.6 61.3922 196.459 71.2981 200.473 73.0473C201.568 78.2558 199.59 82.8353 193.961 83.307Z" fill="#802933"/>
<path fill-rule="evenodd" clip-rule="evenodd" d="M170.43 52.0176C172.332 88.8108 120.217 91.6018 117.547 54.8675C116.087 18.0546 168.509 15.2636 170.43 52.0176Z" fill="url(#paint0_radial_1265_2504)"/>
<path fill-rule="evenodd" clip-rule="evenodd" d="M170.391 51.211C171.793 87.0412 120.139 89.8322 117.546 54.0806C116.143 18.2504 167.797 15.4595 170.391 51.211Z" fill="url(#paint1_radial_1265_2504)"/>
<path fill-rule="evenodd" clip-rule="evenodd" d="M161.363 36.9427C149.607 21.6515 119.045 29.2971 121.254 53.3935C121.984 66.2672 132.742 76.0748 145.324 75.3476C163.841 74.6794 173.581 50.9171 161.383 36.9624L161.363 36.9427ZM160.076 66.3852C148.762 81.5585 122.714 73.2249 122.292 53.7866C120.428 33.3852 147.686 22.5949 159.827 38.3971C166.454 45.7872 166.531 58.9558 160.076 66.4048V66.3852Z" fill="url(#paint2_radial_1265_2504)"/>
<g style="mix-blend-mode:soft-light">
<path fill-rule="evenodd" clip-rule="evenodd" d="M156.541 67.4665C157.367 68.744 153.506 71.1222 152.776 69.7857C151.95 68.5082 155.811 66.13 156.541 67.4665Z" fill="white"/>
</g>
<path fill-rule="evenodd" clip-rule="evenodd" d="M173.867 87.2585C173.867 87.2585 176.537 89.0471 179.419 89.8136C179.419 89.8136 180.571 86.7868 181.954 86.0203C181.954 86.0203 185.834 84.7821 188.005 79.947L174.136 69.5498C171.485 71.7708 173.291 78.6302 173.521 79.8488C173.521 79.8488 173.483 82.9935 173.867 87.2389V87.2585Z" fill="#FBC49D"/>
<path fill-rule="evenodd" clip-rule="evenodd" d="M174.195 69.4317C177.076 66.8177 175.943 64.4591 176.557 61.8058C176.634 61.4716 176.961 61.2161 177.306 61.2751C178.325 61.4716 179.996 62.8475 180.111 64.2036C180.265 65.9332 178.632 68.1149 178.228 69.019C177.46 70.7682 180.86 72.1637 181.11 74.7974C181.11 74.9546 178.805 78.8266 174.579 77.7849C174.348 77.7259 174.156 77.5294 174.098 77.2739C173.733 75.957 171.486 72.144 174.195 69.4121V69.4317Z" fill="#FBC49D"/>
<g style="mix-blend-mode:multiply">
<path fill-rule="evenodd" clip-rule="evenodd" d="M186.527 63.791C186.527 63.791 184.298 66.2282 182.819 69.7267C183.645 69.1174 185.97 65.5796 186.584 64.6755L186.104 64.7148L186.527 63.791Z" fill="#D9A5AF"/>
<path fill-rule="evenodd" clip-rule="evenodd" d="M190.215 66.3457C190.215 66.3457 188.909 68.5667 187.295 71.8097C187.295 71.8097 189.677 67.466 190.599 66.6995L190.196 66.8174V66.3457H190.215Z" fill="#D9A5AF"/>
<path fill-rule="evenodd" clip-rule="evenodd" d="M194 68.1145L191.944 72.2813C191.944 72.2813 193.443 68.8024 193.5 67.918L194 68.1342V68.1145Z" fill="#D9A5AF"/>
</g>
<path fill-rule="evenodd" clip-rule="evenodd" d="M183.223 61.7271C183.223 61.7271 180.207 65.1274 180.264 68.4293C180.264 68.4293 180.879 69.3334 182.819 69.7069L183.857 68.6259C183.434 70.4734 180.687 72.0261 185.778 73.2054L187.295 71.7902L187.026 72.9498C187.026 72.9498 187.564 73.8933 189.984 74.2274C189.984 74.2274 191.137 73.1661 191.944 72.2619C191.944 72.2619 192.751 73.0285 193.673 73.3233C193.673 73.3233 195.786 72.0064 196.938 69.7462C196.938 69.7462 196.4 68.6062 194.46 67.82L193.999 68.1148L190.599 66.6997L190.157 66.9159L190.215 66.3459L186.604 64.695L186.027 64.8718L186.546 63.8105C186.546 63.8105 186.219 61.4127 183.242 61.7468L183.223 61.7271Z" fill="#FBC49D"/>
<g style="mix-blend-mode:multiply" opacity="0.58">
<path fill-rule="evenodd" clip-rule="evenodd" d="M183.223 61.7271C183.223 61.7271 180.207 65.1274 180.264 68.4293C180.264 68.4293 180.879 69.3334 182.819 69.7069L183.857 68.6259C183.434 70.4734 180.687 72.0261 185.778 73.2054L187.295 71.7902L187.026 72.9498C187.026 72.9498 187.564 73.8933 189.984 74.2274C189.984 74.2274 191.137 73.1661 191.944 72.2619C191.944 72.2619 192.751 73.0285 193.673 73.3233C193.673 73.3233 195.786 72.0064 196.938 69.7462C196.938 69.7462 196.4 68.6062 194.46 67.82L193.999 68.1148L190.599 66.6997L190.157 66.9159L190.215 66.3459L186.604 64.695L186.027 64.8718L186.546 63.8105C186.546 63.8105 186.219 61.4127 183.242 61.7468L183.223 61.7271Z" fill="#D9A5AF"/>
</g>
<g style="mix-blend-mode:multiply" opacity="0.58">
<path fill-rule="evenodd" clip-rule="evenodd" d="M181.11 74.7773L181.302 75.3473C181.302 75.3473 182.724 79.1603 188.007 79.9661L181.11 74.797V74.7773Z" fill="#D9A5AF"/>
</g>
<path opacity="0.2" d="M131.857 276.393C170.622 276.393 202.048 273.366 202.048 269.632C202.048 265.898 170.622 262.871 131.857 262.871C93.0916 262.871 61.666 265.898 61.666 269.632C61.666 273.366 93.0916 276.393 131.857 276.393Z" fill="#A9AAAD"/>
<mask id="mask0_1265_2504" style="mask-type:luminance" maskUnits="userSpaceOnUse" x="122" y="30" width="44" height="45">
<path d="M165.531 51.5068C166.683 80.7724 124.173 83.2685 122.041 54.0619C120.888 24.7963 163.398 22.3002 165.531 51.5068Z" fill="white"/>
</mask>
<g mask="url(#mask0_1265_2504)">
<path fill-rule="evenodd" clip-rule="evenodd" d="M188.122 56.203C187.796 58.9743 187.046 61.9028 185.702 64.4775C182.283 70.9832 177.019 75.2875 171.564 75.7199C166.108 76.1523 164.418 69.8628 164.418 69.8628C164.418 69.8628 161.921 56.144 162.747 53.0189C163.131 51.5448 164.341 48.7539 166.07 46.0416L166.608 45.2751C168.509 42.4841 171.007 39.9094 173.754 39.0839C179.401 37.4329 186.778 44.253 187.68 46.6902C187.757 46.9064 187.834 47.1619 187.892 47.4567C188.333 49.2649 188.564 52.5865 188.122 56.203Z" fill="#FBC49F"/>
<g style="mix-blend-mode:multiply" opacity="0.58">
<path fill-rule="evenodd" clip-rule="evenodd" d="M188.122 56.2025C187.796 58.9738 187.046 61.9023 185.702 64.4771C182.283 70.9827 177.019 75.287 171.564 75.7194C166.108 76.1518 164.418 69.8624 164.418 69.8624C164.418 69.8624 161.921 56.1435 162.747 53.0185C163.131 51.5444 164.341 48.7534 166.07 46.0411L166.608 45.2746C166.608 45.2746 165.628 50.8172 170.161 52.134C170.161 52.134 177.807 44.626 181.879 44.4688C181.879 44.4688 186.643 45.4318 187.68 46.7094C187.776 46.8076 187.834 47.0828 187.892 47.4759C188.103 49.0089 188.161 52.3895 188.122 56.2222V56.2025Z" fill="#D9A5B0"/>
</g>
<path fill-rule="evenodd" clip-rule="evenodd" d="M170.161 13.5532C170.161 14.1232 170.065 15.047 169.892 16.2066C168.989 22.4174 166.108 35.7235 165.532 44.1946C164.859 54.2774 165.032 75.7205 162.304 80.752C162.266 80.8306 162.208 80.9093 162.151 80.9879C158.616 86.1963 128.784 98.6769 117.297 98.6769C107.308 98.6769 84.2952 89.2035 76.2657 83.3071C74.921 82.3244 73.999 81.4596 73.6148 80.752C71.4441 76.7818 71.1176 62.5716 70.7334 51.8206C70.6373 48.9313 70.5221 46.3173 70.3684 44.1946C69.869 36.7062 67.5446 25.4442 66.3921 18.6437L66.3536 18.4472C65.9695 16.1869 65.7197 14.4573 65.7197 13.5532C65.7197 11.9808 69.6769 5.55383 76.8996 -1.20733C76.9188 -1.20733 76.9572 -1.2663 77.0148 -1.30561C77.9561 -2.17041 78.9358 -3.0352 79.9539 -3.88034C79.9731 -3.91965 80.0307 -3.93931 80.0691 -3.97862C88.7517 -11.1918 101.046 -18.0906 116.125 -19.0929C116.125 -19.0929 119.89 -24.4193 125.461 -20.567L119.89 -18.1299C141.174 -16.7147 156.83 -4.05724 164.629 4.94453C168.221 9.11129 170.142 12.4722 170.142 13.5925L170.161 13.5532Z" fill="#9D3D3B"/>
<path fill-rule="evenodd" clip-rule="evenodd" d="M162.285 80.7521C162.285 80.7521 162.189 80.9093 162.131 80.9879C158.597 86.1964 128.765 98.677 117.277 98.677C105.79 98.677 76.3039 85.8033 73.5954 80.7521C72.4044 76.7622 75.0169 53.845 75.0169 50.8968C75.0169 47.9487 71.7321 27.1149 72.001 23.3412C72.2699 19.5675 82.9696 6.59556 89.8849 6.04523C96.9347 5.4949 115.433 9.48477 118.853 9.48477C122.272 9.48477 136.237 4.1584 143.421 6.12385C149.395 7.75518 159.346 14.8898 161.593 21.3758C163.073 25.6408 160.902 52.6658 161.593 57.1077C162.266 61.5299 163.572 77.4894 162.285 80.7521Z" fill="#FBC49F"/>
<g style="mix-blend-mode:multiply" opacity="0.58">
<path fill-rule="evenodd" clip-rule="evenodd" d="M169.872 16.2267C168.97 22.4178 166.088 35.7436 165.512 44.1951C164.84 54.2778 165.013 75.7209 162.285 80.7525C162.246 80.8311 162.189 80.9097 162.131 80.9883C158.597 86.1968 128.764 98.6774 117.277 98.6774C107.288 98.6774 84.2756 89.2039 76.2461 83.3076C77.9557 84.1527 105.56 97.616 117.815 97.616C130.071 97.616 153.967 85.332 158.251 79.7304C162.534 74.1289 161.824 59.0342 160.172 58.6411C158.501 58.248 156.33 67.2891 148.262 69.8049C142 71.7507 132.952 71.0628 129.418 65.1861C125.902 59.329 129.418 16.207 129.418 16.207L150.874 23.1254C150.874 23.1254 159.903 20.9634 161.324 20.7079C162.765 20.4524 169.872 16.2267 169.872 16.2267Z" fill="#D9A5B0"/>
</g>
<path fill-rule="evenodd" clip-rule="evenodd" d="M133.971 40.5186C133.971 40.5186 134.086 36.2929 135.45 35.094C135.45 35.094 147.859 33.2268 154.736 42.6413C161.094 51.3482 156.561 59.4852 156.561 59.4852L133.971 40.8724V40.5186Z" fill="#77282E"/>
<path fill-rule="evenodd" clip-rule="evenodd" d="M157.502 57.2649C156.81 59.368 154.985 63.4561 149.338 65.9129C149.011 66.0505 148.665 66.1881 148.262 66.3257C143.786 67.8587 134.681 68.979 131.665 64.4192C131.223 63.7509 130.877 62.8861 130.647 61.8444C129.264 56.1053 130.589 45.5901 133.951 40.4996C134.566 39.5759 135.238 38.8093 135.968 38.318C139.368 35.9791 146.821 36.3329 152.68 42.2096C155.85 45.3936 157.194 48.8921 157.655 51.801C158.039 54.2774 157.79 56.2822 157.463 57.2453L157.502 57.2649Z" fill="#DDD2E7"/>
<path fill-rule="evenodd" clip-rule="evenodd" d="M133.971 66.4231C133.971 66.4231 137.102 69.273 144.478 68.7227C151.855 68.1723 155.773 60.7822 155.773 60.7822C155.773 60.7822 149.223 71.1205 133.971 66.4231Z" fill="#C04951"/>
<path fill-rule="evenodd" clip-rule="evenodd" d="M133.913 48.0663C133.586 49.9532 132.895 51.4076 132.357 51.3093C131.819 51.2111 131.665 49.5994 131.992 47.7125C132.318 45.8257 133.01 44.3713 133.548 44.4695C134.086 44.5678 134.239 46.1795 133.913 48.0663Z" fill="white"/>
<g style="mix-blend-mode:multiply" opacity="0.8">
<path fill-rule="evenodd" clip-rule="evenodd" d="M157.695 51.8195C156.907 49.7755 153.526 42.2871 146.054 39.9875C137.774 37.4521 134.298 40.2627 133.99 40.4985C134.605 39.5748 135.277 38.8279 136.007 38.3365C139.407 35.9976 146.86 36.3514 152.719 42.2281C155.889 45.4122 157.234 48.9107 157.695 51.8195Z" fill="#D49DA6"/>
</g>
<path d="M143.709 61.884C147.995 61.884 151.469 58.3202 151.469 53.9239C151.469 49.5277 147.995 45.9639 143.709 45.9639C139.423 45.9639 135.948 49.5277 135.948 53.9239C135.948 58.3202 139.423 61.884 143.709 61.884Z" fill="#78282F"/>
<path d="M150.735 59.5835C151.594 59.5824 152.29 58.8687 152.289 57.9895C152.288 57.1102 151.59 56.3983 150.731 56.3994C149.871 56.4005 149.176 57.1141 149.177 57.9934C149.178 58.8726 149.875 59.5845 150.735 59.5835Z" fill="white"/>
</g>
<defs>
<radialGradient id="paint0_radial_1265_2504" cx="0" cy="0" r="1" gradientUnits="userSpaceOnUse" gradientTransform="translate(158.111 43.0757) rotate(-3.35584) scale(45.5527 47.1837)">
<stop stop-color="#786A76"/>
<stop offset="0.98" stop-color="#802933"/>
</radialGradient>
<radialGradient id="paint1_radial_1265_2504" cx="0" cy="0" r="1" gradientUnits="userSpaceOnUse" gradientTransform="translate(157.136 36.5006) rotate(-3.35584) scale(45.044 46.0808)">
<stop stop-color="#FBC49D"/>
<stop offset="0.98" stop-color="#D9A5B0" stop-opacity="0.58"/>
</radialGradient>
<radialGradient id="paint2_radial_1265_2504" cx="0" cy="0" r="1" gradientUnits="userSpaceOnUse" gradientTransform="translate(143.785 52.1021) rotate(14.0868) scale(22.8318 23.2989)">
<stop stop-color="#786A76"/>
<stop offset="0.98" stop-color="#9D3E3D"/>
</radialGradient>
</defs>
</svg>
