<svg width="579" height="267" viewBox="0 0 579 267" fill="none" xmlns="http://www.w3.org/2000/svg">
<g clip-path="url(#clip0_1264_2269)">
<path d="M438.407 128.804L436.146 84.4941L398.508 188.415L441.309 186.236V186.06L417.218 187.289L438.407 128.804Z" fill="#65318E"/>
<path d="M484.926 222.793L486.253 248.817L504.992 248.539L503.636 221.827L484.926 222.793Z" fill="#65318E"/>
<path d="M474.966 26.5215L475.884 44.7194L482.957 184.1L503.023 183.076L504.977 221.593L523.687 220.628L521.719 181.95L501.667 182.974L492.378 0L446.106 2.36982L446.033 2.54536L473.682 1.1264L474.966 26.5215Z" fill="#65318E"/>
<path d="M503.636 221.827L504.977 221.754V221.578L503.009 183.076L482.957 184.1L475.885 44.719L477.212 70.8748L469.964 36.4978L474.966 26.5065L473.683 1.12598L446.048 2.53032L427.411 3.48117L403.437 69.5144L407.972 77.5747L398.42 83.3383L359.571 190.39L361.54 229.068L443.292 224.899L444.531 249.387L486.253 248.802L484.926 222.778L503.636 221.827ZM441.308 186.221L398.508 188.4L436.146 84.4794L438.392 128.789L441.294 186.045V186.221H441.308Z" fill="#65318E"/>
<path d="M469.964 36.4981L477.212 70.8752L475.885 44.7194L474.966 26.5215L469.964 36.4981Z" fill="#65318E"/>
<path opacity="0.3" d="M469.964 36.4981L477.212 70.8752L475.885 44.7194L474.966 26.5215L469.964 36.4981Z" fill="black"/>
<path opacity="0.3" d="M444.517 249.402C444.517 249.402 446.908 242.483 449.519 239.791C453.966 235.183 462.701 237.948 462.701 237.948C462.701 237.948 462.891 231.321 468.243 227.884C473.595 224.446 484.926 222.778 484.926 222.778L486.253 248.802L444.531 249.388L444.517 249.402Z" fill="white"/>
<g opacity="0.3">
<path d="M438.407 128.804L436.146 84.4941L398.508 188.415L441.309 186.236V186.06L417.218 187.289L438.407 128.804Z" fill="black"/>
<path d="M484.926 222.793L486.253 248.817L504.992 248.539L503.636 221.827L484.926 222.793Z" fill="black"/>
<path d="M474.966 26.5215L475.884 44.7194L482.957 184.1L503.023 183.076L504.977 221.593L523.687 220.628L521.719 181.95L501.667 182.974L492.378 0L446.106 2.36982L446.033 2.54536L473.682 1.1264L474.966 26.5215Z" fill="black"/>
</g>
<path d="M435.3 87.8594C435.3 87.8594 435.213 88.2251 434.994 88.898C434.731 89.6441 434.396 90.6242 433.973 91.8383C433.025 94.4715 431.713 98.1286 430.094 102.634C426.784 111.821 422.263 124.372 417.276 138.255C412.259 152.166 407.665 164.732 404.238 173.802C402.532 178.337 401.132 181.994 400.126 184.51C399.645 185.71 399.251 186.675 398.959 187.407C398.682 188.065 398.537 188.401 398.507 188.401C398.478 188.401 398.595 188.036 398.814 187.363C399.076 186.617 399.411 185.636 399.834 184.422C400.782 181.789 402.095 178.132 403.713 173.626C407.024 164.44 411.544 151.888 416.532 138.006C421.534 124.094 426.142 111.528 429.554 102.459C431.261 97.9238 432.661 94.2667 433.667 91.7506C434.148 90.551 434.542 89.5855 434.833 88.8541C435.11 88.1958 435.256 87.8594 435.285 87.8594H435.3Z" fill="#231F20"/>
<path d="M482.957 184.1C482.957 184.1 482.928 183.939 482.899 183.632C482.87 183.28 482.84 182.827 482.797 182.242C482.709 180.969 482.607 179.184 482.461 176.902C482.199 172.207 481.82 165.507 481.338 157.256C480.463 140.609 479.268 117.715 477.94 92.408C477.634 86.3518 477.343 80.4126 477.051 74.7074V74.766C474.295 60.4739 471.786 47.4545 469.687 36.5709V36.4685L469.716 36.3807C471.553 32.7528 473.216 29.4468 474.747 26.4186L474.718 26.5503C474.382 19.0751 474.12 13.0774 473.945 8.90829C473.872 6.87493 473.814 5.29505 473.77 4.16865C473.77 3.65665 473.755 3.26168 473.741 2.93985C473.741 2.66191 473.741 2.51562 473.755 2.51562C473.755 2.51562 473.784 2.66191 473.814 2.92522C473.843 3.24705 473.872 3.64202 473.916 4.15402C473.989 5.28042 474.091 6.8603 474.222 8.89367C474.455 13.0774 474.805 19.0605 475.228 26.5357V26.6088L475.199 26.6673C473.697 29.7101 472.049 33.0307 470.241 36.6733L470.27 36.4831C472.414 47.3521 474.98 60.3715 477.78 74.6489V74.6782V74.7074C478.072 80.4126 478.378 86.3371 478.684 92.408C479.924 117.715 481.047 140.624 481.863 157.271C482.228 165.536 482.534 172.236 482.738 176.932C482.826 179.214 482.884 181.013 482.942 182.286C482.942 182.871 482.972 183.324 482.972 183.675C482.972 183.983 482.972 184.144 482.957 184.158V184.1Z" fill="#231F20"/>
<path d="M352.075 236.806L342.902 96.1092C340.277 55.8808 319.044 32.9725 282.646 32.124C307.582 39.3505 322.049 60.6204 324.192 93.3737L333.365 234.071C333.759 240.039 333.671 245.671 333.161 250.967L352.104 250.704C352.381 246.286 352.381 241.649 352.075 236.792V236.806Z" fill="#65318E"/>
<path d="M256.411 99.0642C255.288 81.9342 261.457 73.8007 272.263 71.5479C268.427 68.8563 263.586 67.8615 257.928 68.2272C244.438 69.1049 236.447 77.019 237.701 96.3433L247.224 242.438C247.457 246.125 247.982 249.358 248.769 252.166L266.779 251.918C266.386 249.87 266.094 247.617 265.934 245.174L256.411 99.0788V99.0642Z" fill="#65318E"/>
<path d="M333.365 234.071L324.193 93.3737C322.049 60.6204 307.583 39.3505 282.646 32.124C274.625 29.7981 265.526 28.9057 255.405 29.5786C213.785 32.3142 192.669 58.5431 195.498 101.829L203.825 229.624L213.946 233.369L204.671 242.526C204.904 246.081 205.298 249.489 205.809 252.781L248.77 252.181C247.997 249.372 247.472 246.154 247.224 242.453L237.701 96.3579C236.447 77.0336 244.439 69.1342 257.928 68.2419C263.586 67.8761 268.428 68.8709 272.263 71.5625C277.557 75.2782 280.896 82.256 281.64 93.4761L291.162 239.571C291.469 244.223 291.221 248.202 290.506 251.581L333.161 250.982C333.672 245.686 333.759 240.054 333.365 234.086V234.071ZM314.816 114.38L324.849 103.57L325.651 115.975L314.801 114.366L314.816 114.38Z" fill="#65318E"/>
<path opacity="0.3" d="M352.075 236.806L342.902 96.1092C340.277 55.8808 319.044 32.9725 282.646 32.124C307.582 39.3505 322.049 60.6204 324.192 93.3737L333.365 234.071C333.759 240.039 333.671 245.671 333.161 250.967L352.104 250.704C352.381 246.286 352.381 241.649 352.075 236.792V236.806Z" fill="#231F20"/>
<path opacity="0.3" d="M256.411 99.0642C255.288 81.9342 261.457 73.8007 272.263 71.5479C268.427 68.8563 263.586 67.8615 257.928 68.2272C244.438 69.1049 236.447 77.019 237.701 96.3433L247.224 242.438C247.457 246.125 247.982 249.358 248.769 252.166L266.779 251.918C266.386 249.87 266.094 247.617 265.934 245.174L256.411 99.0788V99.0642Z" fill="#231F20"/>
<path opacity="0.3" d="M205.823 252.913C205.823 252.913 207.384 239.206 216.454 239.425C225.525 239.644 227.085 228.629 227.085 228.629C227.085 228.629 225.102 203.951 232.743 197.295C240.385 190.624 243.768 189.337 243.768 189.337L247.239 242.438L245.212 252.21L206.086 252.956" fill="white"/>
<path d="M314.815 114.38L325.665 115.989L324.848 103.569L314.815 114.38Z" fill="#65318E"/>
<path opacity="0.3" d="M314.815 114.38L325.665 115.989L324.848 103.569L314.815 114.38Z" fill="black"/>
<path opacity="0.3" d="M289.981 221.49C289.981 221.49 299.183 219.837 303.689 223.07C308.195 226.303 312.381 239.322 316.566 239.425C320.751 239.542 331.164 232.491 333.366 234.07C333.366 234.07 333.614 250.323 333.161 250.966L290.769 251.947L291.294 244.281L289.981 221.475V221.49Z" fill="white"/>
<path d="M245.737 218.521C245.533 218.521 243.768 193.667 241.814 163.005C239.86 132.315 238.445 107.446 238.649 107.432C238.854 107.417 240.618 132.271 242.572 162.962C244.526 193.638 245.941 218.521 245.737 218.535V218.521Z" fill="#231F20"/>
<path d="M330.39 188.415C330.39 188.415 330.361 188.298 330.332 188.049C330.303 187.772 330.274 187.42 330.23 186.982C330.157 185.987 330.04 184.626 329.895 182.871C329.632 179.243 329.253 174.05 328.786 167.613C327.911 154.594 326.686 136.513 325.286 115.989L325.607 116.34C322.136 115.828 318.476 115.287 314.758 114.746L314.043 114.643L314.539 114.117C315.02 113.59 315.56 113.02 316.085 112.464C318.914 109.421 321.699 106.437 324.353 103.584L324.251 103.848C323.959 93.4467 322.924 83.6456 320.839 75.0587C318.797 66.4571 315.443 59.216 311.885 53.701C308.326 48.1714 304.579 44.368 301.837 41.9982C301.166 41.3984 300.525 40.8864 299.985 40.4622C299.445 40.0233 298.979 39.6723 298.585 39.3943C298.235 39.131 297.943 38.9116 297.71 38.7507C297.52 38.6044 297.418 38.5166 297.433 38.5166C297.448 38.5166 297.55 38.5605 297.754 38.6921C297.987 38.8531 298.293 39.0432 298.673 39.2773C299.081 39.526 299.562 39.8771 300.116 40.3013C300.685 40.7109 301.327 41.1936 302.027 41.7934C304.841 44.1047 308.676 47.8789 312.322 53.4231C315.968 58.938 319.409 66.2377 321.509 74.8978C323.668 83.5432 324.732 93.3882 325.038 103.818V103.979L324.936 104.096C322.282 106.949 319.497 109.933 316.668 112.976C316.143 113.546 315.618 114.102 315.122 114.629L314.903 113.985C318.622 114.541 322.282 115.082 325.753 115.594L326.059 115.638V115.945C327.372 136.469 328.495 154.565 329.326 167.584C329.705 174.035 329.997 179.214 330.215 182.856C330.303 184.612 330.376 185.987 330.42 186.967C330.42 187.406 330.449 187.757 330.449 188.035C330.449 188.269 330.449 188.401 330.449 188.401L330.39 188.415Z" fill="#231F20"/>
<g opacity="0.6">
<path d="M467.353 249.226C457.801 249.577 421.869 248.729 411.646 249.226C414.009 250.557 436.817 262.377 491.561 266.912C506.917 268.185 493.923 255.136 492.144 254.624L489.942 253.98C513.494 255.458 537.132 255.399 560.669 253.776C562.128 253.673 564.096 252.913 563.717 251.494C563.44 250.44 561.092 249.416 560.013 249.416C528.806 249.255 498.575 249.914 467.368 249.767" fill="white"/>
</g>
<g opacity="0.6">
<path d="M362.822 250.382C350.631 248.846 264.446 252.182 252.167 252.269C245.649 252.269 219.822 252.401 206.319 253.22C205.006 253.293 206.187 255.575 207.485 255.809C211.918 256.599 216.672 257.448 219.414 257.887C217.591 258.955 218.349 261.675 220.391 261.705C243.957 261.983 267.538 261.485 291.074 260.242C292.227 260.183 293.539 260.022 294.166 259.057C294.866 257.96 294.166 256.424 293.072 255.751C292.256 255.254 289.383 254.932 290.331 255.063C312.978 258.048 341.356 257.214 362.822 250.412V250.382Z" fill="white"/>
</g>
<path d="M159.435 254.946C159.435 255.151 129.453 255.326 92.4852 255.326C55.5176 255.326 25.5205 255.151 25.5205 254.946C25.5205 254.741 55.503 254.565 92.4852 254.565C129.468 254.565 159.435 254.741 159.435 254.946Z" fill="white"/>
<path d="M141.119 262.29C141.119 262.494 123.007 262.67 100.681 262.67C78.3541 262.67 60.2275 262.494 60.2275 262.29C60.2275 262.085 78.3395 261.909 100.681 261.909C123.022 261.909 141.119 262.085 141.119 262.29Z" fill="white"/>
<path d="M379.404 250.324C379.404 250.324 379.244 250.353 378.923 250.368C378.558 250.368 378.092 250.397 377.508 250.412C376.21 250.426 374.402 250.455 372.069 250.499C367.3 250.572 360.49 250.66 352.09 250.777C335.174 251.099 311.885 251.538 286.161 252.021C260.408 252.547 237.089 252.942 220.217 253.045C211.774 253.118 204.949 253.118 200.224 253.089C197.905 253.059 196.082 253.045 194.784 253.03C194.201 253.03 193.734 253.001 193.37 253.001C193.049 253.001 192.889 252.972 192.889 252.957C192.889 252.942 193.049 252.928 193.37 252.913C193.734 252.913 194.201 252.884 194.784 252.869C196.082 252.855 197.891 252.825 200.224 252.781C204.992 252.708 211.803 252.62 220.202 252.503C237.119 252.182 260.408 251.743 286.146 251.26C311.9 250.733 335.203 250.338 352.09 250.236C360.534 250.163 367.359 250.163 372.083 250.192C374.402 250.221 376.225 250.236 377.523 250.251C378.106 250.251 378.573 250.28 378.937 250.28C379.258 250.28 379.419 250.309 379.419 250.324H379.404Z" fill="white"/>
<path d="M86.8117 188.898L86.8408 188.708L63.1582 185.036L95.5468 132.432L102.372 88.2246L44.4629 182.301L86.8117 188.898Z" fill="#65318E"/>
<path d="M154.783 22.2351L143.569 94.7487L128.023 195.305L147.856 198.392L141.965 236.485L160.645 239.396L166.566 201.113L146.719 198.026L174.718 16.9835L128.928 9.85938L128.825 10.0349L156.008 14.2626L154.783 22.2351Z" fill="#65318E"/>
<path d="M122.102 233.588L118.952 253.995L138.114 253.731L140.783 236.484L122.102 233.588Z" fill="#65318E"/>
<path d="M140.783 236.485L141.95 236.66L141.979 236.485L147.871 198.392L128.023 195.305L143.569 94.7489L140.9 75.9513L145.742 66.5451L147.856 49.5614C147.856 49.5614 148.76 40.1553 149.067 38.0341C149.373 35.913 154.783 22.2499 154.783 22.2499L156.023 14.2628L128.84 10.0351L110.232 7.13867L32.5491 133.12L38.8926 138.561L26.1763 143.462L5.92066 176.318L0 214.601L80.8914 227.181L76.6478 254.61L118.938 254.01L122.088 233.588L140.769 236.499L140.783 236.485ZM95.5472 132.432L86.8412 188.708L86.8121 188.884L44.4633 182.301L102.387 88.2246L95.5472 132.432Z" fill="#65318E"/>
<path d="M149.067 38.0195C148.761 40.1407 147.856 49.5468 147.856 49.5468L145.742 66.5305L140.9 75.9367L143.569 94.7344L154.783 22.2207C154.783 22.2207 149.373 35.8838 149.067 38.0049V38.0195Z" fill="#65318E"/>
<path opacity="0.3" d="M148.716 38.0198C148.41 40.1409 147.506 49.547 147.506 49.547L145.391 66.5308L140.55 75.9369L143.568 94.7346L154.695 22.3965C154.695 22.3965 149.022 35.884 148.716 38.0198Z" fill="black"/>
<path opacity="0.3" d="M78.1793 244.706C78.1793 244.706 83.1958 250.265 87.7311 250.558C92.2663 250.85 94.3517 237.787 99.0911 240.362C103.831 242.936 100.579 248.378 106.791 249.373C113.018 250.368 119.668 249.344 119.668 249.344L118.953 253.995L76.7793 254.317L78.1793 244.692V244.706Z" fill="white"/>
<g opacity="0.3">
<path d="M86.8117 188.898L86.8408 188.708L63.1582 185.036L95.5468 132.432L102.372 88.2246L44.4629 182.301L86.8117 188.898Z" fill="black"/>
<path d="M154.783 22.2351L143.569 94.7487L128.023 195.305L147.856 198.392L141.965 236.485L160.645 239.396L166.566 201.113L146.719 198.026L174.718 16.9835L128.928 9.85938L128.825 10.0349L156.008 14.2626L154.783 22.2351Z" fill="black"/>
<path d="M122.102 233.588L118.952 253.995L138.114 253.731L140.783 236.484L122.102 233.588Z" fill="black"/>
</g>
<path d="M128.024 195.305C127.819 195.276 133.915 154.711 141.644 104.726C149.373 54.7253 155.804 14.2188 156.023 14.2627C156.227 14.292 150.131 54.8423 142.402 104.843C134.673 154.828 128.242 195.335 128.038 195.305H128.024Z" fill="#231F20"/>
<path d="M101.57 89.5122C101.57 89.5122 101.409 89.8633 101.059 90.4923C100.651 91.1798 100.126 92.1014 99.4697 93.2425C98.0114 95.6854 95.9844 99.0939 93.4907 103.263C88.3429 111.748 81.2848 123.363 73.4975 136.192C65.5936 148.992 58.3605 160.534 53.1106 168.887C50.5003 172.997 48.3712 176.347 46.8546 178.746C46.14 179.858 45.5567 180.736 45.1192 181.409C44.7109 182.008 44.4921 182.316 44.4775 182.316C44.4484 182.316 44.638 181.965 45.0025 181.335C45.4108 180.648 45.9504 179.741 46.6212 178.6C48.0941 176.172 50.1503 172.778 52.6731 168.609C57.8792 160.153 65.0103 148.582 72.8705 135.797C80.7307 123.012 87.8471 111.44 93.0532 102.985C95.6344 98.8598 97.7343 95.4952 99.251 93.0815C99.9655 91.9698 100.534 91.0774 100.972 90.4045C101.365 89.8047 101.599 89.4829 101.613 89.4975L101.57 89.5122Z" fill="#231F20"/>
<path d="M141.965 236.485C141.761 236.456 142.854 227.884 144.429 217.336C145.99 206.789 147.434 198.261 147.638 198.29C147.842 198.319 146.748 206.892 145.173 217.439C143.613 227.986 142.169 236.514 141.965 236.485Z" fill="#231F20"/>
<path d="M579 249.226C579 249.431 539.612 249.606 491.036 249.606C442.461 249.606 403.058 249.431 403.058 249.226C403.058 249.021 442.431 248.846 491.036 248.846C539.641 248.846 579 249.021 579 249.226Z" fill="white"/>
</g>
<defs>
<clipPath id="clip0_1264_2269">
<rect width="579" height="267" fill="white"/>
</clipPath>
</defs>
</svg>
