<?xml version="1.0" encoding="UTF-8"?>
<svg id="Layer_1" data-name="Layer 1" xmlns="http://www.w3.org/2000/svg" xmlns:xlink="http://www.w3.org/1999/xlink" viewBox="0 0 1178 529">
  <defs>
    <style>
      .cls-1 {
        fill: url(#linear-gradient-3);
      }

      .cls-2 {
        fill: url(#linear-gradient-2);
      }

      .cls-3 {
        fill: #004877;
      }

      .cls-4 {
        fill: #231f20;
      }

      .cls-5 {
        fill: #134f8d;
      }

      .cls-6 {
        fill: url(#linear-gradient);
      }
    </style>
    <linearGradient id="linear-gradient" x1="319.35" y1="143.82" x2="548.29" y2="143.82" gradientUnits="userSpaceOnUse">
      <stop offset="0" stop-color="#15498d"/>
      <stop offset="1" stop-color="#44c8f5"/>
    </linearGradient>
    <linearGradient id="linear-gradient-2" x1="389.24" y1="253.32" x2="559.55" y2="253.32" xlink:href="#linear-gradient"/>
    <linearGradient id="linear-gradient-3" x1="134.93" y1="321.39" x2="337.35" y2="321.39" xlink:href="#linear-gradient"/>
  </defs>
  <g>
    <path class="cls-4" d="M137.02,478.09h4.69l10.99,16.89v-16.89h4.89v25.67h-4.7l-10.97-16.84v16.84h-4.89v-25.67Z"/>
    <path class="cls-4" d="M165.06,478.09h4.9v16.6c0,1.43.13,2.44.38,3.03s.66,1.07,1.24,1.42c.58.35,1.27.53,2.09.53.86,0,1.6-.2,2.23-.59.62-.39,1.05-.9,1.29-1.51s.36-1.78.36-3.5v-15.99h4.9v15.31c0,2.58-.15,4.37-.44,5.38-.29,1-.85,1.97-1.67,2.9-.82.93-1.77,1.62-2.84,2.07-1.07.45-2.32.67-3.73.67-1.86,0-3.48-.43-4.86-1.28-1.38-.86-2.36-1.93-2.96-3.21s-.89-3.46-.89-6.52v-15.31Z"/>
    <path class="cls-4" d="M190.23,478.09h5.18c2.83,0,4.85.25,6.06.76,1.2.51,2.17,1.35,2.9,2.52.73,1.18,1.1,2.57,1.1,4.17,0,1.69-.4,3.1-1.21,4.23s-2.03,1.99-3.66,2.57l6.08,11.41h-5.34l-5.77-10.87h-.45v10.87h-4.89v-25.67ZM195.12,488.12h1.53c1.55,0,2.62-.2,3.21-.61.59-.41.88-1.09.88-2.03,0-.56-.15-1.05-.44-1.46s-.68-.71-1.17-.89c-.49-.18-1.38-.27-2.68-.27h-1.34v5.27Z"/>
    <path class="cls-4" d="M209.89,478.09h14.19v4.82h-4.68v20.86h-4.96v-20.86h-4.55v-4.82Z"/>
    <path class="cls-4" d="M229.04,478.09h4.91v16.6c0,1.43.12,2.44.37,3.03s.66,1.07,1.24,1.42c.58.35,1.27.53,2.09.53.86,0,1.6-.2,2.22-.59.62-.39,1.05-.9,1.29-1.51s.36-1.78.36-3.5v-15.99h4.9v15.31c0,2.58-.15,4.37-.44,5.38-.29,1-.85,1.97-1.67,2.9-.82.93-1.77,1.62-2.84,2.07-1.07.45-2.32.67-3.74.67-1.86,0-3.48-.43-4.86-1.28s-2.36-1.93-2.96-3.21c-.59-1.29-.89-3.46-.89-6.52v-15.31Z"/>
    <path class="cls-4" d="M254.22,478.09h5.18c2.84,0,4.85.25,6.06.76,1.2.51,2.17,1.35,2.9,2.52s1.1,2.57,1.1,4.17c0,1.69-.4,3.1-1.21,4.23s-2.03,1.99-3.66,2.57l6.08,11.41h-5.34l-5.77-10.87h-.45v10.87h-4.89v-25.67ZM259.1,488.12h1.53c1.55,0,2.62-.2,3.21-.61s.88-1.09.88-2.03c0-.56-.15-1.05-.43-1.46-.29-.41-.68-.71-1.17-.89-.49-.18-1.38-.27-2.68-.27h-1.34v5.27Z"/>
    <path class="cls-4" d="M276.06,478.09h4.85v25.67h-4.85v-25.67Z"/>
    <path class="cls-4" d="M288.21,478.09h4.69l10.98,16.89v-16.89h4.89v25.67h-4.7l-10.97-16.84v16.84h-4.89v-25.67Z"/>
    <path class="cls-4" d="M340.12,482.27l-3.44,3.4c-2.18-2.3-4.72-3.46-7.62-3.46-2.53,0-4.64.84-6.35,2.51s-2.56,3.71-2.56,6.11.89,4.58,2.66,6.3c1.77,1.72,3.96,2.58,6.55,2.58,1.69,0,3.11-.35,4.27-1.06,1.16-.71,2.09-1.82,2.8-3.33h-7.43v-4.59h12.91l.04,1.08c0,2.25-.58,4.37-1.74,6.39-1.16,2.01-2.67,3.55-4.52,4.61-1.85,1.06-4.02,1.59-6.51,1.59-2.66,0-5.04-.58-7.13-1.74s-3.74-2.81-4.96-4.95c-1.22-2.14-1.82-4.45-1.82-6.93,0-3.4,1.12-6.35,3.37-8.87,2.66-2.99,6.13-4.49,10.4-4.49,2.23,0,4.32.41,6.27,1.24,1.64.7,3.25,1.9,4.82,3.59Z"/>
    <path class="cls-4" d="M360,478.09h5.18c2.8,0,4.83.26,6.06.78,1.24.52,2.22,1.36,2.93,2.51.72,1.16,1.07,2.55,1.07,4.16,0,1.79-.47,3.28-1.4,4.47-.94,1.19-2.21,2.01-3.81,2.48-.94.27-2.66.4-5.15.4v10.87h-4.89v-25.67ZM364.89,488.12h1.55c1.22,0,2.07-.09,2.55-.26.48-.18.85-.46,1.13-.87.27-.4.41-.89.41-1.46,0-.99-.38-1.72-1.15-2.17-.56-.34-1.6-.51-3.11-.51h-1.38v5.27Z"/>
    <path class="cls-4" d="M393.95,477.44c3.63,0,6.76,1.32,9.37,3.94,2.61,2.63,3.92,5.84,3.92,9.62s-1.29,6.92-3.87,9.51c-2.58,2.59-5.71,3.89-9.39,3.89s-7.06-1.33-9.61-4c-2.55-2.66-3.82-5.83-3.82-9.49,0-2.45.59-4.71,1.78-6.77,1.19-2.06,2.82-3.69,4.9-4.9s4.32-1.81,6.72-1.81ZM393.89,482.22c-2.38,0-4.37.83-5.99,2.48-1.62,1.65-2.43,3.75-2.43,6.3,0,2.84,1.02,5.08,3.06,6.74,1.58,1.29,3.4,1.94,5.45,1.94,2.32,0,4.29-.84,5.92-2.51,1.63-1.68,2.45-3.74,2.45-6.2s-.82-4.51-2.46-6.2-3.64-2.54-5.99-2.54Z"/>
    <path class="cls-4" d="M411.1,478.09h14.19v4.82h-4.68v20.86h-4.96v-20.86h-4.55v-4.82Z"/>
    <path class="cls-4" d="M430.44,478.09h14.02v4.78h-9.16v4.64h9.16v4.69h-9.16v6.75h9.16v4.8h-14.02v-25.67Z"/>
    <path class="cls-4" d="M450.82,478.09h4.69l10.98,16.89v-16.89h4.89v25.67h-4.7l-10.97-16.84v16.84h-4.89v-25.67Z"/>
    <path class="cls-4" d="M476.5,478.09h14.19v4.82h-4.68v20.86h-4.96v-20.86h-4.55v-4.82Z"/>
    <path class="cls-4" d="M495.48,478.09h4.85v25.67h-4.85v-25.67Z"/>
    <path class="cls-4" d="M515.45,478.09h4.96l9.87,25.67h-5.08l-2.01-5.29h-10.48l-2.09,5.29h-5.08l9.9-25.67ZM517.96,484.89l-3.45,8.81h6.87l-3.42-8.81Z"/>
    <path class="cls-4" d="M535.84,478.09h4.89v21.01h7.12v4.66h-12.01v-25.67Z"/>
    <path class="cls-4" d="M555.12,498.92l3.4,1.71-4.31,7.37-2.37-1.13,3.28-7.94Z"/>
    <path class="cls-4" d="M576.76,478.09h4.91v16.6c0,1.43.12,2.44.37,3.03s.66,1.07,1.24,1.42c.58.35,1.27.53,2.09.53.86,0,1.6-.2,2.22-.59.62-.39,1.05-.9,1.29-1.51s.36-1.78.36-3.5v-15.99h4.9v15.31c0,2.58-.15,4.37-.44,5.38-.29,1-.85,1.97-1.67,2.9s-1.77,1.62-2.84,2.07c-1.07.45-2.32.67-3.74.67-1.86,0-3.48-.43-4.86-1.28s-2.36-1.93-2.96-3.21c-.59-1.29-.89-3.46-.89-6.52v-15.31Z"/>
    <path class="cls-4" d="M601.62,478.09h4.69l10.99,16.89v-16.89h4.89v25.67h-4.7l-10.97-16.84v16.84h-4.89v-25.67Z"/>
    <path class="cls-4" d="M629.83,478.09h4.89v21.01h7.12v4.66h-12.01v-25.67Z"/>
    <path class="cls-4" d="M647.36,478.09h14.02v4.78h-9.16v4.64h9.16v4.69h-9.16v6.75h9.16v4.8h-14.02v-25.67Z"/>
    <path class="cls-4" d="M675.55,478.09h4.96l9.87,25.67h-5.08l-2.01-5.29h-10.48l-2.09,5.29h-5.08l9.9-25.67ZM678.06,484.89l-3.45,8.81h6.87l-3.42-8.81Z"/>
    <path class="cls-4" d="M709.42,481.58l-3.62,3.19c-1.27-1.77-2.56-2.65-3.88-2.65-.64,0-1.17.17-1.57.51-.41.34-.61.73-.61,1.16s.15.84.44,1.22c.4.51,1.59,1.61,3.58,3.3,1.86,1.56,3,2.54,3.39,2.95.99,1,1.69,1.96,2.11,2.87.41.91.62,1.91.62,2.99,0,2.11-.73,3.85-2.18,5.22-1.46,1.37-3.36,2.06-5.7,2.06-1.83,0-3.42-.45-4.78-1.34-1.36-.9-2.52-2.3-3.49-4.22l4.11-2.48c1.23,2.27,2.66,3.4,4.26,3.4.84,0,1.54-.24,2.12-.73.57-.49.86-1.05.86-1.69,0-.58-.21-1.16-.65-1.75-.43-.58-1.38-1.47-2.85-2.67-2.8-2.28-4.6-4.04-5.42-5.28s-1.22-2.48-1.22-3.71c0-1.78.68-3.31,2.04-4.58,1.36-1.27,3.03-1.91,5.02-1.91,1.28,0,2.5.3,3.66.89,1.16.59,2.41,1.68,3.76,3.25Z"/>
    <path class="cls-4" d="M716.3,478.09h4.96v9.69h8.57v-9.69h4.94v25.67h-4.94v-11.26h-8.57v11.26h-4.96v-25.67Z"/>
    <path class="cls-4" d="M742.07,478.09h4.85v25.67h-4.85v-25.67Z"/>
    <path class="cls-4" d="M754.22,478.09h4.69l10.99,16.89v-16.89h4.89v25.67h-4.7l-10.97-16.84v16.84h-4.89v-25.67Z"/>
    <path class="cls-4" d="M806.13,482.27l-3.44,3.4c-2.18-2.3-4.72-3.46-7.62-3.46-2.53,0-4.64.84-6.35,2.51s-2.56,3.71-2.56,6.11.89,4.58,2.66,6.3c1.77,1.72,3.95,2.58,6.55,2.58,1.69,0,3.11-.35,4.27-1.06,1.16-.71,2.09-1.82,2.8-3.33h-7.44v-4.59h12.92l.03,1.08c0,2.25-.58,4.37-1.74,6.39-1.16,2.01-2.67,3.55-4.52,4.61-1.85,1.06-4.02,1.59-6.51,1.59-2.66,0-5.04-.58-7.13-1.74s-3.74-2.81-4.96-4.95c-1.22-2.14-1.82-4.45-1.82-6.93,0-3.4,1.12-6.35,3.37-8.87,2.66-2.99,6.13-4.49,10.4-4.49,2.23,0,4.32.41,6.27,1.24,1.64.7,3.25,1.9,4.82,3.59Z"/>
    <path class="cls-4" d="M826.03,503.76v-25.67h4.04c2.34,0,4.05.15,5.14.45,1.54.41,2.76,1.16,3.67,2.27.91,1.11,1.36,2.41,1.36,3.91,0,.98-.21,1.86-.62,2.66-.41.8-1.08,1.54-2.02,2.24,1.56.73,2.7,1.65,3.42,2.75s1.08,2.4,1.08,3.9-.37,2.76-1.12,3.94c-.75,1.19-1.71,2.07-2.88,2.66s-2.8.88-4.87.88h-7.2ZM830.91,482.74v5.41h1.07c1.19,0,2.08-.25,2.65-.75.58-.5.87-1.18.87-2.04,0-.8-.28-1.44-.82-1.91s-1.38-.71-2.5-.71h-1.26ZM830.91,492.52v6.58h1.23c2.03,0,3.4-.26,4.1-.77.71-.51,1.06-1.26,1.06-2.23,0-1.11-.41-1.98-1.24-2.62s-2.21-.96-4.13-.96h-1.02Z"/>
    <path class="cls-4" d="M848.88,478.09h5.18c2.84,0,4.85.25,6.06.76,1.2.51,2.17,1.35,2.9,2.52s1.1,2.57,1.1,4.17c0,1.69-.4,3.1-1.21,4.23s-2.03,1.99-3.66,2.57l6.08,11.41h-5.34l-5.77-10.87h-.45v10.87h-4.89v-25.67ZM853.77,488.12h1.53c1.55,0,2.62-.2,3.21-.61s.88-1.09.88-2.03c0-.56-.15-1.05-.43-1.46-.29-.41-.68-.71-1.17-.89-.49-.18-1.38-.27-2.68-.27h-1.34v5.27Z"/>
    <path class="cls-4" d="M870.72,478.09h4.85v25.67h-4.85v-25.67Z"/>
    <path class="cls-4" d="M882.86,478.09h4.89v21.01h7.12v4.66h-12.01v-25.67Z"/>
    <path class="cls-4" d="M900.37,478.09h4.89v21.01h7.12v4.66h-12.01v-25.67Z"/>
    <path class="cls-4" d="M917.53,478.09h4.85v25.67h-4.85v-25.67Z"/>
    <path class="cls-4" d="M937.5,478.09h4.96l9.87,25.67h-5.08l-2.01-5.29h-10.48l-2.09,5.29h-5.08l9.9-25.67ZM940.01,484.89l-3.45,8.81h6.87l-3.42-8.81Z"/>
    <path class="cls-4" d="M957.92,478.09h4.69l10.99,16.89v-16.89h4.89v25.67h-4.7l-10.97-16.84v16.84h-4.89v-25.67Z"/>
    <path class="cls-4" d="M1009.72,482.6l-3.42,3.26c-2.33-2.46-4.94-3.69-7.85-3.69-2.45,0-4.52.84-6.2,2.52-1.68,1.68-2.52,3.74-2.52,6.2,0,1.71.37,3.23,1.12,4.56.74,1.33,1.8,2.37,3.16,3.13,1.36.76,2.87,1.14,4.53,1.14,1.42,0,2.71-.27,3.89-.8,1.17-.53,2.47-1.49,3.87-2.89l3.31,3.46c-1.9,1.85-3.69,3.13-5.38,3.85-1.69.72-3.61,1.07-5.78,1.07-3.99,0-7.26-1.27-9.8-3.8-2.54-2.53-3.81-5.77-3.81-9.73,0-2.56.58-4.83,1.74-6.82,1.16-1.99,2.81-3.59,4.97-4.8,2.16-1.21,4.48-1.82,6.97-1.82,2.12,0,4.16.45,6.12,1.34s3.65,2.17,5.07,3.82Z"/>
    <path class="cls-4" d="M1015.8,478.09h14.02v4.78h-9.16v4.64h9.16v4.69h-9.16v6.75h9.16v4.8h-14.02v-25.67Z"/>
    <path class="cls-4" d="M1038.24,498.78c.76,0,1.4.26,1.94.79.53.53.8,1.17.8,1.93s-.27,1.4-.8,1.94c-.54.53-1.18.8-1.94.8s-1.4-.27-1.94-.8c-.53-.54-.8-1.18-.8-1.94s.27-1.4.8-1.93,1.18-.79,1.94-.79Z"/>
  </g>
  <g>
    <g>
      <polygon class="cls-6" points="487.02 126.73 391.07 222.41 548.29 94.43 403.3 129.37 319.35 65.23 359.01 173.33 344.69 94.87 393.62 152.13 487.02 126.73"/>
      <polygon class="cls-2" points="509.89 318.41 389.24 256.73 559.55 366.69 481.51 239.6 516.55 139.94 426 211.07 496.19 173.2 456.87 237.43 509.89 318.41"/>
      <polygon class="cls-3" points="334.67 399.39 356.06 265.59 304.08 461.53 400.86 348.05 506.47 350.6 410.85 286.45 468.55 341.51 395.3 323.95 334.67 399.39"/>
      <polygon class="cls-1" points="203.49 257.75 337.35 236.73 134.93 247.88 272.77 304.83 302.99 406.06 334.45 295.29 299.92 367.18 293.98 292.09 203.49 257.75"/>
      <polygon class="cls-3" points="297.67 89.25 359.03 210.05 285.87 21 274.31 169.68 187.37 229.7 302.44 225.39 223.39 214.76 292.97 185.92 297.67 89.25"/>
    </g>
    <g>
      <path class="cls-5" d="M593.15,226.7c2.89-1.12,4.11-4.95,4.11-9.15v-46.96l-20.82,57.04c-7-16.43-15.12-36.22-22.13-54.24v40.33c0,9.15,6.82,12.14,9.43,12.98h-14.94c2.89-1.12,4.11-4.95,4.11-9.15v-44.25c0-4.2-.28-7.1-4.11-9.15h14.1l18.39,45.84,16.9-45.84h14.47c-3.83,2.05-4.11,4.95-4.11,9.15v44.25c0,4.2,1.21,8.03,4.11,9.15h-19.51Z"/>
      <path class="cls-5" d="M615.56,203.55c0-14.47,8.87-23.99,22.31-23.99s22.13,9.52,22.13,23.99-8.78,24.09-22.13,24.09-22.31-9.62-22.31-24.09ZM648.7,203.08c-.65-14.38-5.51-22.97-12.14-22.59-6.63.28-10.36,9.43-9.71,23.53.75,14.28,5.51,23.06,12.32,22.69,6.44-.28,10.27-9.52,9.52-23.62Z"/>
      <path class="cls-5" d="M694.26,183.29l14.56-3.73v37.81c0,6.07,1.21,8.22,4.11,9.34h-13.35l-.75-7.1c-3.64,4.85-10.46,8.03-15.97,8.03-10.08,0-15.5-5.14-15.5-17.46v-20.45c-.19-3.45-1.68-5.88-4.29-6.44l14.56-3.73v31.74c0,9.15,1.59,13.72,8.5,13.72,4.48,0,9.52-2.43,12.6-7.1l-.19-27.17c-.09-4.01-1.49-6.82-4.29-7.47Z"/>
      <path class="cls-5" d="M735.44,226.7h-20.35c1.68-.65,5.04-2.05,5.04-7.47v-28.48c0-4.01-1.49-6.82-4.29-7.47l14.56-3.73v11.11c3.55-6.54,10.08-11.11,17.18-11.11,8.78,0,15.22,5.14,15.22,17.46v22.22c0,5.41,3.36,6.82,5.04,7.47h-20.35c1.59-.65,4.76-1.96,5.04-6.82v-23.99c0-9.15-2.33-13.54-8.03-13.54-5.98,0-11.11,4.39-14,9.9v27.45c.19,5.04,3.36,6.35,4.95,7Z"/>
      <path class="cls-5" d="M788.09,227.63c-8.59,0-12.04-5.23-12.32-15.03v-29.41l-7.84.09,8.5-2.8,9.62-12.23v12.23h11.58v1.87l-11.58-.93v26.14c0,8.31-.65,17.09,5.98,17.09,1.77,0,4.3-.56,6.63-3.92-2.05,4.67-5.98,6.91-10.55,6.91Z"/>
      <path class="cls-5" d="M836.64,225.3h10.18c8.96,0,12.42-4.57,14.56-9.71v11.11h-40.14c2.89-1.12,4.11-4.95,4.11-9.15v-44.25c0-4.2-1.21-8.03-4.11-9.15h19.51c-2.89,1.4-4.11,5.41-4.11,10.08v51.07Z"/>
      <path class="cls-5" d="M883.98,226.7h-20.35c1.68-.65,5.04-2.05,5.04-7.47v-28.48c0-4.01-1.4-6.82-4.29-7.47l14.56-3.73v40.14c.19,5.04,3.45,6.35,5.04,7ZM873.8,161.35c3.64,0,6.25,2.61,6.25,5.98s-2.61,5.98-6.25,5.98-6.16-2.61-6.16-5.98c0-3.55,2.61-5.98,6.16-5.98Z"/>
      <path class="cls-5" d="M903.4,227.63c-8.59,0-12.04-5.23-12.32-15.03v-29.41l-7.84.09,8.5-2.8,9.62-12.23v12.23h11.58v1.87l-11.58-.93v26.14c0,8.31-.65,17.09,5.98,17.09,1.77,0,4.3-.56,6.63-3.92-2.05,4.67-5.98,6.91-10.55,6.91Z"/>
      <path class="cls-5" d="M941.21,227.63c-16.15,0-23.34-10.08-23.34-23.53s7.28-24.55,23.06-24.55c13.26,0,19.7,8.78,19.7,20.54v.93h-31.93c.19,12.98,5.79,22.69,16.43,22.69,7.47,0,12.6-4.48,16.15-9.62-2.61,8.03-10.74,13.54-20.07,13.54ZM952.32,200.09c0-6.53-2.05-19.61-11.86-19.61-9.24,0-11.67,11.2-11.76,19.61h23.62Z"/>
      <path class="cls-5" d="M998.81,189.45c-1.96-1.21-4.48-1.87-7-1.87-5.23,0-10.64,2.52-12.04,6.82v25.3c.19,5.04,3.36,6.35,4.95,7h-20.35c1.68-.65,5.04-2.05,5.04-7.47v-28.48c0-4.01-1.49-6.82-4.29-7.47l14.56-3.73v12.7c2.33-6.72,8.68-12.88,13.35-12.7l5.79,9.9Z"/>
      <path class="cls-5" d="M1038.96,195.61v21.75c0,6.07,1.21,8.22,4.11,9.34h-13.35l-.84-6.35c-3.83,3.73-9.43,7.38-15.31,7.38-8.87,0-13.26-5.41-13.26-11.95,0-12.88,18.48-14.84,28.38-16.9v-2.24c0-5.6.37-16.15-8.12-16.15-6.72,0-10.46,8.68-11.67,13.91l-5.88-9.8c4.48-3.08,11.86-5.04,17.46-5.04,10.36,0,18.48,5.51,18.48,16.06ZM1028.69,199.91c-7.94,1.68-17.27,3.64-17.27,13.82,0,3.83,2.24,9.8,8.59,9.8,4.11,0,6.82-2.52,8.87-4.48l-.19-19.14Z"/>
      <path class="cls-5" d="M622.89,314.56h-42.39l30.25-61.15h-12.88c-5.98,0-8.68,4.11-8.31,10.83l-6.26-12.23h40.52l-30.16,61.15h14.66c5.98,0,8.68-4.11,8.31-10.83l6.26,12.23Z"/>
      <path class="cls-5" d="M648.75,315.49c-16.15,0-23.34-10.08-23.34-23.53s7.28-24.55,23.06-24.55c13.26,0,19.7,8.78,19.7,20.54v.93h-31.93c.19,12.98,5.79,22.69,16.43,22.69,7.47,0,12.6-4.48,16.15-9.62-2.61,8.03-10.74,13.54-20.07,13.54ZM659.86,287.95c0-6.53-2.05-19.61-11.86-19.61-9.24,0-11.67,11.2-11.76,19.61h23.62Z"/>
      <path class="cls-5" d="M696.18,315.49c-16.15,0-23.34-10.08-23.34-23.53s7.28-24.55,23.06-24.55c13.26,0,19.7,8.78,19.7,20.54v.93h-31.93c.19,12.98,5.79,22.69,16.43,22.69,7.47,0,12.6-4.48,16.15-9.62-2.61,8.03-10.74,13.54-20.07,13.54ZM707.29,287.95c0-6.53-2.05-19.61-11.86-19.61-9.24,0-11.67,11.2-11.76,19.61h23.62Z"/>
      <path class="cls-5" d="M745.19,295.98c1.4,7.1,8.4,17.74,17.37,18.02,6.25.28,11.48-3.64,11.67-9.71.47-16.9-33.52-15.03-32.86-35.66.37-11.95,11.11-17.83,21.75-17.55,5.98.19,13.63,2.05,18.11,6.16l-6.35,9.99c-1.59-6.63-5.04-14.38-13.35-14.66-6.91-.28-11.3,3.55-11.48,9.24-.37,17.83,34.54,16.24,33.89,36.78-.37,11.11-10.36,17.27-22.87,16.9-8.4-.28-17.74-3.73-22.22-9.71l6.35-9.8Z"/>
      <path class="cls-5" d="M823.25,286.18c-2.24-7.38-5.6-17.83-12.79-17.83-9.52,0-11.86,12.6-11.86,19.23,0,10.08,3.36,23.99,16.8,23.99,7.19,0,12.32-4.48,15.87-9.62-2.61,8.03-10.74,13.54-20.07,13.54-16.15,0-23.25-10.08-23.25-23.81s7.19-24.27,22.78-24.27c8.31,0,14.28,2.8,18.48,8.96l-5.98,9.8Z"/>
      <path class="cls-5" d="M838.46,260.41c0-4.01-1.4-6.82-4.3-7.47l14.57-3.73v29.22c3.64-6.44,10.08-11.02,17.18-11.02,8.78,0,15.22,5.14,15.22,17.46v22.22c0,5.41,3.36,6.82,5.04,7.47h-20.35c1.59-.65,4.76-1.96,5.04-6.82v-23.99c0-9.15-2.33-13.54-8.03-13.54-5.98,0-11.11,4.57-14.1,10.08v27.07c.09,5.14,3.45,6.54,5.04,7.19h-20.35c1.68-.65,5.04-2.05,5.04-7.47v-46.68Z"/>
      <path class="cls-5" d="M889.07,291.41c0-14.47,8.87-23.99,22.31-23.99s22.13,9.52,22.13,23.99-8.78,24.09-22.13,24.09-22.31-9.62-22.31-24.09ZM922.21,290.94c-.65-14.38-5.51-22.97-12.14-22.59-6.63.28-10.36,9.43-9.71,23.53.75,14.28,5.51,23.06,12.32,22.69,6.44-.28,10.27-9.52,9.52-23.62Z"/>
      <path class="cls-5" d="M937.43,291.41c0-14.47,8.87-23.99,22.31-23.99s22.13,9.52,22.13,23.99-8.78,24.09-22.13,24.09-22.31-9.62-22.31-24.09ZM970.57,290.94c-.65-14.38-5.51-22.97-12.14-22.59-6.63.28-10.36,9.43-9.71,23.53.75,14.28,5.51,23.06,12.32,22.69,6.44-.28,10.27-9.52,9.52-23.62Z"/>
      <path class="cls-5" d="M984.86,252.94l14.56-3.73v45.93c-.09,11.02-.75,16.99,4.48,16.99,2.61,0,4.67-2.05,6.91-5.41-1.68,4.76-5.04,8.78-10.36,8.78-8.31,0-11.67-3.92-11.3-17.65v-37.44c0-4.01-1.4-6.82-4.3-7.47Z"/>
    </g>
  </g>
</svg>