<svg width="1920" height="3213" viewBox="0 0 1920 3213" fill="none" xmlns="http://www.w3.org/2000/svg">
<g clip-path="url(#clip0_1_66603)">
<rect width="1920" height="3213" fill="white"/>
<g opacity="0.7">
<g clip-path="url(#clip1_1_66603)">
<path d="M41.8343 1109.37L-18.1348 1065.78L64.8605 1139.89L32.3394 1063.77L58.2063 1011.81L4.76323 1043.63L44.9461 1028.45L19.3404 1060.6L41.8343 1109.37Z" fill="url(#paint0_linear_1_66603)"/>
</g>
<g clip-path="url(#clip2_1_66603)">
<path d="M41.8343 1109.37L-18.1348 1065.78L64.8605 1139.89L32.3394 1063.77L58.2063 1011.81L4.76323 1043.63L44.9461 1028.45L19.3404 1060.6L41.8343 1109.37Z" fill="url(#paint1_linear_1_66603)"/>
</g>
<g clip-path="url(#clip3_1_66603)">
<path d="M1878.98 1393.6L1946.22 1424.82L1850.5 1368.08L1897.08 1436.51L1881.7 1492.48L1928.02 1450.96L1891.51 1473.6L1910.44 1437.11L1878.98 1393.6Z" fill="url(#paint2_linear_1_66603)"/>
</g>
<g clip-path="url(#clip4_1_66603)">
<path d="M29.0734 665.53L32.6757 678.718L47.4169 695.292L-26.7818 702.325L47.0335 741.995L36.731 728.719L11.32 709.909L72.4028 706.549L29.0734 665.53Z" fill="url(#paint3_linear_1_66603)"/>
</g>
<g clip-path="url(#clip5_1_66603)">
<path opacity="0.7" d="M1772.69 813.6L1788.89 814.665L1813.19 804.543L1792.36 890.531L1865.45 823.045L1846.57 829.473L1815.62 850.701L1835.5 780.859L1772.69 813.6Z" fill="#892890"/>
</g>
<g clip-path="url(#clip6_1_66603)">
<path opacity="0.5" d="M1671.03 703.808L1646.93 659.999L1621.04 702.782L1671.03 703.808Z" fill="url(#paint4_linear_1_66603)"/>
</g>
<g clip-path="url(#clip7_1_66603)">
<path opacity="0.5" d="M1418.54 686.96L1427.79 722.131L1453.62 696.549L1418.54 686.96Z" fill="url(#paint5_linear_1_66603)"/>
</g>
<g clip-path="url(#clip8_1_66603)">
<path opacity="0.62" d="M117 1863.61L136.91 1852.88L117.67 1841L117 1863.61Z" fill="#892890"/>
</g>
<g clip-path="url(#clip9_1_66603)">
<path opacity="0.62" d="M1807 1733.61L1826.91 1722.88L1807.67 1711L1807 1733.61Z" fill="#892890"/>
</g>
<g clip-path="url(#clip10_1_66603)">
<path opacity="0.62" d="M56 857.609L75.91 846.879L56.67 834.999L56 857.609Z" fill="#892890"/>
</g>
<g clip-path="url(#clip11_1_66603)">
<path d="M41.8304 2039.37L-18.1387 1995.78L64.8566 2069.89L32.3355 1993.77L58.2024 1941.81L4.75933 1973.63L44.9422 1958.45L19.3365 1990.6L41.8304 2039.37Z" fill="url(#paint6_linear_1_66603)"/>
</g>
<g clip-path="url(#clip12_1_66603)">
<path d="M41.8304 2039.37L-18.1387 1995.78L64.8566 2069.89L32.3355 1993.77L58.2024 1941.81L4.75933 1973.63L44.9422 1958.45L19.3365 1990.6L41.8304 2039.37Z" fill="url(#paint7_linear_1_66603)"/>
</g>
<g clip-path="url(#clip13_1_66603)">
<path d="M1879 2323.6L1946.24 2354.82L1850.53 2298.08L1897.1 2366.51L1881.73 2422.48L1928.04 2380.96L1891.54 2403.6L1910.47 2367.11L1879 2323.6Z" fill="url(#paint8_linear_1_66603)"/>
</g>
<g clip-path="url(#clip14_1_66603)">
<path d="M29.0695 1595.53L32.6718 1608.72L47.413 1625.29L-26.7857 1632.32L47.0296 1671.99L36.7271 1658.72L11.3161 1639.91L72.3989 1636.55L29.0695 1595.53Z" fill="url(#paint9_linear_1_66603)"/>
</g>
<g clip-path="url(#clip15_1_66603)">
<path opacity="0.5" d="M1671.03 2933.81L1646.93 2890L1621.03 2932.78L1671.03 2933.81Z" fill="url(#paint10_linear_1_66603)"/>
</g>
<g clip-path="url(#clip16_1_66603)">
<path opacity="0.5" d="M1418.54 2916.96L1427.78 2952.13L1453.62 2926.55L1418.54 2916.96Z" fill="url(#paint11_linear_1_66603)"/>
</g>
<g clip-path="url(#clip17_1_66603)">
<path opacity="0.62" d="M117.012 2603.61L136.922 2592.88L117.682 2581L117.012 2603.61Z" fill="#892890"/>
</g>
<g clip-path="url(#clip18_1_66603)">
<path opacity="0.62" d="M1807.02 2663.6L1826.93 2652.87L1807.69 2640.99L1807.02 2663.6Z" fill="#892890"/>
</g>
<g clip-path="url(#clip19_1_66603)">
<path opacity="0.62" d="M55.9961 1787.61L75.9061 1776.88L56.6661 1765L55.9961 1787.61Z" fill="#892890"/>
</g>
<g clip-path="url(#clip20_1_66603)">
<path d="M128.721 2702.29L19.794 2812.38L198.498 2664.91L33.0724 2705.89L-63.3331 2633.15L-17.2172 2756.49L-34.1616 2666.87L22.1819 2732L128.721 2702.29Z" fill="url(#paint12_linear_1_66603)"/>
<path d="M156.276 2921.32L17.9563 2851.65L213.376 2976.18L123.256 2831.4L162.571 2717.18L59.626 2799.16L139.554 2755.36L95.0867 2829.09L156.276 2921.32Z" fill="url(#paint13_linear_1_66603)"/>
<path d="M-43.357 3015.17L-19.8968 2862.01L-77.8452 3086.45L31.904 2955.99L152.608 2958.16L42.8632 2885.48L109.208 2948.03L25.3755 2928.47L-43.357 3015.17Z" fill="#094977"/>
</g>
</g>
</g>
<defs>
<linearGradient id="paint0_linear_1_66603" x1="18.1463" y1="1076.1" x2="109.417" y2="1089.83" gradientUnits="userSpaceOnUse">
<stop stop-color="#15498D"/>
<stop offset="1" stop-color="#44C8F5"/>
</linearGradient>
<linearGradient id="paint1_linear_1_66603" x1="18.1463" y1="1076.11" x2="109.417" y2="1089.83" gradientUnits="userSpaceOnUse">
<stop stop-color="#15498D"/>
<stop offset="1" stop-color="#44C8F5"/>
</linearGradient>
<linearGradient id="paint2_linear_1_66603" x1="1908.63" y1="1421.67" x2="1816.43" y2="1425.78" gradientUnits="userSpaceOnUse">
<stop stop-color="#15498D"/>
<stop offset="1" stop-color="#44C8F5"/>
</linearGradient>
<linearGradient id="paint3_linear_1_66603" x1="-25.0894" y1="713.406" x2="71.2041" y2="698.7" gradientUnits="userSpaceOnUse">
<stop stop-color="white"/>
<stop offset="0.63" stop-color="#62A8CA"/>
<stop offset="1" stop-color="#528AB8"/>
</linearGradient>
<linearGradient id="paint4_linear_1_66603" x1="1621.69" y1="703.884" x2="1659.62" y2="681.528" gradientUnits="userSpaceOnUse">
<stop stop-color="#15498D"/>
<stop offset="1" stop-color="#44C8F5"/>
</linearGradient>
<linearGradient id="paint5_linear_1_66603" x1="1453.36" y1="695.657" x2="1422.65" y2="704.701" gradientUnits="userSpaceOnUse">
<stop stop-color="#15498D"/>
<stop offset="1" stop-color="#44C8F5"/>
</linearGradient>
<linearGradient id="paint6_linear_1_66603" x1="18.1423" y1="2006.1" x2="109.413" y2="2019.83" gradientUnits="userSpaceOnUse">
<stop stop-color="#15498D"/>
<stop offset="1" stop-color="#44C8F5"/>
</linearGradient>
<linearGradient id="paint7_linear_1_66603" x1="18.1423" y1="2006.1" x2="109.413" y2="2019.83" gradientUnits="userSpaceOnUse">
<stop stop-color="#15498D"/>
<stop offset="1" stop-color="#44C8F5"/>
</linearGradient>
<linearGradient id="paint8_linear_1_66603" x1="1908.65" y1="2351.67" x2="1816.45" y2="2355.78" gradientUnits="userSpaceOnUse">
<stop stop-color="#15498D"/>
<stop offset="1" stop-color="#44C8F5"/>
</linearGradient>
<linearGradient id="paint9_linear_1_66603" x1="-25.0933" y1="1643.41" x2="71.2002" y2="1628.7" gradientUnits="userSpaceOnUse">
<stop stop-color="white"/>
<stop offset="0.63" stop-color="#62A8CA"/>
<stop offset="1" stop-color="#528AB8"/>
</linearGradient>
<linearGradient id="paint10_linear_1_66603" x1="1621.68" y1="2933.88" x2="1659.62" y2="2911.53" gradientUnits="userSpaceOnUse">
<stop stop-color="#15498D"/>
<stop offset="1" stop-color="#44C8F5"/>
</linearGradient>
<linearGradient id="paint11_linear_1_66603" x1="1453.35" y1="2925.66" x2="1422.65" y2="2934.7" gradientUnits="userSpaceOnUse">
<stop stop-color="#15498D"/>
<stop offset="1" stop-color="#44C8F5"/>
</linearGradient>
<linearGradient id="paint12_linear_1_66603" x1="-62.596" y1="2723.16" x2="199.02" y2="2721.49" gradientUnits="userSpaceOnUse">
<stop stop-color="#184A8C"/>
<stop offset="1" stop-color="#48C7F4"/>
</linearGradient>
<linearGradient id="paint13_linear_1_66603" x1="18.07" y1="2847.89" x2="212.685" y2="2846.65" gradientUnits="userSpaceOnUse">
<stop stop-color="#184A8C"/>
<stop offset="1" stop-color="#48C7F4"/>
</linearGradient>
<clipPath id="clip0_1_66603">
<rect width="1920" height="3213" fill="white"/>
</clipPath>
<clipPath id="clip1_1_66603">
<rect width="111.85" height="92.9" fill="white" transform="translate(50.3555 1003) rotate(48.293)"/>
</clipPath>
<clipPath id="clip2_1_66603">
<rect width="111.85" height="92.9" fill="white" transform="translate(50.3555 1003) rotate(48.293)"/>
</clipPath>
<clipPath id="clip3_1_66603">
<rect width="111.85" height="92.9" fill="white" transform="translate(1891.11 1499.61) rotate(-142.812)"/>
</clipPath>
<clipPath id="clip4_1_66603">
<rect width="97.41" height="78.3" fill="white" transform="translate(-31 674.705) rotate(-8.68335)"/>
</clipPath>
<clipPath id="clip5_1_66603">
<rect width="117.02" height="86.16" fill="white" transform="translate(1745 865.041) rotate(-61.7082)"/>
</clipPath>
<clipPath id="clip6_1_66603">
<rect width="44.03" height="49.98" fill="white" transform="translate(1609 682.355) rotate(-30.5143)"/>
</clipPath>
<clipPath id="clip7_1_66603">
<rect width="32.01" height="36.35" fill="white" transform="translate(1458.49 713.087) rotate(163.588)"/>
</clipPath>
<clipPath id="clip8_1_66603">
<rect width="19.91" height="22.61" fill="white" transform="translate(117 1841)"/>
</clipPath>
<clipPath id="clip9_1_66603">
<rect width="19.91" height="22.61" fill="white" transform="translate(1807 1711)"/>
</clipPath>
<clipPath id="clip10_1_66603">
<rect width="19.91" height="22.61" fill="white" transform="translate(56 834.999)"/>
</clipPath>
<clipPath id="clip11_1_66603">
<rect width="111.85" height="92.9" fill="white" transform="translate(50.3516 1933) rotate(48.293)"/>
</clipPath>
<clipPath id="clip12_1_66603">
<rect width="111.85" height="92.9" fill="white" transform="translate(50.3516 1933) rotate(48.293)"/>
</clipPath>
<clipPath id="clip13_1_66603">
<rect width="111.85" height="92.9" fill="white" transform="translate(1891.13 2429.61) rotate(-142.812)"/>
</clipPath>
<clipPath id="clip14_1_66603">
<rect width="97.41" height="78.3" fill="white" transform="translate(-31.0039 1604.7) rotate(-8.68335)"/>
</clipPath>
<clipPath id="clip15_1_66603">
<rect width="44.03" height="49.98" fill="white" transform="translate(1609 2912.35) rotate(-30.5143)"/>
</clipPath>
<clipPath id="clip16_1_66603">
<rect width="32.01" height="36.35" fill="white" transform="translate(1458.49 2943.09) rotate(163.588)"/>
</clipPath>
<clipPath id="clip17_1_66603">
<rect width="19.91" height="22.61" fill="white" transform="translate(117.012 2581)"/>
</clipPath>
<clipPath id="clip18_1_66603">
<rect width="19.91" height="22.61" fill="white" transform="translate(1807.02 2640.99)"/>
</clipPath>
<clipPath id="clip19_1_66603">
<rect width="19.91" height="22.61" fill="white" transform="translate(55.9961 1765)"/>
</clipPath>
<clipPath id="clip20_1_66603">
<rect width="500.2" height="495.008" fill="white" transform="translate(175.465 2534) rotate(80.021)"/>
</clipPath>
</defs>
</svg>
