<svg width="1927" height="5893" viewBox="0 0 1927 5893" fill="none" xmlns="http://www.w3.org/2000/svg">
<g clip-path="url(#clip0_500_12321)">
<path d="M60.8343 487.367L0.86524 443.779L83.8605 517.894L51.3394 441.768L77.2063 389.809L23.7632 421.631L63.9461 406.449L38.3404 438.604L60.8343 487.367Z" fill="url(#paint0_linear_500_12321)"/>
</g>
<g clip-path="url(#clip1_500_12321)">
<path d="M1857.98 801.598L1925.22 832.819L1829.51 776.077L1876.08 844.515L1860.71 900.482L1907.02 858.963L1870.51 881.601L1889.45 845.115L1857.98 801.598Z" fill="url(#paint1_linear_500_12321)"/>
</g>
<g clip-path="url(#clip2_500_12321)">
<path d="M118.073 43.525L121.676 56.7124L136.417 73.2868L62.2182 80.3195L136.033 119.99L125.731 106.713L100.32 87.904L161.403 84.5436L118.073 43.525Z" fill="url(#paint2_linear_500_12321)"/>
</g>
<g clip-path="url(#clip3_500_12321)">
<path d="M578.073 1643.52L581.676 1656.71L596.417 1673.29L522.218 1680.32L596.033 1719.99L585.731 1706.71L560.32 1687.9L621.403 1684.54L578.073 1643.52Z" fill="url(#paint3_linear_500_12321)"/>
</g>
<g clip-path="url(#clip4_500_12321)">
<path opacity="0.5" d="M1838.03 163.81L1813.93 120.001L1788.04 162.784L1838.03 163.81Z" fill="url(#paint4_linear_500_12321)"/>
</g>
<g clip-path="url(#clip5_500_12321)">
<path opacity="0.5" d="M1467.54 38.962L1476.79 74.1333L1502.62 48.5518L1467.54 38.962Z" fill="url(#paint5_linear_500_12321)"/>
</g>
<g clip-path="url(#clip6_500_12321)">
<path opacity="0.62" d="M1722 45.61L1741.91 34.88L1722.67 23L1722 45.61Z" fill="#892890"/>
</g>
<g clip-path="url(#clip7_500_12321)">
<path opacity="0.5" d="M1467.54 1648.96L1476.79 1684.13L1502.62 1658.55L1467.54 1648.96Z" fill="url(#paint6_linear_500_12321)"/>
</g>
<g clip-path="url(#clip8_500_12321)">
<path opacity="0.62" d="M1722 1655.61L1741.91 1644.88L1722.67 1633L1722 1655.61Z" fill="#892890"/>
</g>
<g clip-path="url(#clip9_500_12321)">
<path opacity="0.62" d="M66 1041.61L85.91 1030.88L66.67 1019L66 1041.61Z" fill="#892890"/>
</g>
<g clip-path="url(#clip10_500_12321)">
<path opacity="0.5" d="M697.962 710.631L732.067 674.066L683.342 662.81L697.962 710.631Z" fill="url(#paint7_linear_500_12321)"/>
</g>
<g clip-path="url(#clip11_500_12321)">
<path opacity="0.62" d="M405 95.6095L424.91 84.8795L405.67 72.9995L405 95.6095Z" fill="#892890"/>
</g>
<g clip-path="url(#clip12_500_12321)">
<path opacity="0.62" d="M366 794.61L385.91 783.88L366.67 772L366 794.61Z" fill="#892890"/>
</g>
<g clip-path="url(#clip13_500_12321)">
<path d="M60.8343 3287.37L0.86524 3243.78L83.8605 3317.89L51.3394 3241.77L77.2063 3189.81L23.7632 3221.63L63.9461 3206.45L38.3404 3238.6L60.8343 3287.37Z" fill="url(#paint8_linear_500_12321)"/>
</g>
<g clip-path="url(#clip14_500_12321)">
<path d="M1857.98 3601.6L1925.22 3632.82L1829.51 3576.08L1876.08 3644.51L1860.71 3700.48L1907.02 3658.96L1870.51 3681.6L1889.45 3645.11L1857.98 3601.6Z" fill="url(#paint9_linear_500_12321)"/>
</g>
<g clip-path="url(#clip15_500_12321)">
<path d="M118.073 2843.52L121.676 2856.71L136.417 2873.29L62.2182 2880.32L136.033 2919.99L125.731 2906.71L100.32 2887.9L161.403 2884.54L118.073 2843.52Z" fill="url(#paint10_linear_500_12321)"/>
</g>
<g clip-path="url(#clip16_500_12321)">
<path opacity="0.5" d="M1838.03 2963.81L1813.93 2920L1788.04 2962.78L1838.03 2963.81Z" fill="url(#paint11_linear_500_12321)"/>
</g>
<g clip-path="url(#clip17_500_12321)">
<path opacity="0.5" d="M708.026 2824.74L717.27 2859.91L743.104 2834.33L708.026 2824.74Z" fill="url(#paint12_linear_500_12321)"/>
</g>
<g clip-path="url(#clip18_500_12321)">
<path opacity="0.62" d="M1722 2845.61L1741.91 2834.88L1722.67 2823L1722 2845.61Z" fill="#892890"/>
</g>
<g clip-path="url(#clip19_500_12321)">
<path opacity="0.5" d="M1467.54 4118.96L1476.79 4154.13L1502.62 4128.55L1467.54 4118.96Z" fill="url(#paint13_linear_500_12321)"/>
</g>
<g clip-path="url(#clip20_500_12321)">
<path opacity="0.62" d="M1722 4125.61L1741.91 4114.88L1722.67 4103L1722 4125.61Z" fill="#892890"/>
</g>
<g clip-path="url(#clip21_500_12321)">
<path opacity="0.62" d="M66 3841.61L85.91 3830.88L66.67 3819L66 3841.61Z" fill="#892890"/>
</g>
<g clip-path="url(#clip22_500_12321)">
<path opacity="0.5" d="M697.962 3440.63L732.067 3404.07L683.342 3392.81L697.962 3440.63Z" fill="url(#paint14_linear_500_12321)"/>
</g>
<g clip-path="url(#clip23_500_12321)">
<path opacity="0.62" d="M405 2895.61L424.91 2884.88L405.67 2873L405 2895.61Z" fill="#892890"/>
</g>
<g clip-path="url(#clip24_500_12321)">
<path opacity="0.62" d="M366 3594.61L385.91 3583.88L366.67 3572L366 3594.61Z" fill="#892890"/>
</g>
<g clip-path="url(#clip25_500_12321)">
<path d="M424.073 4034.53L427.676 4047.72L442.417 4064.29L368.218 4071.33L442.033 4111L431.731 4097.72L406.32 4078.91L467.403 4075.55L424.073 4034.53Z" fill="url(#paint15_linear_500_12321)"/>
</g>
<g clip-path="url(#clip26_500_12321)">
<path d="M60.8641 5562.38L0.895026 5518.8L83.8903 5592.91L51.3692 5516.79L77.236 5464.83L23.793 5496.65L63.9759 5481.47L38.3702 5513.62L60.8641 5562.38Z" fill="url(#paint16_linear_500_12321)"/>
</g>
<g clip-path="url(#clip27_500_12321)">
<path d="M1858 5786.62L1925.24 5817.85L1829.53 5761.1L1876.1 5829.54L1860.73 5885.51L1907.04 5843.99L1870.53 5866.63L1889.47 5830.14L1858 5786.62Z" fill="url(#paint17_linear_500_12321)"/>
</g>
<g clip-path="url(#clip28_500_12321)">
<path d="M118.103 5118.55L121.705 5131.73L136.446 5148.31L62.2475 5155.34L136.063 5195.01L125.76 5181.73L100.349 5162.92L161.432 5159.56L118.103 5118.55Z" fill="url(#paint18_linear_500_12321)"/>
</g>
<g clip-path="url(#clip29_500_12321)">
<path opacity="0.5" d="M1838.06 5478.82L1813.95 5435.01L1788.06 5477.8L1838.06 5478.82Z" fill="url(#paint19_linear_500_12321)"/>
</g>
<g clip-path="url(#clip30_500_12321)">
<path opacity="0.5" d="M918.059 5149.75L927.303 5184.92L953.138 5159.34L918.059 5149.75Z" fill="url(#paint20_linear_500_12321)"/>
</g>
<g clip-path="url(#clip31_500_12321)">
<path opacity="0.62" d="M1722.02 5220.63L1741.93 5209.9L1722.69 5198.02L1722.02 5220.63Z" fill="#892890"/>
</g>
<g clip-path="url(#clip32_500_12321)">
<path opacity="0.62" d="M66.0239 5736.62L85.9339 5725.89L66.6939 5714.01L66.0239 5736.62Z" fill="#892890"/>
</g>
<g clip-path="url(#clip33_500_12321)">
<path opacity="0.5" d="M887.995 5715.66L922.1 5679.09L873.375 5667.84L887.995 5715.66Z" fill="url(#paint21_linear_500_12321)"/>
</g>
<g clip-path="url(#clip34_500_12321)">
<path opacity="0.62" d="M366.027 5869.64L385.937 5858.91L366.697 5847.03L366.027 5869.64Z" fill="#892890"/>
</g>
<defs>
<linearGradient id="paint0_linear_500_12321" x1="37.1463" y1="454.106" x2="128.417" y2="467.833" gradientUnits="userSpaceOnUse">
<stop stop-color="#15498D"/>
<stop offset="1" stop-color="#44C8F5"/>
</linearGradient>
<linearGradient id="paint1_linear_500_12321" x1="1887.63" y1="829.673" x2="1795.43" y2="833.783" gradientUnits="userSpaceOnUse">
<stop stop-color="#15498D"/>
<stop offset="1" stop-color="#44C8F5"/>
</linearGradient>
<linearGradient id="paint2_linear_500_12321" x1="63.9106" y1="91.401" x2="160.204" y2="76.6946" gradientUnits="userSpaceOnUse">
<stop stop-color="white"/>
<stop offset="0.63" stop-color="#62A8CA"/>
<stop offset="1" stop-color="#528AB8"/>
</linearGradient>
<linearGradient id="paint3_linear_500_12321" x1="523.911" y1="1691.4" x2="620.204" y2="1676.69" gradientUnits="userSpaceOnUse">
<stop stop-color="white"/>
<stop offset="0.63" stop-color="#62A8CA"/>
<stop offset="1" stop-color="#528AB8"/>
</linearGradient>
<linearGradient id="paint4_linear_500_12321" x1="1788.69" y1="163.886" x2="1826.62" y2="141.53" gradientUnits="userSpaceOnUse">
<stop stop-color="#15498D"/>
<stop offset="1" stop-color="#44C8F5"/>
</linearGradient>
<linearGradient id="paint5_linear_500_12321" x1="1502.36" y1="47.6597" x2="1471.65" y2="56.7036" gradientUnits="userSpaceOnUse">
<stop stop-color="#15498D"/>
<stop offset="1" stop-color="#44C8F5"/>
</linearGradient>
<linearGradient id="paint6_linear_500_12321" x1="1502.36" y1="1657.66" x2="1471.65" y2="1666.7" gradientUnits="userSpaceOnUse">
<stop stop-color="#15498D"/>
<stop offset="1" stop-color="#44C8F5"/>
</linearGradient>
<linearGradient id="paint7_linear_500_12321" x1="682.497" y1="663.771" x2="715.57" y2="692.837" gradientUnits="userSpaceOnUse">
<stop stop-color="#15498D"/>
<stop offset="1" stop-color="#44C8F5"/>
</linearGradient>
<linearGradient id="paint8_linear_500_12321" x1="37.1463" y1="3254.11" x2="128.417" y2="3267.83" gradientUnits="userSpaceOnUse">
<stop stop-color="#15498D"/>
<stop offset="1" stop-color="#44C8F5"/>
</linearGradient>
<linearGradient id="paint9_linear_500_12321" x1="1887.63" y1="3629.67" x2="1795.43" y2="3633.78" gradientUnits="userSpaceOnUse">
<stop stop-color="#15498D"/>
<stop offset="1" stop-color="#44C8F5"/>
</linearGradient>
<linearGradient id="paint10_linear_500_12321" x1="63.9106" y1="2891.4" x2="160.204" y2="2876.69" gradientUnits="userSpaceOnUse">
<stop stop-color="white"/>
<stop offset="0.63" stop-color="#62A8CA"/>
<stop offset="1" stop-color="#528AB8"/>
</linearGradient>
<linearGradient id="paint11_linear_500_12321" x1="1788.69" y1="2963.89" x2="1826.62" y2="2941.53" gradientUnits="userSpaceOnUse">
<stop stop-color="#15498D"/>
<stop offset="1" stop-color="#44C8F5"/>
</linearGradient>
<linearGradient id="paint12_linear_500_12321" x1="742.842" y1="2833.44" x2="712.136" y2="2842.48" gradientUnits="userSpaceOnUse">
<stop stop-color="#15498D"/>
<stop offset="1" stop-color="#44C8F5"/>
</linearGradient>
<linearGradient id="paint13_linear_500_12321" x1="1502.36" y1="4127.66" x2="1471.65" y2="4136.7" gradientUnits="userSpaceOnUse">
<stop stop-color="#15498D"/>
<stop offset="1" stop-color="#44C8F5"/>
</linearGradient>
<linearGradient id="paint14_linear_500_12321" x1="682.497" y1="3393.77" x2="715.57" y2="3422.84" gradientUnits="userSpaceOnUse">
<stop stop-color="#15498D"/>
<stop offset="1" stop-color="#44C8F5"/>
</linearGradient>
<linearGradient id="paint15_linear_500_12321" x1="369.911" y1="4082.41" x2="466.204" y2="4067.7" gradientUnits="userSpaceOnUse">
<stop stop-color="white"/>
<stop offset="0.63" stop-color="#62A8CA"/>
<stop offset="1" stop-color="#528AB8"/>
</linearGradient>
<linearGradient id="paint16_linear_500_12321" x1="37.176" y1="5529.12" x2="128.446" y2="5542.85" gradientUnits="userSpaceOnUse">
<stop stop-color="#15498D"/>
<stop offset="1" stop-color="#44C8F5"/>
</linearGradient>
<linearGradient id="paint17_linear_500_12321" x1="1887.65" y1="5814.7" x2="1795.45" y2="5818.81" gradientUnits="userSpaceOnUse">
<stop stop-color="#15498D"/>
<stop offset="1" stop-color="#44C8F5"/>
</linearGradient>
<linearGradient id="paint18_linear_500_12321" x1="63.9399" y1="5166.42" x2="160.233" y2="5151.71" gradientUnits="userSpaceOnUse">
<stop stop-color="white"/>
<stop offset="0.63" stop-color="#62A8CA"/>
<stop offset="1" stop-color="#528AB8"/>
</linearGradient>
<linearGradient id="paint19_linear_500_12321" x1="1788.71" y1="5478.9" x2="1826.64" y2="5456.54" gradientUnits="userSpaceOnUse">
<stop stop-color="#15498D"/>
<stop offset="1" stop-color="#44C8F5"/>
</linearGradient>
<linearGradient id="paint20_linear_500_12321" x1="952.875" y1="5158.45" x2="922.169" y2="5167.49" gradientUnits="userSpaceOnUse">
<stop stop-color="#15498D"/>
<stop offset="1" stop-color="#44C8F5"/>
</linearGradient>
<linearGradient id="paint21_linear_500_12321" x1="872.53" y1="5668.8" x2="905.603" y2="5697.86" gradientUnits="userSpaceOnUse">
<stop stop-color="#15498D"/>
<stop offset="1" stop-color="#44C8F5"/>
</linearGradient>
<clipPath id="clip0_500_12321">
<rect width="111.85" height="92.9" fill="white" transform="translate(69.3555 381) rotate(48.293)"/>
</clipPath>
<clipPath id="clip1_500_12321">
<rect width="111.85" height="92.9" fill="white" transform="translate(1870.11 907.615) rotate(-142.812)"/>
</clipPath>
<clipPath id="clip2_500_12321">
<rect width="97.41" height="78.3" fill="white" transform="translate(58 52.6997) rotate(-8.68335)"/>
</clipPath>
<clipPath id="clip3_500_12321">
<rect width="97.41" height="78.3" fill="white" transform="translate(518 1652.7) rotate(-8.68335)"/>
</clipPath>
<clipPath id="clip4_500_12321">
<rect width="44.03" height="49.98" fill="white" transform="translate(1776 142.357) rotate(-30.5143)"/>
</clipPath>
<clipPath id="clip5_500_12321">
<rect width="32.01" height="36.35" fill="white" transform="translate(1507.49 65.0894) rotate(163.588)"/>
</clipPath>
<clipPath id="clip6_500_12321">
<rect width="19.91" height="22.61" fill="white" transform="translate(1722 23)"/>
</clipPath>
<clipPath id="clip7_500_12321">
<rect width="32.01" height="36.35" fill="white" transform="translate(1507.49 1675.09) rotate(163.588)"/>
</clipPath>
<clipPath id="clip8_500_12321">
<rect width="19.91" height="22.61" fill="white" transform="translate(1722 1633)"/>
</clipPath>
<clipPath id="clip9_500_12321">
<rect width="19.91" height="22.61" fill="white" transform="translate(66 1019)"/>
</clipPath>
<clipPath id="clip10_500_12321">
<rect width="44.03" height="49.98" fill="white" transform="translate(698.993 645) rotate(41.3098)"/>
</clipPath>
<clipPath id="clip11_500_12321">
<rect width="19.91" height="22.61" fill="white" transform="translate(405 72.9995)"/>
</clipPath>
<clipPath id="clip12_500_12321">
<rect width="19.91" height="22.61" fill="white" transform="translate(366 772)"/>
</clipPath>
<clipPath id="clip13_500_12321">
<rect width="111.85" height="92.9" fill="white" transform="translate(69.3555 3181) rotate(48.293)"/>
</clipPath>
<clipPath id="clip14_500_12321">
<rect width="111.85" height="92.9" fill="white" transform="translate(1870.11 3707.61) rotate(-142.812)"/>
</clipPath>
<clipPath id="clip15_500_12321">
<rect width="97.41" height="78.3" fill="white" transform="translate(58 2852.7) rotate(-8.68335)"/>
</clipPath>
<clipPath id="clip16_500_12321">
<rect width="44.03" height="49.98" fill="white" transform="translate(1776 2942.36) rotate(-30.5143)"/>
</clipPath>
<clipPath id="clip17_500_12321">
<rect width="32.01" height="36.35" fill="white" transform="translate(747.975 2850.87) rotate(163.588)"/>
</clipPath>
<clipPath id="clip18_500_12321">
<rect width="19.91" height="22.61" fill="white" transform="translate(1722 2823)"/>
</clipPath>
<clipPath id="clip19_500_12321">
<rect width="32.01" height="36.35" fill="white" transform="translate(1507.49 4145.09) rotate(163.588)"/>
</clipPath>
<clipPath id="clip20_500_12321">
<rect width="19.91" height="22.61" fill="white" transform="translate(1722 4103)"/>
</clipPath>
<clipPath id="clip21_500_12321">
<rect width="19.91" height="22.61" fill="white" transform="translate(66 3819)"/>
</clipPath>
<clipPath id="clip22_500_12321">
<rect width="44.03" height="49.98" fill="white" transform="translate(698.993 3375) rotate(41.3098)"/>
</clipPath>
<clipPath id="clip23_500_12321">
<rect width="19.91" height="22.61" fill="white" transform="translate(405 2873)"/>
</clipPath>
<clipPath id="clip24_500_12321">
<rect width="19.91" height="22.61" fill="white" transform="translate(366 3572)"/>
</clipPath>
<clipPath id="clip25_500_12321">
<rect width="97.41" height="78.3" fill="white" transform="translate(364 4043.71) rotate(-8.68335)"/>
</clipPath>
<clipPath id="clip26_500_12321">
<rect width="111.85" height="92.9" fill="white" transform="translate(69.3853 5456.02) rotate(48.293)"/>
</clipPath>
<clipPath id="clip27_500_12321">
<rect width="111.85" height="92.9" fill="white" transform="translate(1870.13 5892.64) rotate(-142.812)"/>
</clipPath>
<clipPath id="clip28_500_12321">
<rect width="97.41" height="78.3" fill="white" transform="translate(58.0293 5127.72) rotate(-8.68335)"/>
</clipPath>
<clipPath id="clip29_500_12321">
<rect width="44.03" height="49.98" fill="white" transform="translate(1776.02 5457.37) rotate(-30.5143)"/>
</clipPath>
<clipPath id="clip30_500_12321">
<rect width="32.01" height="36.35" fill="white" transform="translate(958.009 5175.88) rotate(163.588)"/>
</clipPath>
<clipPath id="clip31_500_12321">
<rect width="19.91" height="22.61" fill="white" transform="translate(1722.02 5198.02)"/>
</clipPath>
<clipPath id="clip32_500_12321">
<rect width="19.91" height="22.61" fill="white" transform="translate(66.0239 5714.01)"/>
</clipPath>
<clipPath id="clip33_500_12321">
<rect width="44.03" height="49.98" fill="white" transform="translate(889.027 5650.03) rotate(41.3098)"/>
</clipPath>
<clipPath id="clip34_500_12321">
<rect width="19.91" height="22.61" fill="white" transform="translate(366.027 5847.03)"/>
</clipPath>
</defs>
</svg>
