<svg width="1920" height="13909" xmlns="http://www.w3.org/2000/svg" transform="scale(1 1)" version="1.1">

 <g>
  <title>Layer 1</title>
  <path id="svg_2" fill="#6f9bc4" d="m67,2748c0.99,0.495 0.99,0.495 2,1c-5.89912,8.69679 -11.79964,17.39262 -17.70172,26.0874c-0.84341,1.2425 -1.6868,2.48501 -2.53015,3.72754c-1.90977,2.81363 -3.82013,5.62684 -5.73175,8.43921c-1.43025,2.10652 -2.85755,4.21506 -4.28174,6.32568c-2.87213,4.24638 -5.74522,8.46743 -8.84839,12.54908c-0.43812,0.5866 -0.87624,1.1732 -1.32764,1.77758c-1.08162,1.432 -2.1917,2.84239 -3.30517,4.24976c-3.08873,6.89752 0.70015,16.0142 2.70312,22.93359c0.28951,1.02574 0.57901,2.05148 0.87729,3.1083c0.91699,3.2484 1.84291,6.49415 2.77115,9.73936c1.2295,4.29852 2.44972,8.59952 3.66406,12.90234c0.42958,1.48427 0.42958,1.48427 0.86783,2.99852c0.25712,0.91178 0.51424,1.82355 0.77915,2.76296c0.23014,0.80336 0.46029,1.60672 0.69741,2.43443c0.36655,1.96425 0.36655,1.96425 -0.63345,3.96425c-1.45833,-1.3125 -2.91667,-2.625 -4.375,-3.9375c-0.91266,-0.82113 -1.82531,-1.64227 -2.76563,-2.48828c-1.82396,-1.64207 -3.64698,-3.28519 -5.46875,-4.92969c-2.45974,-2.21912 -4.92357,-4.43354 -7.39062,-6.64453c-0.68965,-0.61875 -1.3793,-1.2375 -2.08984,-1.875c-0.65098,-0.5775 -1.30196,-1.155 -1.97266,-1.75c-0.59362,-0.53254 -1.18724,-1.06508 -1.79884,-1.61375c-2.09514,-1.80868 -2.09514,-1.80868 -4.46103,-3.18277c-3.62128,-2.30598 -6.2332,-4.05289 -7.46672,-8.28719c-0.25211,-3.29763 -0.22387,-6.48281 -0.08982,-9.78738c0.01911,-1.78303 0.01911,-1.78303 0.03859,-3.60207c0.05023,-3.78189 0.16312,-7.55891 0.27782,-11.33934c0.04516,-2.56959 0.08622,-5.13926 0.12305,-7.70898c0.09901,-6.28616 0.24944,-12.56949 0.43945,-18.85352c0.6708,-0.33134 1.3416,-0.66269 2.03273,-1.00407c0.8884,-0.44105 1.7768,-0.8821 2.69212,-1.33651c0.87705,-0.43447 1.75411,-0.86894 2.65773,-1.31657c3.96615,-2.03481 7.75445,-4.32959 11.55492,-6.65535c1.73518,-1.0516 3.47089,-2.10233 5.20703,-3.15234c0.93022,-0.56316 1.86044,-1.12632 2.81885,-1.70655c5.70142,-3.43332 11.43296,-6.81601 17.16162,-10.20361c2.2319,-1.32009 4.46368,-2.6404 6.69531,-3.96094c1.0406,-0.61327 2.08119,-1.22654 3.15332,-1.8584c2.00612,-1.19694 4.0006,-2.41363 5.98242,-3.65039c0.8988,-0.55913 1.7976,-1.11826 2.72364,-1.69433c1.18312,-0.74951 1.18312,-0.74951 2.39013,-1.51416c0.63696,-0.31244 1.27392,-0.62488 1.93018,-0.94678z"/>
  <path id="svg_3" fill="#6f9bc3" d="m67,5028c0.99,0.495 0.99,0.495 2,1c-16.51386,24.29674 -16.51386,24.29674 -22.90405,33.66479c-1.22787,1.80275 -2.45266,3.6076 -3.67432,5.41456c-3.02039,4.45755 -6.08991,8.86065 -9.28101,13.19799c-0.61262,0.84837 -1.22525,1.69673 -1.85644,2.5708c-1.15112,1.58995 -2.32117,3.16644 -3.51367,4.72559c-0.51208,0.7143 -1.02416,1.4286 -1.55176,2.16455c-0.45439,0.60884 -0.90879,1.21768 -1.37695,1.84497c-2.45411,7.04558 1.15429,15.66494 3.13476,22.50659c0.28951,1.02574 0.57901,2.05148 0.87729,3.1083c0.91699,3.2484 1.84291,6.49415 2.77115,9.73936c1.2295,4.29852 2.44972,8.59952 3.66406,12.90234c0.42958,1.48427 0.42958,1.48427 0.86783,2.99852c0.25712,0.91178 0.51424,1.82355 0.77915,2.76296c0.23014,0.80336 0.46029,1.60672 0.69741,2.43443c0.36655,1.96425 0.36655,1.96425 -0.63345,3.96425c-1.45833,-1.3125 -2.91667,-2.625 -4.375,-3.9375c-0.91266,-0.82113 -1.82531,-1.64227 -2.76563,-2.48828c-1.82396,-1.64207 -3.64698,-3.28519 -5.46875,-4.92969c-2.45974,-2.21912 -4.92357,-4.43354 -7.39062,-6.64453c-0.68965,-0.61875 -1.3793,-1.2375 -2.08984,-1.875c-0.65098,-0.5775 -1.30196,-1.155 -1.97266,-1.75c-0.59362,-0.53254 -1.18724,-1.06508 -1.79884,-1.61375c-2.09514,-1.80868 -2.09514,-1.80868 -4.46103,-3.18277c-3.62128,-2.30598 -6.2332,-4.05289 -7.46672,-8.28719c-0.25211,-3.29763 -0.22387,-6.48281 -0.08982,-9.78738c0.01911,-1.78303 0.01911,-1.78303 0.03859,-3.60207c0.05023,-3.78189 0.16312,-7.55891 0.27782,-11.33934c0.04516,-2.56959 0.08622,-5.13926 0.12305,-7.70898c0.09901,-6.28616 0.24944,-12.56949 0.43945,-18.85352c0.67284,-0.33257 1.34568,-0.66514 2.03891,-1.00778c0.88999,-0.442 1.77997,-0.884 2.69693,-1.33939c0.87909,-0.43569 1.75818,-0.87138 2.66391,-1.32028c3.85376,-1.97493 7.53388,-4.19739 11.22525,-6.45755c1.7221,-1.04388 3.44481,-2.08677 5.16797,-3.12891c0.96083,-0.58152 1.92167,-1.16305 2.91162,-1.7622c6.72467,-4.04835 13.4813,-8.04319 20.23291,-12.04639c2.10311,-1.24742 4.20615,-2.49494 6.30913,-3.74257c1.27285,-0.75508 2.54581,-1.51001 3.81888,-2.26474c2.6056,-1.54524 5.191,-3.09645 7.73356,-4.7444c1.08946,-0.58697 1.08946,-0.58697 2.20093,-1.18579z"/>
  <path id="svg_4" fill="#c89ccc" d="m1754,9611c10.49449,2.44941 20.7691,5.55919 31.07422,8.69141c1.8189,0.55146 3.63782,1.10289 5.45674,1.65428c3.7852,1.14841 7.5696,2.29943 11.35356,3.45192c4.858,1.47903 9.71896,2.94804 14.58068,4.41478c3.74436,1.13145 7.48659,2.2698 11.22826,3.41012c1.79306,0.54519 3.5869,1.0878 5.38153,1.62783c2.4938,0.75117 4.98447,1.51195 7.47457,2.27529c0.74431,0.22187 1.48863,0.44373 2.25549,0.67232c1.75081,0.54231 3.4765,1.1646 5.19495,1.80205c0.495,0.99 0.495,0.99 1,2c-3.79,1.19285 -7.58222,2.37851 -11.375,3.5625c-1.23541,0.38624 -2.47081,0.77247 -3.74365,1.17041c-8.92235,2.77722 -17.87131,5.45669 -26.83447,8.09912c-2.2743,0.67295 -4.54855,1.34605 -6.82276,2.01929c-3.42453,1.01367 -6.84989,2.02391 -10.2785,3.02371c-3.24747,0.9472 -6.49129,1.9061 -9.73468,2.86716c-0.98632,0.2841 -1.97263,0.5682 -2.98883,0.86091c-0.90813,0.27133 -1.81625,0.54265 -2.7519,0.82219c-1.19116,0.349 -1.19116,0.349 -2.4064,0.70505c-2.25271,0.94926 -3.47017,2.03974 -5.06381,3.86966c0.50918,0.23332 1.01836,0.46664 1.54297,0.70703c12.55897,6.60894 19.79342,13.84654 24.45703,27.29297c-5.14751,-1.76815 -9.62054,-4.63082 -14.25,-7.4375c-0.88607,-0.53424 -1.77214,-1.06847 -2.68506,-1.6189c-6.3218,-3.83278 -12.55312,-7.78845 -18.73169,-11.84741c-3.75618,-2.45952 -7.54298,-4.84631 -11.39184,-7.15869c-0.83516,-0.50201 -1.67031,-1.00402 -2.53077,-1.52124c-1.62147,-0.96952 -3.24669,-1.93281 -4.87597,-2.88916c-0.72429,-0.43304 -1.44859,-0.86609 -2.19483,-1.31226c-0.6459,-0.38035 -1.2918,-0.7607 -1.95727,-1.15258c-0.45625,-0.35055 -0.9125,-0.70109 -1.38257,-1.06226c0,-0.66 0,-1.32 0,-2c15.04152,-4.37839 30.14639,-8.45192 45.3125,-12.375c2.1205,-0.55055 4.24095,-1.10133 6.36133,-1.65234c5.10803,-1.32688 10.21679,-2.65096 15.32617,-3.97266c-0.78649,-0.3781 -1.57298,-0.7562 -2.3833,-1.14575c-2.9411,-1.41418 -5.88199,-2.82878 -8.82275,-4.24365c-1.26848,-0.6102 -2.53703,-1.22022 -3.80567,-1.83008c-1.83224,-0.88083 -3.66419,-1.76226 -5.49609,-2.6438c-1.09973,-0.52892 -2.19947,-1.05784 -3.33252,-1.60278c-1.04269,-0.5062 -2.08538,-1.0124 -3.15967,-1.53394c-1.05316,-0.50024 -2.10633,-1.00047 -3.19141,-1.51587c-2.45082,-1.29507 -4.23276,-2.48862 -6.23828,-4.36694c-0.56718,-0.52723 -1.13437,-1.05446 -1.71875,-1.59766c-0.56976,-0.54269 -1.13953,-1.08539 -1.72656,-1.64453c-0.88945,-0.82564 -0.88945,-0.82564 -1.79687,-1.66797c-1.46759,-1.37628 -2.90123,-2.7886 -4.32813,-4.20703c0,-0.33 0,-0.66 0,-1z"/>
  <path id="svg_7" fill="#74add2" d="m1846,12705c0.99,0.495 0.99,0.495 2,1c-0.32593,1.14215 -0.32593,1.14215 -0.65845,2.30737c-0.97952,3.45691 -1.94193,6.91835 -2.90405,10.38013c-0.34225,1.19818 -0.68449,2.39637 -1.03711,3.63086c-0.31904,1.15693 -0.63809,2.31387 -0.9668,3.50586c-0.29849,1.06307 -0.59699,2.12615 -0.90454,3.22143c-0.55924,3.12291 -0.58712,4.97129 0.47095,7.95435c1.55373,1.67088 1.55373,1.67088 3.60547,2.9375c0.7367,0.50273 1.4734,1.00547 2.23242,1.52344c0.77537,0.50789 1.55074,1.01578 2.34961,1.53906c1.51596,1.0184 3.03031,2.0392 4.54297,3.0625c0.72494,0.48984 1.44987,0.97969 2.19678,1.48438c2.85199,1.99941 5.47491,4.13288 8.07275,6.45312c0,0.33 0,0.66 0,1c-0.89832,0.05011 -1.79663,0.10022 -2.72217,0.15186c-3.32897,0.19014 -6.65722,0.3886 -9.98535,0.59277c-1.44121,0.08669 -2.88262,0.17004 -4.32422,0.25c-2.07078,0.11544 -4.14052,0.24281 -6.21045,0.37256c-1.24636,0.07331 -2.49272,0.14663 -3.77685,0.22217c-3.09333,0.12034 -3.09333,0.12034 -4.98096,2.41064c-0.78284,2.01099 -1.49316,4.05051 -2.16406,6.10156c-0.39961,1.21172 -0.79922,2.42344 -1.21094,3.67188c-0.4168,1.28381 -0.83346,2.56766 -1.25,3.85156c-0.42393,1.29185 -0.8484,2.58352 -1.27344,3.875c-1.03923,3.16495 -2.07283,6.33162 -3.10156,9.5c-2.89647,-2.46863 -3.95221,-4.93188 -5.26172,-8.47266c-0.39639,-1.06412 -0.79277,-2.12824 -1.20117,-3.22461c-0.40412,-1.11052 -0.80824,-2.22105 -1.22461,-3.36523c-0.41572,-1.11439 -0.83145,-2.22879 -1.25977,-3.37695c-3.05273,-8.26595 -3.05273,-8.26595 -3.05273,-10.56055c-10.56,0 -21.12,0 -32,0c7.25029,-7.25029 14.82491,-13.81553 23,-20c-1.462,-7.15312 -3.55857,-13.83755 -6.05273,-20.68945c-0.26491,-0.75862 -0.52981,-1.51723 -0.80274,-2.29883c-0.24387,-0.67587 -0.48775,-1.35174 -0.73901,-2.0481c-0.47468,-2.2985 -0.12746,-3.75402 0.59448,-5.96362c0.70608,0.48992 1.41217,0.97985 2.13965,1.48462c2.62468,1.81229 5.25681,3.61301 7.89453,5.40625c1.13984,0.77833 2.2766,1.56118 3.41016,2.34863c1.63016,1.13127 3.27247,2.24497 4.91503,3.35816c1.47679,1.01332 1.47679,1.01332 2.9834,2.04712c2.46899,1.53506 2.46899,1.53506 4.73218,1.26098c2.35042,-1.1059 4.28889,-2.43305 6.36646,-3.9956c0.8308,-0.6194 1.6616,-1.23879 2.51757,-1.87696c0.85916,-0.65033 1.71832,-1.30066 2.60352,-1.9707c1.70931,-1.28039 3.41893,-2.56035 5.12891,-3.83984c0.75482,-0.56969 1.50965,-1.13937 2.28735,-1.72632c1.63922,-1.21353 3.32425,-2.36501 5.02124,-3.49634z"/>
  <path id="svg_8" fill="#74add2" d="m1733,11261c0.99,0.495 0.99,0.495 2,1c-0.32593,1.14215 -0.32593,1.14215 -0.65845,2.30737c-0.97952,3.45691 -1.94193,6.91835 -2.90405,10.38013c-0.34225,1.19818 -0.68449,2.39637 -1.03711,3.63086c-0.31904,1.15693 -0.63809,2.31387 -0.9668,3.50586c-0.29849,1.06307 -0.59699,2.12615 -0.90454,3.22143c-0.55924,3.12291 -0.58712,4.97129 0.47095,7.95435c1.55373,1.67088 1.55373,1.67088 3.60547,2.9375c0.7367,0.50273 1.4734,1.00547 2.23242,1.52344c0.77537,0.50789 1.55074,1.01578 2.34961,1.53906c1.51596,1.0184 3.03031,2.0392 4.54297,3.0625c0.72494,0.48984 1.44987,0.97969 2.19678,1.48438c2.85199,1.99941 5.47491,4.13288 8.07275,6.45312c0,0.33 0,0.66 0,1c-0.89832,0.05011 -1.79663,0.10022 -2.72217,0.15186c-3.32897,0.19014 -6.65722,0.3886 -9.98535,0.59277c-1.44121,0.08669 -2.88262,0.17004 -4.32422,0.25c-2.07078,0.11544 -4.14052,0.24281 -6.21045,0.37256c-1.24636,0.07331 -2.49272,0.14663 -3.77685,0.22217c-3.09333,0.12034 -3.09333,0.12034 -4.98096,2.41064c-0.78284,2.01099 -1.49316,4.05051 -2.16406,6.10156c-0.39961,1.21172 -0.79922,2.42344 -1.21094,3.67188c-0.4168,1.28381 -0.83346,2.56766 -1.25,3.85156c-0.42393,1.29185 -0.8484,2.58352 -1.27344,3.875c-1.03923,3.16495 -2.07283,6.33162 -3.10156,9.5c-2.89647,-2.46863 -3.95221,-4.93188 -5.26172,-8.47266c-0.39639,-1.06412 -0.79277,-2.12824 -1.20117,-3.22461c-0.40412,-1.11052 -0.80824,-2.22105 -1.22461,-3.36523c-0.41572,-1.11439 -0.83145,-2.22879 -1.25977,-3.37695c-3.05273,-8.26595 -3.05273,-8.26595 -3.05273,-10.56055c-10.56,0 -21.12,0 -32,0c7.25029,-7.25029 14.82491,-13.81553 23,-20c-1.462,-7.15312 -3.55857,-13.83755 -6.05273,-20.68945c-0.26491,-0.75862 -0.52981,-1.51723 -0.80274,-2.29883c-0.24387,-0.67587 -0.48775,-1.35174 -0.73901,-2.0481c-0.47468,-2.2985 -0.12746,-3.75402 0.59448,-5.96362c0.70608,0.48992 1.41217,0.97985 2.13965,1.48462c2.62468,1.81229 5.25681,3.61301 7.89453,5.40625c1.13984,0.77833 2.2766,1.56118 3.41016,2.34863c1.63016,1.13127 3.27247,2.24497 4.91503,3.35816c1.47679,1.01332 1.47679,1.01332 2.9834,2.04712c2.46899,1.53506 2.46899,1.53506 4.73218,1.26098c2.35042,-1.1059 4.28889,-2.43305 6.36646,-3.9956c0.8308,-0.6194 1.6616,-1.23879 2.51757,-1.87696c0.85916,-0.65033 1.71832,-1.30066 2.60352,-1.9707c1.70931,-1.28039 3.41893,-2.56035 5.12891,-3.83984c0.75482,-0.56969 1.50965,-1.13937 2.28735,-1.72632c1.63922,-1.21353 3.32425,-2.36501 5.02124,-3.49634z"/>
  <path id="svg_9" fill="#6f9bc3" d="m1831,5142c4.45382,1.324 8.09672,3.08496 12.04297,5.52734c0.56232,0.3452 1.12464,0.6904 1.70399,1.04605c1.19852,0.73641 2.39542,1.47545 3.59081,2.21692c3.1181,1.93382 6.24806,3.84829 9.37707,5.76438c0.62066,0.3807 1.24131,0.7614 1.88077,1.15364c8.04211,4.92323 16.21356,9.62128 24.40439,14.29167c-0.33,0.66 -0.66,1.32 -1,2c-0.95366,-0.36352 -1.90733,-0.72703 -2.88989,-1.10156c-3.53718,-1.3468 -7.0768,-2.68708 -10.61719,-4.02539c-1.53225,-0.58026 -3.06383,-1.16228 -4.59473,-1.7461c-2.20001,-0.83864 -4.40234,-1.6709 -6.60522,-2.50195c-0.68448,-0.26249 -1.36896,-0.52497 -2.07417,-0.79541c-2.89173,-1.08478 -5.10196,-1.82959 -8.2188,-1.82959c0.59426,0.70383 1.18852,1.40766 1.80078,2.13281c2.74966,3.27565 5.4803,6.56602 8.19922,9.86719c0.50725,0.6144 1.01449,1.2288 1.53711,1.86182c1.51931,1.85003 3.02407,3.71103 4.52539,5.57568c0.47671,0.57831 0.95342,1.15661 1.44458,1.75244c2.60575,3.26775 4.13665,5.63603 4.49292,9.81006c-0.86108,2.5769 -0.86108,2.5769 -2.24609,5.32422c-0.50435,1.02102 -1.0087,2.04203 -1.52832,3.09399c-0.54882,1.07887 -1.09764,2.15773 -1.66309,3.26929c-1.1102,2.24114 -2.21825,4.48333 -3.32422,6.72656c-0.54962,1.10892 -1.09925,2.21783 -1.66553,3.36035c-2.2178,4.54853 -4.29058,9.15421 -6.32275,13.78809c-0.50165,1.14118 -0.50165,1.14118 -1.01343,2.30542c-0.74886,1.70924 -1.49331,3.4204 -2.23657,5.13208c18.46459,-13.15083 36.87541,-26.38261 55,-40c0.66,0.33 1.32,0.66 2,1c-15.03109,14.11807 -15.03109,14.11807 -21.04687,19.29688c-2.51925,2.19678 -4.98416,4.45002 -7.45313,6.70312c-3.78934,3.45575 -7.61084,6.86523 -11.48047,10.23047c-4.04618,3.5453 -8.02696,7.16412 -12.01953,10.76953c-5.27234,4.76109 -10.55205,9.5085 -15.91797,14.16406c-1.58075,1.39391 -3.14259,2.80931 -4.69531,4.23438c-0.89074,0.81726 -1.78149,1.63453 -2.69922,2.47656c-0.82113,0.76055 -1.64227,1.52109 -2.48828,2.30469c-2.19922,1.82031 -2.19922,1.82031 -5.19922,2.82031c2.3472,-7.47447 5.28953,-14.59188 8.40234,-21.77734c0.79317,-1.84399 1.58634,-3.68798 2.37945,-5.532c1.10328,-2.56271 2.20992,-5.12396 3.31654,-7.68523c1.93377,-4.47726 3.86281,-8.95655 5.79097,-13.43623c1.02351,-2.37701 2.04853,-4.75338 3.07528,-7.129c0.92646,-2.14892 1.84774,-4.30009 2.76293,-6.45384c0.83159,-1.95163 1.6778,-3.89711 2.54034,-5.83527c0.3764,-0.873 0.7528,-1.74601 1.1406,-2.64547c0.3329,-0.75363 0.66581,-1.50725 1.0088,-2.28371c1.16759,-4.45179 -0.63818,-8.03521 -2.6421,-11.98045c-0.46041,-0.91413 -0.92081,-1.82825 -1.39516,-2.77007c-0.49794,-0.97411 -0.99587,-1.94823 -1.5089,-2.95186c-0.50909,-1.0092 -1.01818,-2.0184 -1.54271,-3.05818c-1.6246,-3.2192 -3.25707,-6.43432 -4.89088,-9.64885c-1.63666,-3.22559 -3.27155,-6.45204 -4.9016,-9.68098c-1.01423,-2.00863 -2.03242,-4.01527 -3.05484,-6.01975c-0.45725,-0.90466 -0.9145,-1.80933 -1.3856,-2.74141c-0.40558,-0.79766 -0.81115,-1.59532 -1.22902,-2.41716c-0.86644,-1.9532 -0.86644,-1.9532 -0.86644,-3.9532z"/>
  <path id="svg_10" fill="#6f9bc3" d="m1831,2862c4.45382,1.324 8.09672,3.08496 12.04297,5.52734c0.56232,0.3452 1.12464,0.6904 1.70399,1.04605c1.19852,0.73641 2.39542,1.47545 3.59081,2.21692c3.1181,1.93382 6.24806,3.84829 9.37707,5.76438c0.62066,0.3807 1.24131,0.7614 1.88077,1.15364c8.04211,4.92323 16.21356,9.62128 24.40439,14.29167c-0.33,0.66 -0.66,1.32 -1,2c-0.95366,-0.36352 -1.90733,-0.72703 -2.88989,-1.10156c-3.53718,-1.3468 -7.0768,-2.68708 -10.61719,-4.02539c-1.53225,-0.58026 -3.06383,-1.16228 -4.59473,-1.7461c-2.20001,-0.83864 -4.40234,-1.6709 -6.60522,-2.50195c-0.68448,-0.26249 -1.36896,-0.52497 -2.07417,-0.79541c-2.89173,-1.08478 -5.10196,-1.82959 -8.2188,-1.82959c0.59426,0.70383 1.18852,1.40766 1.80078,2.13281c2.74966,3.27565 5.4803,6.56602 8.19922,9.86719c0.50725,0.6144 1.01449,1.2288 1.53711,1.86182c1.51931,1.85003 3.02407,3.71103 4.52539,5.57568c0.47671,0.57831 0.95342,1.15661 1.44458,1.75244c2.60575,3.26775 4.13665,5.63603 4.49292,9.81006c-0.86108,2.5769 -0.86108,2.5769 -2.24609,5.32422c-0.50435,1.02102 -1.0087,2.04203 -1.52832,3.09399c-0.54882,1.07887 -1.09764,2.15773 -1.66309,3.26929c-1.1102,2.24114 -2.21825,4.48333 -3.32422,6.72656c-0.54962,1.10892 -1.09925,2.21783 -1.66553,3.36035c-2.2178,4.54853 -4.29058,9.15421 -6.32275,13.78809c-0.50165,1.14118 -0.50165,1.14118 -1.01343,2.30542c-0.74886,1.70924 -1.49331,3.4204 -2.23657,5.13208c18.46459,-13.15083 36.87541,-26.38261 55,-40c0.66,0.33 1.32,0.66 2,1c-15.03109,14.11807 -15.03109,14.11807 -21.04687,19.29688c-2.51925,2.19678 -4.98416,4.45002 -7.45313,6.70312c-3.78934,3.45575 -7.61084,6.86523 -11.48047,10.23047c-4.04618,3.5453 -8.02696,7.16412 -12.01953,10.76953c-5.27234,4.76109 -10.55205,9.5085 -15.91797,14.16406c-1.58075,1.39391 -3.14259,2.80931 -4.69531,4.23438c-0.89074,0.81726 -1.78149,1.63453 -2.69922,2.47656c-0.82113,0.76055 -1.64227,1.52109 -2.48828,2.30469c-2.19922,1.82031 -2.19922,1.82031 -5.19922,2.82031c2.3472,-7.47447 5.28953,-14.59188 8.40234,-21.77734c0.79317,-1.84399 1.58634,-3.68798 2.37945,-5.532c1.10328,-2.56271 2.20992,-5.12396 3.31654,-7.68523c1.93377,-4.47726 3.86281,-8.95655 5.79097,-13.43623c1.02351,-2.37701 2.04853,-4.75338 3.07528,-7.129c0.92646,-2.14892 1.84774,-4.30009 2.76293,-6.45384c0.83159,-1.95163 1.6778,-3.89711 2.54034,-5.83527c0.3764,-0.873 0.7528,-1.74601 1.1406,-2.64547c0.3329,-0.75363 0.66581,-1.50725 1.0088,-2.28371c1.16759,-4.45179 -0.63818,-8.03521 -2.6421,-11.98045c-0.46041,-0.91413 -0.92081,-1.82825 -1.39516,-2.77007c-0.49794,-0.97411 -0.99587,-1.94823 -1.5089,-2.95186c-0.50909,-1.0092 -1.01818,-2.0184 -1.54271,-3.05818c-1.6246,-3.2192 -3.25707,-6.43432 -4.89088,-9.64885c-1.63666,-3.22559 -3.27155,-6.45204 -4.9016,-9.68098c-1.01423,-2.00863 -2.03242,-4.01527 -3.05484,-6.01975c-0.45725,-0.90466 -0.9145,-1.80933 -1.3856,-2.74141c-0.40558,-0.79766 -0.81115,-1.59532 -1.22902,-2.41716c-0.86644,-1.9532 -0.86644,-1.9532 -0.86644,-3.9532z"/>
  <path id="svg_11" fill="#739dc5" d="m70,1482c-1.46761,4.8311 -3.45459,9.15821 -5.73828,13.63672c-0.36265,0.72009 -0.72529,1.44017 -1.09892,2.18208c-1.15462,2.29152 -2.31455,4.58029 -3.4753,6.8687c-2.24856,4.44256 -4.49129,8.88742 -6.70166,13.34912c-1.2036,2.42778 -2.44566,4.80242 -3.74902,7.18067c-0.48421,0.92474 -0.96841,1.84948 -1.46729,2.80224c-0.42047,0.76031 -0.84095,1.52061 -1.27417,2.30396c-0.80056,4.32553 0.88502,7.67783 2.50464,11.67651c0.37407,0.92361 0.74815,1.84722 1.13356,2.79881c1.31305,3.16819 2.6597,6.32034 4.01488,9.47072c0.74161,1.73609 0.74161,1.73609 1.4982,3.50725c1.30742,3.05912 2.61782,6.11693 3.92984,9.17409c1.83878,4.28685 3.67157,8.57627 5.50546,12.86522c0.97293,2.27444 1.9468,4.54849 2.92181,6.82205c0.89397,2.08631 1.78514,4.17381 2.67319,6.26265c0.92483,2.16638 1.86139,4.32778 2.80676,6.48529c0.46767,1.08262 0.93534,2.16524 1.41718,3.28067c0.64021,1.46436 0.64021,1.46436 1.29336,2.9583c0.2659,0.78373 0.5318,1.56747 0.80576,2.37495c-0.33,0.66 -0.66,1.32 -1,2c-0.70125,-0.64066 -1.4025,-1.28133 -2.125,-1.94141c-4.9113,-4.47755 -9.84037,-8.92766 -14.85547,-13.28906c-4.9169,-4.30823 -9.74592,-8.71639 -14.59766,-13.09765c-3.78662,-3.41494 -7.57771,-6.82175 -11.42187,-10.17188c-5.58288,-4.86541 -11.08095,-9.82757 -16.54297,-14.82812c-5.29767,-4.82951 -10.72497,-9.36592 -16.45703,-13.67188c0.33,-0.99 0.66,-1.98 1,-3c1.82845,1.32055 3.65691,2.6411 5.48535,3.96167c1.6139,1.16557 3.22783,2.3311 4.8418,3.49658c4.12873,2.98156 8.25699,5.96377 12.38379,8.948c9.07517,6.56118 18.1675,13.0972 27.28906,19.59375c-0.88038,-1.96509 -1.76112,-3.93001 -2.64331,-5.89429c-0.78869,-1.7577 -1.57526,-3.51635 -2.35986,-5.27588c-2.30277,-5.1437 -4.66565,-10.24976 -7.11402,-15.32592c-0.51071,-1.0725 -1.02142,-2.145 -1.5476,-3.25c-1.00413,-2.10453 -2.02225,-4.20244 -3.05518,-6.29297c-0.45722,-0.96551 -0.91443,-1.93102 -1.3855,-2.92578c-0.62104,-1.27799 -0.62104,-1.27799 -1.25464,-2.58179c-0.84083,-3.22379 -0.20258,-4.55389 1.36011,-7.45337c1.41699,-1.98535 1.41699,-1.98535 3.04687,-3.89062c0.59813,-0.71028 1.19625,-1.42055 1.8125,-2.15235c0.62391,-0.72832 1.24782,-1.45664 1.89063,-2.20703c4.84876,-5.68086 9.23607,-11.44557 13.25,-17.75c-0.95366,0.36875 -1.90733,0.7375 -2.88989,1.11743c-3.53549,1.36424 -7.07558,2.71619 -10.61719,4.06445c-1.53286,0.58552 -3.06445,1.17437 -4.59473,1.76661c-2.19849,0.85018 -4.40126,1.68829 -6.60522,2.52417c-0.68448,0.26764 -1.36896,0.53529 -2.07417,0.81105c-4.87718,1.83016 -4.87718,1.83016 -8.2188,0.71629c2.29492,-1.37695 2.29492,-1.37695 4.58984,-2.75391c1.00088,-0.60062 2.00176,-1.20124 3.03296,-1.82006c2.22704,-1.33603 4.45442,-2.67147 6.68213,-4.00635c5.36858,-3.21756 10.73433,-6.43939 16.08592,-9.68514c1.73617,-1.05276 3.4734,-2.10375 5.21096,-3.15422c2.20183,-1.33193 4.40159,-2.66731 6.59912,-4.00635c1.49189,-0.90093 1.49189,-0.90093 3.01391,-1.82006c0.87777,-0.53295 1.75555,-1.0659 2.65992,-1.61499c2.12524,-1.13892 2.12524,-1.13892 4.12524,-1.13892z"/>
  <path id="svg_12" fill="#749ec5" d="m1832,1368c5.38394,1.50309 9.66682,4.02703 14.375,6.9375c1.78452,1.08699 3.56972,2.17284 5.35547,3.25781c0.98919,0.60232 1.97839,1.20463 2.99756,1.8252c5.61059,3.39432 11.25596,6.72991 16.89825,10.07116c14.49032,8.58238 28.94381,17.22476 43.37372,25.90833c-3.44664,2.12508 -3.44664,2.12508 -5.86981,1.57735c-0.64206,-0.31516 -1.28411,-0.63032 -1.94562,-0.95504c-0.73466,-0.35084 -1.46933,-0.70168 -2.22626,-1.06315c-0.78546,-0.39464 -1.57092,-0.78928 -2.38018,-1.19588c-0.81882,-0.39524 -1.63764,-0.79049 -2.48127,-1.19771c-2.62311,-1.26957 -5.23506,-2.56039 -7.84686,-3.85307c-2.59941,-1.27052 -5.20095,-2.53651 -7.80402,-3.79951c-1.61876,-0.78716 -3.23509,-1.57935 -4.84851,-2.37742c-4.78372,-2.34683 -9.5797,-4.3399 -14.59747,-6.13557c4.09985,6.27597 8.4031,12.35973 12.875,18.375c0.60844,0.82782 1.21688,1.65564 1.84375,2.50854c2.62759,3.57136 5.26066,7.12548 8.03906,10.5813c0.73992,0.93973 1.47985,1.87946 2.24219,2.84766c0.63938,0.77988 1.27875,1.55977 1.9375,2.36328c1.0625,2.32422 1.0625,2.32422 0.34619,5.03638c-1.37825,3.53003 -2.99703,6.86972 -4.76025,10.21753c-0.33011,0.63519 -0.66022,1.27039 -1.00034,1.92483c-1.04526,2.009 -2.09657,4.01476 -3.1481,6.02048c-0.71394,1.36958 -1.42749,2.73937 -2.14062,4.10938c-1.74019,3.34096 -3.4858,6.67904 -5.23438,10.01562c3.59384,-2.20394 7.18674,-4.40939 10.77881,-6.61621c1.2198,-0.74911 2.43985,-1.49781 3.66015,-2.24609c1.7632,-1.08128 3.52548,-2.16404 5.2876,-3.24707c1.05784,-0.64937 2.11568,-1.29874 3.20557,-1.96778c3.06375,-1.92027 6.06936,-3.90288 9.06787,-5.92285c0.66,0.33 1.32,0.66 2,1c-15.03109,14.11807 -15.03109,14.11807 -21.04687,19.29688c-2.51925,2.19678 -4.98416,4.45002 -7.45313,6.70312c-7.33576,6.67442 -7.33576,6.67442 -9.9375,9c-0.59684,0.53625 -1.19367,1.0725 -1.80859,1.625c-1.82795,1.43304 -3.64606,2.41141 -5.75391,3.375c0.59158,-6.55488 2.20731,-12.41435 4.1875,-18.67578c0.62359,-2.065 1.24461,-4.13079 1.86328,-6.19727c0.96944,-3.22694 1.95154,-6.44671 2.97803,-9.656c4.30606,-11.90677 4.30606,-11.90677 3.95947,-24.14502c-1.77352,-2.80623 -3.64077,-4.98972 -5.98828,-7.32593c-0.88396,-1.24632 -1.74171,-2.51198 -2.5625,-3.80078c-0.81068,-1.17184 -1.62322,-2.34238 -2.4375,-3.51172c-0.95097,-1.37469 -1.90146,-2.74971 -2.85156,-4.125c-0.50435,-0.72961 -1.00869,-1.45922 -1.52832,-2.21094c-3.6546,-5.30457 -7.27287,-10.63406 -10.89771,-15.95898c-3.17976,-4.66925 -6.36633,-9.33349 -9.57007,-13.98633c-0.60473,-0.87938 -1.20946,-1.75876 -1.83252,-2.66479c-1.1514,-1.67336 -2.30465,-3.34545 -3.45996,-5.01612c-0.50934,-0.74081 -1.01868,-1.48161 -1.54345,-2.24487c-0.67374,-0.9761 -0.67374,-0.9761 -1.36109,-1.97193c-0.95532,-1.50854 -0.95532,-1.50854 -0.95532,-2.50854z"/>
  <path id="svg_13" fill="#3a76ad" d="m1834,7077c5.49583,1.52031 9.88342,4.15725 14.6875,7.125c1.78849,1.08949 3.57758,2.17798 5.36719,3.26563c0.95745,0.5833 1.9149,1.1666 2.90136,1.76757c4.29186,2.59687 8.61123,5.14615 12.9314,7.69556c5.71115,3.37035 11.41212,6.75779 17.11255,10.14624c1.11133,0.65952 2.22267,1.31903 3.36768,1.99854c3.17412,1.88809 6.34164,3.78676 9.50732,5.68896c0.95044,0.5638 1.90088,1.12761 2.88013,1.7085c4.66781,2.81986 8.61863,5.515 12.24487,9.604c-8.4726,-2.14865 -16.1395,-5.6759 -24,-9.4375c-7.9131,-3.76357 -15.80492,-7.44804 -24,-10.5625c4.09985,6.27597 8.4031,12.35973 12.875,18.375c0.60844,0.82782 1.21688,1.65564 1.84375,2.50854c2.62759,3.57136 5.26066,7.12548 8.03906,10.5813c0.73992,0.93973 1.47985,1.87946 2.24219,2.84766c0.63938,0.77988 1.27875,1.55977 1.9375,2.36328c1.0625,2.32422 1.0625,2.32422 0.34619,5.03638c-1.37825,3.53003 -2.99703,6.86972 -4.76025,10.21753c-0.33011,0.63519 -0.66022,1.27039 -1.00034,1.92483c-1.04526,2.009 -2.09657,4.01476 -3.1481,6.02048c-0.71394,1.36958 -1.42749,2.73937 -2.14062,4.10938c-1.74019,3.34096 -3.4858,6.67904 -5.23438,10.01562c0.71132,-0.45439 1.42264,-0.90879 2.15552,-1.37695c2.64113,-1.68267 5.28602,-3.35923 7.93359,-5.03174c1.1451,-0.72511 2.28867,-1.45264 3.43067,-2.18262c1.64172,-1.04882 3.28941,-2.08826 4.93725,-3.12744c0.98976,-0.62842 1.97952,-1.25684 2.99927,-1.9043c2.5437,-1.37695 2.5437,-1.37695 5.5437,-1.37695c0,-0.66 0,-1.32 0,-2c2.375,-1.6875 2.375,-1.6875 5,-3c0.66,0.33 1.32,0.66 2,1c-5.3816,5.6319 -5.3816,5.6319 -8.625,7.5625c-2.88106,1.7438 -4.27759,3.80075 -6.375,6.4375c-1.82095,1.69246 -3.70375,3.2991 -5.59375,4.91406c-2.85351,2.47366 -5.6308,5.02569 -8.40625,7.58594c-7.15094,6.56959 -7.15094,6.56959 -10.5,9.5625c-0.58781,0.52723 -1.17562,1.05445 -1.78125,1.59766c-1.81635,1.41592 -3.65124,2.33889 -5.71875,3.33984c2.08307,-8.52451 4.24874,-17.01966 6.57813,-25.48047c0.21845,-0.79552 0.43691,-1.59104 0.66198,-2.41067c0.89849,-3.26858 1.79853,-6.53669 2.70716,-9.80246c0.67434,-2.42742 1.34072,-4.85691 2.00586,-7.28687c0.20618,-0.73333 0.41237,-1.46666 0.62481,-2.22221c1.87726,-6.42034 1.87726,-6.42034 0.49848,-12.71236c-0.43643,-0.61069 -0.87286,-1.22139 -1.32251,-1.85058c-0.49871,-0.71197 -0.99742,-1.42394 -1.51123,-2.15748c-0.55446,-0.76787 -1.10892,-1.53575 -1.68018,-2.3269c-1.2001,-1.70641 -2.39927,-3.41348 -3.59766,-5.12109c-0.6434,-0.90992 -1.2868,-1.81984 -1.9497,-2.75733c-3.52319,-5.02055 -6.95095,-10.1058 -10.39014,-15.18408c-4.33593,-6.38699 -8.67772,-12.76972 -13.04297,-19.13672c-1.04631,-1.5279 -1.04631,-1.5279 -2.11377,-3.08667c-1.3311,-1.94288 -2.66404,-3.88449 -3.99902,-5.82471c-0.8839,-1.29103 -0.8839,-1.29103 -1.78565,-2.60815c-0.52021,-0.75732 -1.04043,-1.51465 -1.57641,-2.29492c-1.10718,-1.73633 -1.10718,-1.73633 -1.10718,-2.73633z"/>
  <path id="svg_14" fill="#9ed0e9" d="m1771,12585c3.44582,3.11652 5.50273,6.34613 7.71484,10.41797c0.50643,0.92502 0.50643,0.92502 1.02309,1.86873c1.07308,1.96344 2.13651,3.93192 3.19957,5.9008c0.70964,1.30309 1.41992,2.60582 2.13086,3.9082c1.36563,2.50265 2.72612,5.008 4.0835,7.51514c1.96765,3.60833 3.98444,7.1857 6.03784,10.74585c0.8103,1.64331 0.8103,1.64331 0.8103,3.64331c-5.19205,0.02498 -10.38407,0.04299 -15.57617,0.05493c-1.76108,0.00499 -3.52215,0.01178 -5.2832,0.02051c-9.76414,0.04716 -19.42114,0.01475 -29.14063,-1.07544c1.52769,-4.2154 3.63818,-7.95242 5.95703,-11.76953c0.38484,-0.63983 0.76968,-1.27967 1.16618,-1.93889c1.22633,-2.03679 2.4578,-4.07041 3.68929,-6.10408c0.81608,-1.35462 1.63184,-2.70944 2.44727,-4.06445c3.86067,-6.40761 7.74693,-12.79694 11.74023,-19.12305z"/>
  <path id="svg_15" fill="#9ed0e9" d="m1673,7321c3.44582,3.11652 5.50273,6.34613 7.71484,10.41797c0.50643,0.92502 0.50643,0.92502 1.02309,1.86873c1.07308,1.96344 2.13651,3.93192 3.19957,5.9008c0.70964,1.30309 1.41992,2.60582 2.13086,3.9082c1.36563,2.50265 2.72612,5.008 4.0835,7.51514c1.96765,3.60833 3.98444,7.1857 6.03784,10.74585c0.8103,1.64331 0.8103,1.64331 0.8103,3.64331c-5.03133,0.02503 -10.06262,0.04301 -15.09399,0.05493c-1.70574,0.00498 -3.41147,0.01176 -5.11719,0.02051c-9.98799,0.04987 -19.84031,-0.08025 -29.78882,-1.07544c1.52769,-4.2154 3.63818,-7.95242 5.95703,-11.76953c0.38484,-0.63983 0.76968,-1.27967 1.16618,-1.93889c1.22633,-2.03679 2.4578,-4.07041 3.68929,-6.10408c0.81608,-1.35462 1.63184,-2.70944 2.44727,-4.06445c3.86067,-6.40761 7.74693,-12.79694 11.74023,-19.12305z"/>
  <path id="svg_16" fill="#bbddef" d="m54,2542c3.09307,2.70235 4.99475,6.07639 7.05469,9.57422c0.38342,0.64266 0.76685,1.28532 1.16189,1.94746c1.22367,2.05281 2.44124,4.10916 3.65842,6.16582c1.2088,2.0339 2.41886,4.06705 3.62946,6.09988c0.77754,1.30624 1.55405,2.6131 2.32946,3.9206c2.02624,3.41038 4.09556,6.78456 6.23639,10.12405c1.92969,3.16797 1.92969,3.16797 1.92969,5.16797c-11.16742,0.91845 -22.23781,1.12411 -33.4375,1.0625c-1.61784,-0.00503 -3.23568,-0.00959 -4.85352,-0.01367c-3.90303,-0.01085 -7.80599,-0.02801 -11.70898,-0.04883c2.32457,-6.1189 5.51921,-11.75013 8.625,-17.5c0.31358,-0.58215 0.62717,-1.16431 0.95026,-1.7641c4.54178,-8.42327 9.19805,-16.71731 14.42474,-24.7359z"/>
  <path id="svg_17" fill="#bbddef" d="m1846,1172c3.44582,3.11652 5.50273,6.34613 7.71484,10.41797c0.50643,0.92502 0.50643,0.92502 1.02309,1.86873c1.07308,1.96344 2.13651,3.93192 3.19957,5.9008c0.70964,1.30309 1.41992,2.60582 2.13086,3.9082c1.36563,2.50265 2.72612,5.008 4.0835,7.51514c1.96765,3.60833 3.98444,7.1857 6.03784,10.74585c0.8103,1.64331 0.8103,1.64331 0.8103,3.64331c-4.54915,0.02518 -9.09826,0.04308 -13.64746,0.05493c-1.53972,0.00496 -3.07944,0.01172 -4.61914,0.02051c-10.62161,0.05901 -21.14109,-0.27542 -31.7334,-1.07544c1.24031,-3.27022 2.62243,-6.2402 4.43359,-9.23047c0.47921,-0.79503 0.95842,-1.59006 1.45215,-2.40918c0.51208,-0.84079 1.02416,-1.68158 1.55176,-2.54785c0.52626,-0.87044 1.05252,-1.74088 1.59473,-2.6377c1.65126,-2.72779 3.30853,-5.45185 4.96777,-8.1748c0.81138,-1.33249 0.81138,-1.33249 1.63916,-2.69189c3.11214,-5.10771 6.23301,-10.20999 9.36084,-15.30811z"/>
  <path id="svg_18" fill="#baddef" d="m54,4822c3.0057,3.60558 5.51445,7.31156 7.93359,11.33203c0.35982,0.59544 0.71963,1.19088 1.09035,1.80437c1.14123,1.89002 2.27756,3.78293 3.41356,5.6761c1.13091,1.8776 2.26283,3.75458 3.39517,5.63132c0.72785,1.20703 1.45474,2.41464 2.18061,3.62286c1.96257,3.26187 3.96762,6.49028 6.02188,9.69504c1.96484,3.23828 1.96484,3.23828 1.96484,5.23828c-11.16742,0.91845 -22.23781,1.12411 -33.4375,1.0625c-1.61784,-0.00503 -3.23568,-0.00959 -4.85352,-0.01367c-3.90303,-0.01085 -7.80599,-0.02801 -11.70898,-0.04883c1.83913,-4.73096 4.06956,-9.1417 6.4375,-13.625c0.64957,-1.23242 0.64957,-1.23242 1.31226,-2.48975c13.19985,-24.83486 13.19985,-24.83486 16.25024,-27.88525z"/>
  <path id="svg_19" fill="#ffffff" d="m38,2774c0.66,0.33 1.32,0.66 2,1c-0.90879,1.16402 -0.90879,1.16402 -1.83594,2.35156c-5.37256,6.91392 -10.58324,13.91666 -15.62109,21.07813c-1.76384,2.50078 -3.57834,4.95396 -5.42969,7.39062c-0.46857,0.62657 -0.93715,1.25313 -1.41992,1.89868c-0.89954,1.20092 -1.81052,2.39338 -2.73438,3.57569c-2.39391,3.16123 -2.39391,3.16123 -2.7788,6.97607c1.01438,3.37696 2.53352,6.36655 4.19873,9.45581c0.49728,0.94425 0.49728,0.94425 1.00462,1.90756c1.05365,2.00021 2.1153,3.99599 3.17897,5.99088c1.40418,2.63437 2.80018,5.27283 4.19141,7.91406c0.32497,0.60317 0.64994,1.20634 0.98475,1.82779c1.46052,2.77389 2.26134,4.44524 2.26134,7.63315c-9.30687,-2.94267 -20.84952,-7.06384 -26,-16c-4.24098,-13.95655 -1.51775,-30.73853 0,-45c3.64301,-1.76148 7.28685,-3.52124 10.9314,-5.27954c1.23459,-0.59591 2.46897,-1.19225 3.70312,-1.78906c4.11572,-1.99007 8.23861,-3.96457 12.36548,-5.9314c1.07943,-0.5203 2.15886,-1.0406 3.271,-1.57666c0.98693,-0.46584 1.97387,-0.93167 2.99072,-1.41162c1.30457,-0.62129 1.30457,-0.62129 2.6355,-1.25513c0.69392,-0.24967 1.38783,-0.49935 2.10278,-0.75659z"/>
  <path id="svg_20" fill="#ffffff" d="m38,5054c0.66,0.33 1.32,0.66 2,1c-0.57105,0.72961 -1.14211,1.45922 -1.73047,2.21094c-6.82568,8.77138 -13.36134,17.73532 -19.81885,26.78027c-1.26663,1.75393 -2.55689,3.48386 -3.86865,5.2041c-0.64582,0.86367 -1.29164,1.72735 -1.95703,2.61719c-0.54398,0.7077 -1.08797,1.41539 -1.64844,2.14453c-1.34231,2.80811 -0.80436,4.04923 0.02344,7.04297c1.07395,2.29285 2.17987,4.50214 3.37891,6.72656c0.49728,0.94425 0.49728,0.94425 1.00462,1.90756c1.05365,2.00021 2.1153,3.99599 3.17897,5.99088c1.40418,2.63437 2.80018,5.27283 4.19141,7.91406c0.32497,0.60317 0.64994,1.20634 0.98475,1.82779c1.46052,2.77389 2.26134,4.44524 2.26134,7.63315c-9.30687,-2.94267 -20.84952,-7.06384 -26,-16c-4.24098,-13.95655 -1.51775,-30.73853 0,-45c3.64301,-1.76148 7.28685,-3.52124 10.9314,-5.27954c1.23459,-0.59591 2.46897,-1.19225 3.70312,-1.78906c4.11572,-1.99007 8.23861,-3.96457 12.36548,-5.9314c1.07943,-0.5203 2.15886,-1.0406 3.271,-1.57666c0.98693,-0.46584 1.97387,-0.93167 2.99072,-1.41162c1.30457,-0.62129 1.30457,-0.62129 2.6355,-1.25513c0.69392,-0.24967 1.38783,-0.49935 2.10278,-0.75659z"/>
  <path id="svg_21" fill="#bbddef" d="m678,9671c5.73968,0.64924 11.33649,1.59301 16.98828,2.77734c1.23752,0.25712 1.23752,0.25712 2.50005,0.51943c1.72894,0.36055 3.45752,0.72283 5.18574,1.08677c2.64692,0.55574 5.29588,1.10093 7.94507,1.64576c1.68568,0.35287 3.37123,0.70637 5.05664,1.06054c1.18594,0.2423 1.18594,0.2423 2.39583,0.48949c3.49808,0.74646 5.91845,1.41404 8.92839,3.42067c-4.17445,4.22398 -8.35549,8.44128 -12.54272,12.65259c-1.42273,1.43276 -2.84365,2.86731 -4.2627,4.30371c-2.04319,2.06752 -4.09282,4.12845 -6.1438,6.18823c-0.94561,0.9611 -0.94561,0.9611 -1.91032,1.94161c-3.17503,3.17582 -6.11305,5.81827 -10.14046,7.91386c-1.99967,-5.7821 -3.99334,-11.56621 -5.98145,-17.35229c-0.67738,-1.96867 -1.35641,-3.93678 -2.0371,-5.9043c-0.9773,-2.82577 -1.9487,-5.6535 -2.91895,-8.48169c-0.30623,-0.88134 -0.61247,-1.76268 -0.92798,-2.67073c-0.42043,-1.23094 -0.42043,-1.23094 -0.84936,-2.48674c-0.24871,-0.7217 -0.49742,-1.4434 -0.75367,-2.18697c-0.53149,-1.91728 -0.53149,-1.91728 -0.53149,-4.91728z"/>
  <path id="svg_22" fill="#a0d0e9" d="m1776,8395c8.55325,2.01645 16.89803,4.46103 25.25,7.1875c1.13824,0.36803 2.27648,0.73605 3.44922,1.11523c2.76809,0.89556 5.53497,1.79469 8.30078,2.69727c-1.88522,4.07869 -4.61768,7.02278 -7.6875,10.25c-1.08928,1.16207 -2.17783,2.32482 -3.26562,3.48828c-0.5253,0.56026 -1.05059,1.12052 -1.5918,1.69776c-3.92277,4.21632 -7.66331,8.57425 -11.26758,13.06396c-0.72188,0.825 -1.44375,1.65 -2.1875,2.5c-0.66,0 -1.32,0 -2,0c-1.2875,-5.33717 -2.56908,-10.67572 -3.84521,-16.01562c-0.43491,-1.81615 -0.87142,-3.63191 -1.30958,-5.44727c-0.62973,-2.61033 -1.25365,-5.22199 -1.87646,-7.83398c-0.19686,-0.81056 -0.39373,-1.62112 -0.59656,-2.45624c-0.18018,-0.76049 -0.36037,-1.52098 -0.54602,-2.30451c-0.15988,-0.66618 -0.31977,-1.33236 -0.4845,-2.01873c-0.34167,-1.92365 -0.34167,-1.92365 -0.34167,-5.92365z"/>
  <path id="svg_23" fill="#bbdeef" d="m1460,1211c5.42477,0.6781 9.78487,1.35392 14.90625,2.84766c1.85625,0.53657 1.85625,0.53657 3.75,1.08398c1.28129,0.37682 2.56254,0.75378 3.84375,1.13086c1.31234,0.38141 2.62484,0.76228 3.9375,1.14258c3.18911,0.92625 6.3765,1.85803 9.5625,2.79492c-4.949,5.95982 -10.27609,11.45943 -15.75,16.9375c-0.86238,0.87463 -1.72477,1.74926 -2.61328,2.65039c-1.23557,1.23847 -1.23557,1.23847 -2.49609,2.50195c-0.74734,0.75145 -1.49467,1.50289 -2.26465,2.2771c-1.87598,1.63306 -1.87598,1.63306 -3.87598,1.63306c-2.97,-11.55 -5.94,-23.1 -9,-35z"/>
  <path id="svg_27" fill="#caa0ce" d="m1896,12782c3.27287,2.78194 4.96428,6.27954 7,10c4.62,0 9.24,0 14,0c-5.75,6.75 -5.75,6.75 -8,9c0.26552,3.18624 1.14167,5.27244 2.625,8.125c1.375,2.875 1.375,2.875 0.375,5.875c-0.59168,-0.30035 -1.18336,-0.6007 -1.79297,-0.91016c-4.75148,-2.32273 -4.75148,-2.32273 -9.89453,-3.21484c-2.95646,1.43828 -4.80598,3.40924 -6.98047,5.84766c-1.33203,1.27734 -1.33203,1.27734 -3.33203,1.27734c0.33,-4.29 0.66,-8.58 1,-13c-3.63,-1.98 -7.26,-3.96 -11,-6c0,-0.66 0,-1.32 0,-2c6.93,-0.99 6.93,-0.99 14,-2c0.21656,-2.66062 0.21656,-2.66062 0.4375,-5.375c0.4375,-5.375 0.4375,-5.375 1.5625,-7.625z"/>
  <path id="svg_28" fill="#caa0ce" d="m1783,11338c3.27287,2.78194 4.96428,6.27954 7,10c4.62,0 9.24,0 14,0c-5.75,6.75 -5.75,6.75 -8,9c0.26552,3.18624 1.14167,5.27244 2.625,8.125c1.375,2.875 1.375,2.875 0.375,5.875c-0.59168,-0.30035 -1.18336,-0.6007 -1.79297,-0.91016c-4.75148,-2.32273 -4.75148,-2.32273 -9.89453,-3.21484c-2.95646,1.43828 -4.80598,3.40924 -6.98047,5.84766c-1.33203,1.27734 -1.33203,1.27734 -3.33203,1.27734c0.33,-4.29 0.66,-8.58 1,-13c-3.63,-1.98 -7.26,-3.96 -11,-6c0,-0.66 0,-1.32 0,-2c6.93,-0.99 6.93,-0.99 14,-2c0.21656,-2.66062 0.21656,-2.66062 0.4375,-5.375c0.4375,-5.375 0.4375,-5.375 1.5625,-7.625z"/>
  <path id="svg_29" fill="#81b8d9" d="m1808,11206c2.62895,3.94343 3.05928,7.36359 4,12c4.29,0.66 8.58,1.32 13,2c-3.27275,3.27275 -6.14588,5.54738 -10,8c0.33,4.29 0.66,8.58 1,13c-1.65,-0.66 -3.3,-1.32 -5,-2c0,-0.66 0,-1.32 0,-2c-0.66,0 -1.32,0 -2,0c-0.66,-0.99 -1.32,-1.98 -2,-3c-4.85963,0.60745 -8.74055,2.72759 -13,5c0.75758,-5.55556 0.75758,-5.55556 2.125,-8.0625c1.02866,-1.94418 1.02866,-1.94418 0.9375,-4.3125c-1.41566,-3.49752 -3.63388,-5.10124 -6.56641,-7.39062c-0.49371,-0.40735 -0.98742,-0.81469 -1.49609,-1.23438c0,-0.33 0,-0.66 0,-1c4.29,0 8.58,0 13,0c1.98,-3.63 3.96,-7.26 6,-11z"/>
  <path id="svg_31" fill="#80b8da" d="m1731,12835c3.37641,3.37641 4.2745,5.64517 6,10c4.29,0.33 8.58,0.66 13,1c-5.625,7.875 -5.625,7.875 -9,9c0.28875,0.69867 0.5775,1.39734 0.875,2.11719c0.37125,0.91008 0.7425,1.82015 1.125,2.75781c0.37125,0.90492 0.7425,1.80984 1.125,2.74219c0.875,2.38281 0.875,2.38281 0.875,4.38281c-2.77992,-1.03254 -5.05858,-2.041 -7.5,-3.75c-2.42751,-1.54326 -2.42751,-1.54326 -5,-0.6875c-2.73706,1.57381 -5.0512,3.45199 -7.5,5.4375c-0.66,0 -1.32,0 -2,0c0.66,-3.96 1.32,-7.92 2,-12c-1.65,-1.13437 -3.3,-2.26875 -5,-3.4375c-1.68636,-1.15937 -3.35863,-2.34027 -5,-3.5625c0,-0.33 0,-0.66 0,-1c6.435,-0.495 6.435,-0.495 13,-1c0.99,-3.96 1.98,-7.92 3,-12z"/>
  <path id="svg_32" fill="#80b8da" d="m1618,11391c3.37641,3.37641 4.2745,5.64517 6,10c4.29,0.33 8.58,0.66 13,1c-5.625,7.875 -5.625,7.875 -9,9c0.28875,0.69867 0.5775,1.39734 0.875,2.11719c0.37125,0.91008 0.7425,1.82015 1.125,2.75781c0.37125,0.90492 0.7425,1.80984 1.125,2.74219c0.875,2.38281 0.875,2.38281 0.875,4.38281c-2.77992,-1.03254 -5.05858,-2.041 -7.5,-3.75c-2.42751,-1.54326 -2.42751,-1.54326 -5,-0.6875c-2.73706,1.57381 -5.0512,3.45199 -7.5,5.4375c-0.66,0 -1.32,0 -2,0c0.66,-3.96 1.32,-7.92 2,-12c-1.65,-1.13437 -3.3,-2.26875 -5,-3.4375c-1.68636,-1.15937 -3.35863,-2.34027 -5,-3.5625c0,-0.33 0,-0.66 0,-1c6.435,-0.495 6.435,-0.495 13,-1c0.99,-3.96 1.98,-7.92 3,-12z"/>
  <path id="svg_35" fill="#be8ac2" d="m1754,9240c14.69865,9.03898 14.69865,9.03898 20,14c0,0.66 0,1.32 0,2c-1.60474,1.23682 -1.60474,1.23682 -3.83203,2.60156c-0.79858,0.48985 -1.59715,0.97969 -2.41992,1.48438c-0.84498,0.50789 -1.68996,1.01578 -2.56055,1.53906c-0.83338,0.51563 -1.66676,1.03125 -2.52539,1.5625c-6.27852,3.8125 -6.27852,3.8125 -9.66211,3.8125c-0.02722,-3.00006 -0.04694,-5.99987 -0.0625,-9c-0.00838,-0.83918 -0.01676,-1.67836 -0.02539,-2.54297c-0.02035,-5.25022 0.32421,-10.26159 1.08789,-15.45703z"/>
  <path id="svg_36" fill="#be8ac2" d="m1890,8663c6.993,4.30037 13.62627,8.82233 20,14c-3.40598,3.80771 -7.26991,6.18867 -11.625,8.75c-0.68063,0.41121 -1.36125,0.82242 -2.0625,1.24609c-5.04976,3.00391 -5.04976,3.00391 -7.3125,3.00391c-0.02887,-4.31249 -0.04675,-8.62495 -0.0625,-12.9375c-0.00838,-1.2317 -0.01676,-2.4634 -0.02539,-3.73242c-0.00322,-1.16983 -0.00645,-2.33965 -0.00977,-3.54492c-0.00523,-1.08402 -0.01047,-2.16805 -0.01587,-3.28492c0.11353,-2.50024 0.11353,-2.50024 1.11353,-3.50024z"/>
  <path id="svg_37" fill="#bc85c0" d="m89,8426c3.26963,1.20915 5.9792,2.51488 8.76953,4.60156c0.66065,0.48985 1.32129,0.97969 2.00195,1.48438c0.67354,0.50789 1.34707,1.01578 2.04102,1.53906c0.69287,0.51563 1.38574,1.03125 2.09961,1.5625c1.69963,1.26593 3.39426,2.53855 5.08789,3.8125c-1.18284,3.54852 -1.9182,3.84649 -5.03516,5.69922c-1.21333,0.72993 -1.21333,0.72993 -2.45117,1.47461c-0.85013,0.49951 -1.70027,0.99902 -2.57617,1.51367c-0.854,0.51111 -1.70801,1.02223 -2.58789,1.54883c-2.11199,1.26247 -4.22851,2.51658 -6.34961,3.76367c-2,-2 -2,-2 -2.13525,-4.52197c0.05236,-1.03689 0.10473,-2.07378 0.15869,-3.14209c0.05156,-1.12149 0.10312,-2.24297 0.15625,-3.39844c0.06445,-1.17563 0.1289,-2.35125 0.19531,-3.5625c0.05672,-1.18336 0.11344,-2.36672 0.17187,-3.58594c0.14179,-2.93027 0.29323,-5.85973 0.45313,-8.78906z"/>
  <path id="svg_38" fill="#79a3c8" d="m1903,11359c2.08369,0.31014 4.16694,0.62321 6.25,0.9375c1.16016,0.17402 2.32031,0.34805 3.51563,0.52734c3.23437,0.53516 3.23437,0.53516 7.23437,1.53516c0,9.57 0,19.14 0,29c-6.435,2.475 -6.435,2.475 -13,5c1.125,-5.625 1.125,-5.625 2.84766,-8.55078c0.53657,-0.92329 0.53657,-0.92329 1.08398,-1.86524c0.37318,-0.62584 0.74637,-1.25168 1.13086,-1.89648c0.56558,-0.96776 0.56558,-0.96776 1.14258,-1.95508c0.92529,-1.5812 1.85925,-3.15733 2.79492,-4.73242c-2.6927,-4.16874 -5.55825,-8.00013 -8.75,-11.8125c-4.25,-5.07944 -4.25,-5.07944 -4.25,-6.1875z"/>
  <path id="svg_39" fill="#be89c2" d="m68,11185c5.27467,1.75822 8.84588,3.54047 13.375,6.5c0.64066,0.40348 1.28133,0.80695 1.94141,1.22266c1.6005,1.03401 3.14769,2.14961 4.68359,3.27734c0,0.66 0,1.32 0,2c-3.14409,1.66998 -6.29055,3.33542 -9.4375,5c-0.89783,0.47695 -1.79566,0.95391 -2.7207,1.44531c-1.28101,0.67676 -1.28101,0.67676 -2.58789,1.36719c-1.18614,0.62842 -1.18614,0.62842 -2.39624,1.26953c-1.85767,0.91797 -1.85767,0.91797 -2.85767,0.91797c0,-7.59 0,-15.18 0,-23z"/>
  <path id="svg_40" fill="#be89c2" d="m103,6618c5.27467,1.75822 8.84588,3.54047 13.375,6.5c0.64066,0.40348 1.28133,0.80695 1.94141,1.22266c1.6005,1.03401 3.14769,2.14961 4.68359,3.27734c0,0.66 0,1.32 0,2c-3.14409,1.66998 -6.29055,3.33542 -9.4375,5c-0.89783,0.47695 -1.79566,0.95391 -2.7207,1.44531c-1.28101,0.67676 -1.28101,0.67676 -2.58789,1.36719c-1.18614,0.62842 -1.18614,0.62842 -2.39624,1.26953c-1.85767,0.91797 -1.85767,0.91797 -2.85767,0.91797c0,-7.59 0,-15.18 0,-23z"/>
  <path id="svg_41" fill="#d2aed4" d="m1803,5711c0,7.59 0,15.18 0,23c-6.66667,-3.33333 -13.33333,-6.66667 -20,-10c1.15575,-3.46726 1.71153,-3.71791 4.74609,-5.48047c0.75475,-0.4415 1.5095,-0.88301 2.28711,-1.33789c1.19013,-0.67772 1.19013,-0.67772 2.4043,-1.36914c0.78955,-0.46342 1.5791,-0.92684 2.39258,-1.4043c5.88781,-3.4082 5.88781,-3.4082 8.16992,-3.4082z"/>
  <path id="svg_42" fill="#d2aed4" d="m1803,3431c0,7.59 0,15.18 0,23c-6.66667,-3.33333 -13.33333,-6.66667 -20,-10c1.15575,-3.46726 1.71153,-3.71791 4.74609,-5.48047c0.75475,-0.4415 1.5095,-0.88301 2.28711,-1.33789c1.19013,-0.67772 1.19013,-0.67772 2.4043,-1.36914c0.78955,-0.46342 1.5791,-0.92684 2.39258,-1.4043c5.88781,-3.4082 5.88781,-3.4082 8.16992,-3.4082z"/>
  <path id="svg_43" fill="#d1acd3" d="m159,9917c5.27467,1.75822 8.84588,3.54047 13.375,6.5c0.64066,0.40348 1.28133,0.80695 1.94141,1.22266c1.6005,1.03401 3.14769,2.14961 4.68359,3.27734c0,0.66 0,1.32 0,2c-3.14409,1.66998 -6.29055,3.33542 -9.4375,5c-0.89783,0.47695 -1.79566,0.95391 -2.7207,1.44531c-1.28101,0.67676 -1.28101,0.67676 -2.58789,1.36719c-1.18614,0.62842 -1.18614,0.62842 -2.39624,1.26953c-1.85767,0.91797 -1.85767,0.91797 -2.85767,0.91797c0,-7.59 0,-15.18 0,-23z"/>
  <path id="svg_44" fill="#d1acd3" d="m98,1165c5.27467,1.75822 8.84588,3.54047 13.375,6.5c0.64066,0.40348 1.28133,0.80695 1.94141,1.22266c1.6005,1.03401 3.14769,2.14961 4.68359,3.27734c0,0.66 0,1.32 0,2c-3.14409,1.66998 -6.29055,3.33542 -9.4375,5c-0.89783,0.47695 -1.79566,0.95391 -2.7207,1.44531c-1.28101,0.67676 -1.28101,0.67676 -2.58789,1.36719c-1.18614,0.62842 -1.18614,0.62842 -2.39624,1.26953c-1.85767,0.91797 -1.85767,0.91797 -2.85767,0.91797c0,-7.59 0,-15.18 0,-23z"/>
  <path id="svg_45" fill="#d1acd3" d="m1745,1095c5.27467,1.75822 8.84588,3.54047 13.375,6.5c0.64066,0.40348 1.28133,0.80695 1.94141,1.22266c1.6005,1.03401 3.14769,2.14961 4.68359,3.27734c0,0.66 0,1.32 0,2c-3.14409,1.66998 -6.29055,3.33542 -9.4375,5c-0.89783,0.47695 -1.79566,0.95391 -2.7207,1.44531c-1.28101,0.67676 -1.28101,0.67676 -2.58789,1.36719c-1.18614,0.62842 -1.18614,0.62842 -2.39624,1.26953c-1.85767,0.91797 -1.85767,0.91797 -2.85767,0.91797c0,-7.59 0,-15.18 0,-23z"/>
  <path id="svg_46" fill="#d1acd3" d="m156,4755c0,7.59 0,15.18 0,23c-6.66667,-3.33333 -13.33333,-6.66667 -20,-10c0,-0.66 0,-1.32 0,-2c1.62061,-1.23682 1.62061,-1.23682 3.86719,-2.60156c0.80308,-0.48985 1.60617,-0.97969 2.43359,-1.48438c0.84949,-0.50789 1.69899,-1.01578 2.57422,-1.53906c0.84176,-0.51562 1.68352,-1.03125 2.55078,-1.5625c6.30374,-3.8125 6.30374,-3.8125 8.57422,-3.8125z"/>
  <path id="svg_47" fill="#d1abd3" d="m1803,4755c0,7.59 0,15.18 0,23c-3.83625,-1.85625 -3.83625,-1.85625 -7.75,-3.75c-0.7989,-0.38124 -1.59779,-0.76248 -2.4209,-1.15527c-3.90622,-1.92261 -6.94805,-3.72845 -9.8291,-7.09473c2.95392,-1.84052 5.91383,-3.67117 8.875,-5.5c0.84176,-0.52465 1.68352,-1.0493 2.55078,-1.58984c0.80567,-0.49629 1.61133,-0.99258 2.44141,-1.50391c1.11544,-0.69126 1.11544,-0.69126 2.25342,-1.39648c1.87939,-1.00977 1.87939,-1.00977 3.87939,-1.00977z"/>
  <path id="svg_48" fill="#d1abd3" d="m1803,2475c0,7.59 0,15.18 0,23c-3.83625,-1.85625 -3.83625,-1.85625 -7.75,-3.75c-0.7989,-0.38124 -1.59779,-0.76248 -2.4209,-1.15527c-3.90622,-1.92261 -6.94805,-3.72845 -9.8291,-7.09473c2.95392,-1.84052 5.91383,-3.67117 8.875,-5.5c0.84176,-0.52465 1.68352,-1.0493 2.55078,-1.58984c0.80567,-0.49629 1.61133,-0.99258 2.44141,-1.50391c1.11544,-0.69126 1.11544,-0.69126 2.25342,-1.39648c1.87939,-1.00977 1.87939,-1.00977 3.87939,-1.00977z"/>
  <path id="svg_49" fill="#d1abd3" d="m156,2475c0,7.59 0,15.18 0,23c-3.83625,-1.85625 -3.83625,-1.85625 -7.75,-3.75c-0.7989,-0.38124 -1.59779,-0.76248 -2.4209,-1.15527c-3.90622,-1.92261 -6.94805,-3.72845 -9.8291,-7.09473c2.95392,-1.84052 5.91383,-3.67117 8.875,-5.5c0.84176,-0.52465 1.68352,-1.0493 2.55078,-1.58984c0.80567,-0.49629 1.61133,-0.99258 2.44141,-1.50391c1.11544,-0.69126 1.11544,-0.69126 2.25342,-1.39648c1.87939,-1.00977 1.87939,-1.00977 3.87939,-1.00977z"/>
  <path id="svg_50" fill="#7dadd0" d="m1919,12653c0.33,0 0.66,0 1,0c0,7.92 0,15.84 0,24c-6.435,2.97 -6.435,2.97 -13,6c1,-6 1,-6 2.125,-8.0625c1.02866,-1.94418 1.02866,-1.94418 0.9375,-4.3125c-1.41566,-3.49752 -3.63388,-5.10124 -6.56641,-7.39062c-0.49371,-0.40735 -0.98742,-0.81469 -1.49609,-1.23438c0,-0.33 0,-0.66 0,-1c4.29,0 8.58,0 13,0c1.32,-2.64 2.64,-5.28 4,-8z"/>
  <path id="svg_52" fill="#b87fbd" d="m1905,11167c2.64,1.32 5.28,2.64 8,4c0.59812,-0.51562 1.19625,-1.03125 1.8125,-1.5625c1.08281,-0.71156 1.08281,-0.71156 2.1875,-1.4375c0.99,0.33 1.98,0.66 3,1c0,3.96 0,7.92 0,12c-1.65,0.66 -3.3,1.32 -5,2c-1.84275,3.01696 -1.84275,3.01696 -3,6c-1.9451,-2.91765 -2.45276,-4.62537 -3,-8c-2.64,0 -5.28,0 -8,0c0.84563,-0.63937 1.69125,-1.27875 2.5625,-1.9375c2.6497,-2.71581 2.6497,-2.71581 2.54688,-5.39844c-0.26803,-2.23591 -0.68044,-4.45337 -1.10938,-6.66406z"/>
  <path id="svg_53" fill="#c395c6" d="m1870,12771c1.5,1.375 1.5,1.375 3,3c0,0.66 0,1.32 0,2c2.47267,-0.34445 2.47267,-0.34445 5,-1c0.33,-0.66 0.66,-1.32 1,-2c0.66,0.66 1.32,1.32 2,2c-0.99,1.11375 -0.99,1.11375 -2,2.25c-2.39211,2.72243 -2.39211,2.72243 -2,6.75c0.99,0.33 1.98,0.66 3,1c-0.66,0 -1.32,0 -2,0c-0.33,0.66 -0.66,1.32 -1,2c-1.65,-0.33 -3.3,-0.66 -5,-1c-0.99,1.32 -1.98,2.64 -3,4c-0.18176,-0.61488 -0.36352,-1.22977 -0.55078,-1.86328c-0.37705,-1.21236 -0.37705,-1.21236 -0.76172,-2.44922c-0.36545,-1.20076 -0.36545,-1.20076 -0.73828,-2.42578c-0.99104,-2.36137 -2.02997,-3.60052 -3.94922,-5.26172c1.98,-0.33 3.96,-0.66 6,-1c-0.33,-0.99 -0.66,-1.98 -1,-3c0.66,0 1.32,0 2,0c0,-0.99 0,-1.98 0,-3z"/>
  <path id="svg_54" fill="#c395c6" d="m1757,11327c1.5,1.375 1.5,1.375 3,3c0,0.66 0,1.32 0,2c2.47267,-0.34445 2.47267,-0.34445 5,-1c0.33,-0.66 0.66,-1.32 1,-2c0.66,0.66 1.32,1.32 2,2c-0.99,1.11375 -0.99,1.11375 -2,2.25c-2.39211,2.72243 -2.39211,2.72243 -2,6.75c0.99,0.33 1.98,0.66 3,1c-0.66,0 -1.32,0 -2,0c-0.33,0.66 -0.66,1.32 -1,2c-1.65,-0.33 -3.3,-0.66 -5,-1c-0.99,1.32 -1.98,2.64 -3,4c-0.18176,-0.61488 -0.36352,-1.22977 -0.55078,-1.86328c-0.37705,-1.21236 -0.37705,-1.21236 -0.76172,-2.44922c-0.36545,-1.20076 -0.36545,-1.20076 -0.73828,-2.42578c-0.99104,-2.36137 -2.02997,-3.60052 -3.94922,-5.26172c1.98,-0.33 3.96,-0.66 6,-1c-0.33,-0.99 -0.66,-1.98 -1,-3c0.66,0 1.32,0 2,0c0,-0.99 0,-1.98 0,-3z"/>
  <path id="svg_55" fill="#95cae6" d="m1718,12803c2,1.375 2,1.375 4,3c0,0.66 0,1.32 0,2c3.465,-0.495 3.465,-0.495 7,-1c-0.52594,0.86625 -0.52594,0.86625 -1.0625,1.75c-1.10994,2.66387 -0.8834,3.58428 0.0625,6.25c0.33,0.99 0.66,1.98 1,3c-1.0725,-0.06188 -2.145,-0.12375 -3.25,-0.1875c-3.85866,0.19293 -5.03818,0.58415 -7.75,3.1875c0,-2.31 0,-4.62 0,-7c-0.80438,-0.12375 -1.60875,-0.2475 -2.4375,-0.375c-0.84563,-0.20625 -1.69125,-0.4125 -2.5625,-0.625c-0.33,-0.66 -0.66,-1.32 -1,-2c1.98,-0.33 3.96,-0.66 6,-1c0,-2.31 0,-4.62 0,-7z"/>
  <path id="svg_56" fill="#95cae6" d="m1605,11359c2,1.375 2,1.375 4,3c0,0.66 0,1.32 0,2c3.465,-0.495 3.465,-0.495 7,-1c-0.52594,0.86625 -0.52594,0.86625 -1.0625,1.75c-1.10994,2.66387 -0.8834,3.58428 0.0625,6.25c0.33,0.99 0.66,1.98 1,3c-1.0725,-0.06188 -2.145,-0.12375 -3.25,-0.1875c-3.85866,0.19293 -5.03818,0.58415 -7.75,3.1875c0,-2.31 0,-4.62 0,-7c-0.80438,-0.12375 -1.60875,-0.2475 -2.4375,-0.375c-0.84563,-0.20625 -1.69125,-0.4125 -2.5625,-0.625c-0.33,-0.66 -0.66,-1.32 -1,-2c1.98,-0.33 3.96,-0.66 6,-1c0,-2.31 0,-4.62 0,-7z"/>
  <path id="svg_58" fill="#c18ec4" d="m1908,11304c0.66,0 1.32,0 2,0c0.66,1.65 1.32,3.3 2,5c2.31,-0.66 4.62,-1.32 7,-2c0,0.99 0,1.98 0,3c-0.66,0.66 -1.32,1.32 -2,2c0.32327,3.59679 0.32327,3.59679 1,7c-0.9075,-0.22687 -1.815,-0.45375 -2.75,-0.6875c-3.24504,-0.63856 -3.24504,-0.63856 -5.625,1.125c-0.53625,0.51563 -1.0725,1.03125 -1.625,1.5625c0,-1.98 0,-3.96 0,-6c-1.98,-0.66 -3.96,-1.32 -6,-2c0.33,-0.66 0.66,-1.32 1,-2c2.0625,-0.625 2.0625,-0.625 4,-1c0.33,-1.98 0.66,-3.96 1,-6z"/>
  <path id="svg_62" fill="#c090c4" d="m43,13616c0.66,0 1.32,0 2,0c-0.33,2.31 -0.66,4.62 -1,7c2.475,0.99 2.475,0.99 5,2c-2,2 -2,2 -5,4c-1.19233,2.05004 -1.19233,2.05004 -2,4c-1.5,-1.375 -1.5,-1.375 -3,-3c0,-0.66 0,-1.32 0,-2c-1.94075,0.27618 -1.94075,0.27618 -4,1c-0.99,1.485 -0.99,1.485 -2,3c0,-0.66 0,-1.32 0,-2c-0.66,-0.33 -1.32,-0.66 -2,-1c0.66,0 1.32,0 2,0c1.98362,-2.91709 1.98762,-4.12381 1.625,-7.75c-0.20625,-1.0725 -0.4125,-2.145 -0.625,-3.25c2.31,0.33 4.62,0.66 7,1c0.66,-0.99 1.32,-1.98 2,-3z"/>
  <path id="svg_63" fill="#e1cce3" d="m1877,11204c0.77772,2.33317 1.42416,4.61436 2,7c0.66,0 1.32,0 2,0c0,1.32 0,2.64 0,4c-0.96937,0.26812 -1.93875,0.53625 -2.9375,0.8125c-1.01063,0.39188 -2.02125,0.78375 -3.0625,1.1875c-0.33,0.99 -0.66,1.98 -1,3c-0.66,0 -1.32,0 -2,0c-0.33,-1.65 -0.66,-3.3 -1,-5c-2.31,0 -4.62,0 -7,0c0.68062,-0.53625 1.36125,-1.0725 2.0625,-1.625c2.32009,-2.28662 2.32009,-2.28662 1.6875,-5.625c-0.2475,-0.9075 -0.495,-1.815 -0.75,-2.75c1.09313,0.20625 2.18625,0.4125 3.3125,0.625c3.77134,0.77847 3.77134,0.77847 6.6875,-1.625z"/>
  <path id="svg_68" fill="#e4cfe6" d="m1847,11325c2,3 2,3 2,6c1.98,0 3.96,0 6,0c-0.495,0.53625 -0.99,1.0725 -1.5,1.625c-1.8749,2.96858 -1.73501,4.92812 -1.5,8.375c-0.53625,-0.35063 -1.0725,-0.70125 -1.625,-1.0625c-3.10775,-1.22674 -5.16932,-0.66606 -8.375,0.0625c0.04125,-0.9075 0.0825,-1.815 0.125,-2.75c-0.12032,-3.1282 -0.51647,-4.63614 -2.125,-7.25c1.17563,-0.12375 1.17563,-0.12375 2.375,-0.25c2.77249,-0.47806 2.77249,-0.47806 3.9375,-2.8125c0.22687,-0.63938 0.45375,-1.27875 0.6875,-1.9375z"/>
  <path id="svg_69" fill="#88b3d4" d="m1786,12869c0.99,0.66 1.98,1.32 3,2c0,0.66 0,1.32 0,2c1.98,-0.33 3.96,-0.66 6,-1c-0.37125,0.72187 -0.7425,1.44375 -1.125,2.1875c-1.06474,3.42238 -0.4784,4.69478 1.125,7.8125c-1.36125,-0.06188 -1.36125,-0.06188 -2.75,-0.125c-3.1282,0.12032 -4.63614,0.51647 -7.25,2.125c0,-1.98 0,-3.96 0,-6c-1.65,-0.33 -3.3,-0.66 -5,-1c0.66,-0.66 1.32,-1.32 2,-2c0.99,0 1.98,0 3,0c0.33,-1.98 0.66,-3.96 1,-6z"/>
  <path id="svg_70" fill="#88b3d4" d="m1673,11425c0.99,0.66 1.98,1.32 3,2c0,0.66 0,1.32 0,2c1.98,-0.33 3.96,-0.66 6,-1c-0.37125,0.72187 -0.7425,1.44375 -1.125,2.1875c-1.06474,3.42238 -0.4784,4.69478 1.125,7.8125c-1.36125,-0.06188 -1.36125,-0.06188 -2.75,-0.125c-3.1282,0.12032 -4.63614,0.51647 -7.25,2.125c0,-1.98 0,-3.96 0,-6c-1.65,-0.33 -3.3,-0.66 -5,-1c0.66,-0.66 1.32,-1.32 2,-2c0.99,0 1.98,0 3,0c0.33,-1.98 0.66,-3.96 1,-6z"/>
  <path id="svg_72" fill="#9ecae4" d="m1876,11285c0.66,0 1.32,0 2,0c-0.33,1.98 -0.66,3.96 -1,6c1.32,0.66 2.64,1.32 4,2c-0.61875,0.2475 -1.2375,0.495 -1.875,0.75c-2.47569,1.45629 -3.07625,2.62813 -4.125,5.25c-0.66,0 -1.32,0 -2,0c-0.33,-1.32 -0.66,-2.64 -1,-4c-1.98,0 -3.96,0 -6,0c0.77344,-1.11375 0.77344,-1.11375 1.5625,-2.25c1.68693,-2.58215 1.68693,-2.58215 1.125,-5.0625c-0.22687,-0.55687 -0.45375,-1.11375 -0.6875,-1.6875c1.42312,0.30937 1.42312,0.30937 2.875,0.625c1.03125,0.12375 2.0625,0.2475 3.125,0.375c0.66,-0.66 1.32,-1.32 2,-2z"/>
  <path id="svg_73" fill="#c595c8" d="m1858,12617c0.66,0 1.32,0 2,0c0,1.65 0,3.3 0,5c1.32,0.66 2.64,1.32 4,2c-0.63938,0.4125 -1.27875,0.825 -1.9375,1.25c-2.27241,1.9281 -2.66446,2.86424 -3.0625,5.75c-0.66,0 -1.32,0 -2,0c-0.66,-0.99 -1.32,-1.98 -2,-3c-2.5838,-0.25031 -2.5838,-0.25031 -5,0c0.35062,-0.7425 0.70125,-1.485 1.0625,-2.25c0.98259,-2.88227 0.97018,-3.96176 -0.0625,-6.75c0.78375,0.04125 1.5675,0.0825 2.375,0.125c2.78616,0.16229 2.78616,0.16229 4.625,-2.125z"/>
  <path id="svg_74" fill="#c595c8" d="m1745,11173c0.66,0 1.32,0 2,0c0,1.65 0,3.3 0,5c1.32,0.66 2.64,1.32 4,2c-0.63938,0.4125 -1.27875,0.825 -1.9375,1.25c-2.27241,1.9281 -2.66446,2.86424 -3.0625,5.75c-0.66,0 -1.32,0 -2,0c-0.66,-0.99 -1.32,-1.98 -2,-3c-2.5838,-0.25031 -2.5838,-0.25031 -5,0c0.35062,-0.7425 0.70125,-1.485 1.0625,-2.25c0.98259,-2.88227 0.97018,-3.96176 -0.0625,-6.75c0.78375,0.04125 1.5675,0.0825 2.375,0.125c2.78616,0.16229 2.78616,0.16229 4.625,-2.125z"/>
  <path id="svg_76" fill="#c18ec4" d="m54,13773c0.39188,0.495 0.78375,0.99 1.1875,1.5c2.36342,1.95593 3.82685,1.74208 6.8125,1.5c-0.35062,0.7425 -0.70125,1.485 -1.0625,2.25c-0.98259,2.88227 -0.97018,3.96176 0.0625,6.75c-1.14469,-0.06188 -1.14469,-0.06188 -2.3125,-0.125c-2.91468,-0.09581 -2.91468,-0.09581 -5.6875,2.125c0,-1.65 0,-3.3 0,-5c-2.475,-0.99 -2.475,-0.99 -5,-2c0.92812,-0.34031 0.92812,-0.34031 1.875,-0.6875c2.7391,-1.6918 3.17524,-3.30494 4.125,-6.3125z"/>
  <path id="svg_77" fill="#7fa5c8" d="m5,13722c-0.46586,2.71753 -1.01248,5.02842 -2.125,7.5625c-1.01578,2.82967 -0.90933,3.66716 0.125,6.4375c1.61055,1.97173 1.61055,1.97173 3.5625,3.75c0.64066,0.61359 1.28133,1.22719 1.94141,1.85938c0.49371,0.4589 0.98742,0.91781 1.49609,1.39062c-3.38019,1.04006 -6.47803,1.08004 -10,1c-0.08685,-3.2915 -0.14034,-6.58271 -0.1875,-9.875c-0.02514,-0.93715 -0.05027,-1.8743 -0.07617,-2.83984c-0.00967,-0.8959 -0.01934,-1.7918 -0.0293,-2.71485c-0.01571,-0.82741 -0.03142,-1.65483 -0.04761,-2.50732c0.11239,-0.68079 0.22478,-1.36157 0.34058,-2.06299c3,-2 3,-2 5,-2z"/>
  <path id="svg_83" fill="#c596c9" d="m1798,12679c2.31,0.33 4.62,0.66 7,1c-0.02062,0.94875 -0.04125,1.8975 -0.0625,2.875c-0.16302,3.03166 -0.16302,3.03166 1.0625,5.125c-1.14469,0.21656 -1.14469,0.21656 -2.3125,0.4375c-2.76923,0.52576 -2.76923,0.52576 -5.6875,1.5625c0,-1.32 0,-2.64 0,-4c-1.32,-0.33 -2.64,-0.66 -4,-1c1.32,-0.66 2.64,-1.32 4,-2c0,-1.32 0,-2.64 0,-4z"/>
  <path id="svg_84" fill="#c596c9" d="m1685,11235c2.31,0.33 4.62,0.66 7,1c-0.02062,0.94875 -0.04125,1.8975 -0.0625,2.875c-0.16302,3.03166 -0.16302,3.03166 1.0625,5.125c-1.14469,0.21656 -1.14469,0.21656 -2.3125,0.4375c-2.76923,0.52576 -2.76923,0.52576 -5.6875,1.5625c0,-1.32 0,-2.64 0,-4c-1.32,-0.33 -2.64,-0.66 -4,-1c1.32,-0.66 2.64,-1.32 4,-2c0,-1.32 0,-2.64 0,-4z"/>
  <path id="svg_85" fill="#c99dcc" d="m1787,12779c0.66,0.66 1.32,1.32 2,2c2.06874,0.64252 2.06874,0.64252 4,1c-0.33,2.64 -0.66,5.28 -1,8c-0.59812,-0.20625 -1.19625,-0.4125 -1.8125,-0.625c-2.47201,-0.68172 -2.47201,-0.68172 -5.1875,1.625c-0.12375,-0.78375 -0.2475,-1.5675 -0.375,-2.375c-0.41618,-2.76558 -0.41618,-2.76558 -2.625,-4.625c1.32,-0.33 2.64,-0.66 4,-1c0.33,-1.32 0.66,-2.64 1,-4z"/>
  <path id="svg_86" fill="#c99dcc" d="m1674,11335c0.66,0.66 1.32,1.32 2,2c2.06874,0.64252 2.06874,0.64252 4,1c-0.33,2.64 -0.66,5.28 -1,8c-0.59812,-0.20625 -1.19625,-0.4125 -1.8125,-0.625c-2.47201,-0.68172 -2.47201,-0.68172 -5.1875,1.625c-0.12375,-0.78375 -0.2475,-1.5675 -0.375,-2.375c-0.41618,-2.76558 -0.41618,-2.76558 -2.625,-4.625c1.32,-0.33 2.64,-0.66 4,-1c0.33,-1.32 0.66,-2.64 1,-4z"/>
  <path id="svg_87" fill="#9ac6e1" d="m1908,11212c0.99,0.66 1.98,1.32 3,2c1.32,0 2.64,0 4,0c-0.18562,0.76313 -0.37125,1.52625 -0.5625,2.3125c-0.66569,2.77717 -0.66569,2.77717 0.5625,5.6875c-1.14469,-0.06188 -1.14469,-0.06188 -2.3125,-0.125c-2.91468,-0.09581 -2.91468,-0.09581 -5.6875,2.125c0,-1.65 0,-3.3 0,-5c-0.99,-0.33 -1.98,-0.66 -3,-1c1.32,-0.66 2.64,-1.32 4,-2c0,-1.32 0,-2.64 0,-4z"/>
  <path id="svg_89" fill="#97c5e1" d="m1807,11264c0.66,0.33 1.32,0.66 2,1c0,0.99 0,1.98 0,3c1.32,0 2.64,0 4,0c-0.66,2.31 -1.32,4.62 -2,7c-0.59813,-0.18562 -1.19625,-0.37125 -1.8125,-0.5625c-2.35159,-0.65844 -2.35159,-0.65844 -5.1875,0.5625c-0.14438,-0.78375 -0.28875,-1.5675 -0.4375,-2.375c-0.44049,-2.58921 -0.44049,-2.58921 -1.5625,-4.625c1.32,0 2.64,0 4,0c0.33,-1.32 0.66,-2.64 1,-4z"/>
  <path id="svg_90" fill="#c698ca" d="m126,13614c0.28875,0.63938 0.5775,1.27875 0.875,1.9375c0.95323,2.21456 0.95323,2.21456 3.125,3.0625c0,0.66 0,1.32 0,2c-0.99,0.33 -1.98,0.66 -3,1c-0.33,0.99 -0.66,1.98 -1,3c-0.66,0 -1.32,0 -2,0c-0.33,-0.66 -0.66,-1.32 -1,-2c-2.0167,-1.13351 -2.0167,-1.13351 -4,-2c0.165,-0.61875 0.33,-1.2375 0.5,-1.875c0.57635,-2.08563 0.57635,-2.08563 0.5,-4.125c1.20656,0.03094 1.20656,0.03094 2.4375,0.0625c2.49605,0.23384 2.49605,0.23384 3.5625,-1.0625z"/>
  <path id="svg_92" fill="#98bcd7" d="m109,13589c2.31,0.66 4.62,1.32 7,2c-0.165,0.59813 -0.33,1.19625 -0.5,1.8125c-0.61141,2.30094 -0.61141,2.30094 -0.5,5.1875c-1.98,0.33 -3.96,0.66 -6,1c0,-1.32 0,-2.64 0,-4c-0.99,-0.33 -1.98,-0.66 -3,-1c0.99,-1.65 1.98,-3.3 3,-5z"/>
  <path id="svg_95" fill="#9fc6df" d="m1801,12806c0.66,0 1.32,0 2,0c0.33,0.99 0.66,1.98 1,3c0.66,0.66 1.32,1.32 2,2c-1.32,1.65 -2.64,3.3 -4,5c-2,-1 -4,-2 -6,-3c0.33,-1.98 0.66,-3.96 1,-6c1.98,0.495 1.98,0.495 4,1c0,-0.66 0,-1.32 0,-2z"/>
  <path id="svg_96" fill="#4d4d4d" d="m1847,12671c0.66,0.66 1.32,1.32 2,2c1.31747,0.69749 2.64914,1.3696 4,2c-0.75,2.4375 -0.75,2.4375 -2,5c-2,0.75 -2,0.75 -4,1c-0.99,0.495 -0.99,0.495 -2,1c-0.12375,-0.78375 -0.2475,-1.5675 -0.375,-2.375c-0.41618,-2.76558 -0.41618,-2.76558 -2.625,-4.625c1.32,0 2.64,0 4,0c0.33,-1.32 0.66,-2.64 1,-4z"/>
  <path id="svg_97" fill="#9fc6df" d="m1688,11362c0.66,0 1.32,0 2,0c0.33,0.99 0.66,1.98 1,3c0.66,0.66 1.32,1.32 2,2c-1.32,1.65 -2.64,3.3 -4,5c-2,-1 -4,-2 -6,-3c0.33,-1.98 0.66,-3.96 1,-6c1.98,0.495 1.98,0.495 4,1c0,-0.66 0,-1.32 0,-2z"/>
  <path id="svg_98" fill="#4d4d4d" d="m1734,11227c0.66,0.66 1.32,1.32 2,2c1.31747,0.69749 2.64914,1.3696 4,2c-0.75,2.4375 -0.75,2.4375 -2,5c-2,0.75 -2,0.75 -4,1c-0.99,0.495 -0.99,0.495 -2,1c-0.12375,-0.78375 -0.2475,-1.5675 -0.375,-2.375c-0.41618,-2.76558 -0.41618,-2.76558 -2.625,-4.625c1.32,0 2.64,0 4,0c0.33,-1.32 0.66,-2.64 1,-4z"/>
  <path id="svg_102" fill="#85a0c4" d="m1905,5196c0.66,0.33 1.32,0.66 2,1c-6.93,6.435 -6.93,6.435 -14,13c-0.66,-0.66 -1.32,-1.32 -2,-2c4.26588,-4.5411 9.03612,-8.24735 14,-12z"/>
  <path id="svg_103" fill="#85a0c4" d="m1905,2916c0.66,0.33 1.32,0.66 2,1c-6.93,6.435 -6.93,6.435 -14,13c-0.66,-0.66 -1.32,-1.32 -2,-2c4.26588,-4.5411 9.03612,-8.24735 14,-12z"/>
  <path id="svg_104" fill="#fbf9fb" d="m0,13593c2.67234,3.56311 3.77264,5.84586 5,10c-1.65,1.32 -3.3,2.64 -5,4c0,-4.62 0,-9.24 0,-14z"/>
  <path id="svg_105" fill="#7faccf" d="m1868,11286c2.86725,0.57345 3.86145,0.86145 6,3c0.66,-0.33 1.32,-0.66 2,-1c-0.33,1.65 -0.66,3.3 -1,5c-2.31,0.33 -4.62,0.66 -7,1c0.27844,-0.86625 0.27844,-0.86625 0.5625,-1.75c0.47774,-2.45693 0.19479,-3.89398 -0.5625,-6.25z"/>
  <path id="svg_106" fill="#79acd0" d="m1724,12810c-1.27396,2.03833 -2.61062,4.03852 -4,6c-0.66,0 -1.32,0 -2,0c0,-0.66 0,-1.32 0,-2c-1.20656,-0.18562 -1.20656,-0.18562 -2.4375,-0.375c-0.84563,-0.20625 -1.69125,-0.4125 -2.5625,-0.625c-0.33,-0.66 -0.66,-1.32 -1,-2c1.43504,-0.36402 2.87317,-0.71587 4.3125,-1.0625c0.80051,-0.19723 1.60102,-0.39445 2.42578,-0.59766c2.26172,-0.33984 2.26172,-0.33984 5.26172,0.66016z"/>
  <path id="svg_107" fill="#a1c8e1" d="m1718,12803c2,1.375 2,1.375 4,3c0,0.66 0,1.32 0,2c3.465,-0.495 3.465,-0.495 7,-1c-0.66,1.32 -1.32,2.64 -2,4c-0.33,-0.66 -0.66,-1.32 -1,-2c-1.0725,0.35062 -2.145,0.70125 -3.25,1.0625c-4.67308,1.16827 -4.67308,1.16827 -7.75,-0.0625c0.99,0 1.98,0 3,0c0,-2.31 0,-4.62 0,-7z"/>
  <path id="svg_108" fill="#79acd0" d="m1611,11366c-1.27396,2.03833 -2.61062,4.03852 -4,6c-0.66,0 -1.32,0 -2,0c0,-0.66 0,-1.32 0,-2c-1.20656,-0.18562 -1.20656,-0.18562 -2.4375,-0.375c-0.84563,-0.20625 -1.69125,-0.4125 -2.5625,-0.625c-0.33,-0.66 -0.66,-1.32 -1,-2c1.43504,-0.36402 2.87317,-0.71587 4.3125,-1.0625c0.80051,-0.19723 1.60102,-0.39445 2.42578,-0.59766c2.26172,-0.33984 2.26172,-0.33984 5.26172,0.66016z"/>
  <path id="svg_109" fill="#a1c8e1" d="m1605,11359c2,1.375 2,1.375 4,3c0,0.66 0,1.32 0,2c3.465,-0.495 3.465,-0.495 7,-1c-0.66,1.32 -1.32,2.64 -2,4c-0.33,-0.66 -0.66,-1.32 -1,-2c-1.0725,0.35062 -2.145,0.70125 -3.25,1.0625c-4.67308,1.16827 -4.67308,1.16827 -7.75,-0.0625c0.99,0 1.98,0 3,0c0,-2.31 0,-4.62 0,-7z"/>
  <path id="svg_111" fill="#9bb1ce" d="m30,1505c0.66,0.33 1.32,0.66 2,1c0,0.99 0,1.98 0,3c-1.76642,0.69877 -3.53833,1.38367 -5.3125,2.0625c-1.4792,0.57428 -1.4792,0.57428 -2.98828,1.16016c-2.69922,0.77734 -2.69922,0.77734 -5.69922,-0.22266c1.95245,-1.19715 3.91215,-2.38248 5.875,-3.5625c1.09055,-0.66129 2.18109,-1.32258 3.30469,-2.00391c0.9307,-0.47308 1.8614,-0.94617 2.82031,-1.43359z"/>
  <path id="svg_112" fill="#acd4ea" d="m1791,12876c2.2478,2.05234 3.00222,3.00667 4,6c-1.36125,-0.06187 -1.36125,-0.06187 -2.75,-0.125c-3.1282,0.12032 -4.63614,0.51647 -7.25,2.125c0,-1.98 0,-3.96 0,-6c3,0 3,0 6,1c0,-0.99 0,-1.98 0,-3z"/>
  <path id="svg_113" fill="#acd4ea" d="m1678,11432c2.2478,2.05234 3.00222,3.00667 4,6c-1.36125,-0.06187 -1.36125,-0.06187 -2.75,-0.125c-3.1282,0.12032 -4.63614,0.51647 -7.25,2.125c0,-1.98 0,-3.96 0,-6c3,0 3,0 6,1c0,-0.99 0,-1.98 0,-3z"/>
  <path id="svg_114" fill="#8fb6d4" d="m5,13722c-0.72008,4.60854 -2.31296,8.67237 -4,13c-0.33,0 -0.66,0 -1,0c-0.08086,-1.79093 -0.13913,-3.5829 -0.1875,-5.375c-0.0348,-0.99773 -0.06961,-1.99547 -0.10547,-3.02344c0.14502,-1.28777 0.14502,-1.28777 0.29297,-2.60156c3,-2 3,-2 5,-2z"/>
  <path id="svg_116" fill="#a2b7d2" d="m0,1540c4.28478,2.30719 7.72291,4.32966 11,8c-1.76562,0.67188 -1.76562,0.67188 -4,1c-1.92187,-1.10937 -1.92187,-1.10937 -3.75,-2.75c-0.61359,-0.53109 -1.22719,-1.06219 -1.85937,-1.60937c-1.39063,-1.64063 -1.39063,-1.64063 -1.39063,-4.64063z"/>
  <path id="svg_117" fill="#abcfe5" d="m40,13679c1.65,0.33 3.3,0.66 5,1c0.33,1.65 0.66,3.3 1,5c-1.65,0.33 -3.3,0.66 -5,1c-0.99,-1.32 -1.98,-2.64 -3,-4c0.66,0 1.32,0 2,0c0,-0.99 0,-1.98 0,-3z"/>
  <path id="svg_119" fill="#a9cde4" d="m1870,12718c1.32,1.32 2.64,2.64 4,4c-0.99,1.32 -1.98,2.64 -3,4c-1.32,-0.33 -2.64,-0.66 -4,-1c0,-1.65 0,-3.3 0,-5c0.99,0 1.98,0 3,0c0,-0.66 0,-1.32 0,-2z"/>
  <path id="svg_120" fill="#a9cde4" d="m1757,11274c1.32,1.32 2.64,2.64 4,4c-0.99,1.32 -1.98,2.64 -3,4c-1.32,-0.33 -2.64,-0.66 -4,-1c0,-1.65 0,-3.3 0,-5c0.99,0 1.98,0 3,0c0,-0.66 0,-1.32 0,-2z"/>
  <path id="svg_122" fill="#91b8d7" d="m1919,12710c0.33,0 0.66,0 1,0c0,2.64 0,5.28 0,8c-0.99,0.33 -1.98,0.66 -3,1c-0.14438,-0.78375 -0.28875,-1.5675 -0.4375,-2.375c-0.44049,-2.58921 -0.44049,-2.58921 -1.5625,-4.625c1.32,0 2.64,0 4,0c0,-0.66 0,-1.32 0,-2z"/>
  <path id="svg_124" fill="#f7f0f7" d="m1917,11168c0.99,0.33 1.98,0.66 3,1c0,2.97 0,5.94 0,9c-0.99,-0.33 -1.98,-0.66 -3,-1c0,-2.97 0,-5.94 0,-9z"/>
  <path id="svg_125" fill="#b1c2d9" d="m1908,1451c0.66,0.33 1.32,0.66 2,1c-3.96,3.465 -3.96,3.465 -8,7c-0.66,-0.99 -1.32,-1.98 -2,-3c1.28524,-0.8638 2.57842,-1.7158 3.875,-2.5625c1.07895,-0.7135 1.07895,-0.7135 2.17969,-1.44141c0.64195,-0.32871 1.2839,-0.65742 1.94531,-0.99609z"/>
  <path id="svg_126" fill="#8ec8e5" d="m1795,12873c-0.99,1.485 -0.99,1.485 -2,3c-0.66,0 -1.32,0 -2,0c0,0.99 0,1.98 0,3c-0.99,-0.33 -1.98,-0.66 -3,-1c0.33,-1.65 0.66,-3.3 1,-5c3,-1 3,-1 6,0z"/>
  <path id="svg_127" fill="#4e4e4e" d="m1777,12735c2,3 2,3 2,5c-0.66,0 -1.32,0 -2,0c-0.33,0.66 -0.66,1.32 -1,2c-1.5,-1.3125 -1.5,-1.3125 -3,-3c0,-0.99 0,-1.98 0,-3c1.32,-0.33 2.64,-0.66 4,-1z"/>
  <path id="svg_128" fill="#8ec8e5" d="m1682,11429c-0.99,1.485 -0.99,1.485 -2,3c-0.66,0 -1.32,0 -2,0c0,0.99 0,1.98 0,3c-0.99,-0.33 -1.98,-0.66 -3,-1c0.33,-1.65 0.66,-3.3 1,-5c3,-1 3,-1 6,0z"/>
  <path id="svg_129" fill="#4e4e4e" d="m1664,11291c2,3 2,3 2,5c-0.66,0 -1.32,0 -2,0c-0.33,0.66 -0.66,1.32 -1,2c-1.5,-1.3125 -1.5,-1.3125 -3,-3c0,-0.99 0,-1.98 0,-3c1.32,-0.33 2.64,-0.66 4,-1z"/>
  <path id="svg_130" fill="#a3a3a3" d="m94,13599c0.33,0.66 0.66,1.32 1,2c0.66,0 1.32,0 2,0c-0.33,1.32 -0.66,2.64 -1,4c-1.32,0 -2.64,0 -4,0c-0.33,-1.32 -0.66,-2.64 -1,-4c0.99,-0.66 1.98,-1.32 3,-2z"/>
  <path id="svg_131" fill="#b1d9ed" d="m109,13589c0.66,0 1.32,0 2,0c0,2.97 0,5.94 0,9c-0.99,0.495 -0.99,0.495 -2,1c0,-1.32 0,-2.64 0,-4c-0.99,-0.33 -1.98,-0.66 -3,-1c1.375,-2.5 1.375,-2.5 3,-5z"/>
  <path id="svg_135" fill="#c1e6f6" d="m1736,12845c6.93,0.495 6.93,0.495 14,1c-1.32,1.32 -2.64,2.64 -4,4c0,-0.99 0,-1.98 0,-3c-3.3,0 -6.6,0 -10,0c0,-0.66 0,-1.32 0,-2z"/>
  <path id="svg_138" fill="#c1e6f6" d="m1623,11401c6.93,0.495 6.93,0.495 14,1c-1.32,1.32 -2.64,2.64 -4,4c0,-0.99 0,-1.98 0,-3c-3.3,0 -6.6,0 -10,0c0,-0.66 0,-1.32 0,-2z"/>
  <path id="svg_139" fill="#97aecc" d="m1910,7160c0.66,0.33 1.32,0.66 2,1c-1.98,1.98 -3.96,3.96 -6,6c-1.32,-0.66 -2.64,-1.32 -4,-2c0.99,0 1.98,0 3,0c0,-0.66 0,-1.32 0,-2c2.375,-1.6875 2.375,-1.6875 5,-3z"/>
  <path id="svg_141" fill="#505050" d="m1887,11246c0.33,0.66 0.66,1.32 1,2c0.99,0 1.98,0 3,0c0.33,1.32 0.66,2.64 1,4c-2.97,-0.495 -2.97,-0.495 -6,-1c0.33,-1.65 0.66,-3.3 1,-5z"/>
  <path style="vector-effect: non-scaling-stroke;" stroke="null" id="svg_144" fill="#b1def2" d="m322,11951c0,0.66 0,1.32 0,2c-1.32,0 -2.64,0 -4,0c-0.33,1.32 -0.66,2.64 -1,4l5,-6z"/>
  <path id="svg_145" fill="#cfe4ef" d="m42,9274c4.29,0 8.58,0 13,0c0,0.33 0,0.66 0,1c-3.3,0 -6.6,0 -10,0c0,0.66 0,1.32 0,2c-0.99,-0.33 -1.98,-0.66 -3,-1c0,-0.66 0,-1.32 0,-2z"/>
  <path id="svg_150" fill="#b7c7dc" d="m1905,5196c0.66,0.33 1.32,0.66 2,1c-3.465,2.97 -3.465,2.97 -7,6c-0.66,-0.66 -1.32,-1.32 -2,-2c2.31,-1.65 4.62,-3.3 7,-5z"/>
  <path id="svg_151" fill="#b7c7dc" d="m1905,2916c0.66,0.33 1.32,0.66 2,1c-3.465,2.97 -3.465,2.97 -7,6c-0.66,-0.66 -1.32,-1.32 -2,-2c2.31,-1.65 4.62,-3.3 7,-5z"/>
  <path id="svg_152" fill="#97aecc" d="m1911,1414.3125c2,0.6875 2,0.6875 4,2.6875c-1.75,0.6875 -1.75,0.6875 -4,1c-2.25,-1.4375 -2.25,-1.4375 -4,-3c2,-1 2,-1 4,-0.6875z"/>
 </g>
</svg>